font.ufo
<glyph name="ampersand" format="2">
	<unicode hex="0026"/>
	<advance width="699"/>
	<outline>
		<contour>
			<point x="250" y="-13" type="curve" smooth="yes"/>
			<point x="352" y="-13"/>
			<point x="420" y="36"/>
			<point x="473" y="103" type="curve"/>
			<point x="475" y="105" type="line"/>
			<point x="461" y="114" type="line"/>
			<point x="402" y="43"/>
			<point x="339" y="9"/>
			<point x="251" y="9" type="curve" smooth="yes"/>
			<point x="145" y="9"/>
			<point x="78" y="92"/>
			<point x="78" y="175" type="curve" smooth="yes"/>
			<point x="78" y="256"/>
			<point x="126" y="319"/>
			<point x="230" y="381" type="curve"/>
			<point x="224" y="394" type="line"/>
			<point x="223" y="393" type="line"/>
			<point x="102" y="330"/>
			<point x="51" y="261"/>
			<point x="51" y="171" type="curve" smooth="yes"/>
			<point x="51" y="71"/>
			<point x="128" y="-13"/>
		</contour>
		<contour>
			<point x="477" y="109" type="line"/>
			<point x="552" y="210"/>
			<point x="573" y="284"/>
			<point x="591" y="420" type="curve"/>
			<point x="567" y="420" type="line"/>
			<point x="552" y="285"/>
			<point x="533" y="218"/>
			<point x="466" y="120" type="curve"/>
			<point x="462" y="120" type="line"/>
		</contour>
		<contour>
			<point x="571" y="397" type="line"/>
			<point x="580" y="397" type="line"/>
			<point x="658" y="403" type="line"/>
			<point x="658" y="420" type="line"/>
			<point x="478" y="420" type="line"/>
			<point x="478" y="403" type="line"/>
		</contour>
		<contour>
			<point x="612" y="-5" type="curve" smooth="yes"/>
			<point x="630" y="-5"/>
			<point x="648" y="-3"/>
			<point x="662" y="0" type="curve"/>
			<point x="662" y="14" type="line"/>
			<point x="548" y="24" type="line"/>
			<point x="583" y="9" type="line"/>
			<point x="464" y="138"/>
			<point x="393" y="215"/>
			<point x="327" y="289" type="curve" smooth="yes"/>
			<point x="287" y="334"/>
			<point x="253" y="370"/>
			<point x="201" y="432" type="curve" smooth="yes"/>
			<point x="154" y="486"/>
			<point x="145" y="516"/>
			<point x="145" y="557" type="curve" smooth="yes"/>
			<point x="145" y="627"/>
			<point x="199" y="671"/>
			<point x="261" y="671" type="curve" smooth="yes"/>
			<point x="325" y="671"/>
			<point x="365" y="627"/>
			<point x="365" y="564" type="curve" smooth="yes"/>
			<point x="365" y="492"/>
			<point x="313" y="449"/>
			<point x="228" y="396" type="curve"/>
			<point x="234" y="382" type="line"/>
			<point x="235" y="383" type="line"/>
			<point x="324" y="433"/>
			<point x="390" y="486"/>
			<point x="390" y="564" type="curve" smooth="yes"/>
			<point x="390" y="632"/>
			<point x="347" y="689"/>
			<point x="261" y="689" type="curve" smooth="yes"/>
			<point x="183" y="689"/>
			<point x="121" y="636"/>
			<point x="121" y="556" type="curve" smooth="yes"/>
			<point x="121" y="507"/>
			<point x="142" y="464"/>
			<point x="183" y="417" type="curve" smooth="yes"/>
			<point x="248" y="343"/>
			<point x="267" y="322"/>
			<point x="310" y="272" type="curve" smooth="yes"/>
			<point x="381" y="191"/>
			<point x="449" y="117"/>
			<point x="532" y="21" type="curve" smooth="yes"/>
			<point x="549" y="1"/>
			<point x="574" y="-5"/>
		</contour>
	</outline>
</glyph>
<glyph name="plus" format="2">
	<unicode hex="002B"/>
	<advance width="520"/>
	<outline>
		<contour>
			<point x="248" y="101" type="line"/>
			<point x="273" y="101" type="line"/>
			<point x="273" y="565" type="line"/>
			<point x="248" y="565" type="line"/>
		</contour>
		<contour>
			<point x="482" y="324" type="line"/>
			<point x="482" y="348" type="line"/>
			<point x="39" y="348" type="line"/>
			<point x="39" y="324" type="line"/>
		</contour>
	</outline>
</glyph>
<glyph name="comma" format="2">
	<unicode hex="002C"/>
	<advance width="292"/>
	<outline>
		<contour>
			<point x="179" y="2" type="curve" smooth="yes"/>
			<point x="179" y="21"/>
			<point x="177" y="28"/>
			<point x="173" y="41" type="curve"/>
			<point x="165" y="49"/>
			<point x="156" y="52"/>
			<point x="144" y="52" type="curve" smooth="yes"/>
			<point x="127" y="52"/>
			<point x="117" y="39"/>
			<point x="117" y="24" type="curve" smooth="yes"/>
			<point x="117" y="9"/>
			<point x="126" y="-1"/>
			<point x="141" y="-12" type="curve" smooth="yes"/>
			<point x="167" y="-31" type="line"/>
			<point x="160" y="-6" type="line"/>
			<point x="154" y="-67"/>
			<point x="129" y="-97"/>
			<point x="68" y="-127" type="curve"/>
			<point x="76" y="-143" type="line"/>
			<point x="145" y="-110"/>
			<point x="179" y="-62"/>
		</contour>
	</outline>
</glyph>
<glyph name="period" format="2">
	<unicode hex="002E"/>
	<advance width="292"/>
	<outline>
		<contour>
			<point x="146" y="-12" type="curve" smooth="yes"/>
			<point x="165" y="-12"/>
			<point x="178" y="4"/>
			<point x="178" y="20" type="curve" smooth="yes"/>
			<point x="178" y="38"/>
			<point x="165" y="52"/>
			<point x="146" y="52" type="curve" smooth="yes"/>
			<point x="127" y="52"/>
			<point x="114" y="38"/>
			<point x="114" y="20" type="curve" smooth="yes"/>
			<point x="114" y="4"/>
			<point x="127" y="-12"/>
		</contour>
	</outline>
</glyph>
<glyph name="one" format="2">
	<unicode hex="0031"/>
	<advance width="482"/>
	<outline>
		<contour>
			<point x="82" y="0" type="line"/>
			<point x="419" y="0" type="line"/>
			<point x="419" y="17" type="line"/>
			<point x="262" y="24" type="line"/>
			<point x="249" y="24" type="line"/>
			<point x="82" y="17" type="line"/>
		</contour>
		<contour>
			<point x="239" y="0" type="curve"/>
			<point x="272" y="0" type="line"/>
			<point x="270" y="76"/>
			<point x="269" y="148"/>
			<point x="269" y="228" type="curve" smooth="yes"/>
			<point x="269" y="474" type="line"/>
			<point x="272" y="654" type="line"/>
			<point x="261" y="664" type="line"/>
			<point x="89" y="615" type="line"/>
			<point x="89" y="598" type="line"/>
			<point x="242" y="631" type="line"/>
			<point x="242" y="228" type="line" smooth="yes"/>
			<point x="242" y="148"/>
			<point x="241" y="76"/>
		</contour>
	</outline>
</glyph>
<glyph name="less" format="2">
	<unicode hex="003C"/>
	<advance width="520"/>
	<outline>
		<contour>
			<point x="64" y="328" type="line"/>
			<point x="443" y="95" type="line"/>
			<point x="455" y="114" type="line"/>
			<point x="79" y="345" type="line"/>
			<point x="79" y="328" type="line"/>
			<point x="455" y="558" type="line"/>
			<point x="443" y="577" type="line"/>
			<point x="64" y="345" type="line"/>
		</contour>
	</outline>
</glyph>
<glyph name="G" format="2">
	<unicode hex="0047"/>
	<advance width="670"/>
	<outline>
		<contour>
			<point x="379" y="-13" type="curve" smooth="yes"/>
			<point x="455" y="-13"/>
			<point x="509" y="3"/>
			<point x="580" y="47" type="curve"/>
			<point x="580" y="99" type="line" smooth="yes"/>
			<point x="580" y="188"/>
			<point x="581" y="254"/>
			<point x="583" y="320" type="curve"/>
			<point x="549" y="320" type="line"/>
			<point x="551" y="247"/>
			<point x="551" y="173"/>
			<point x="551" y="99" type="curve" smooth="yes"/>
			<point x="551" y="48" type="line"/>
			<point x="565" y="64" type="line"/>
			<point x="507" y="24"/>
			<point x="448" y="7"/>
			<point x="377" y="7" type="curve" smooth="yes"/>
			<point x="206" y="7"/>
			<point x="94" y="136"/>
			<point x="94" y="338" type="curve" smooth="yes"/>
			<point x="94" y="538"/>
			<point x="206" y="669"/>
			<point x="384" y="669" type="curve" smooth="yes"/>
			<point x="460" y="669"/>
			<point x="504" y="651"/>
			<point x="559" y="612" type="curve"/>
			<point x="558" y="630" type="line"/>
			<point x="540" y="637" type="line"/>
			<point x="558" y="489" type="line"/>
			<point x="579" y="489" type="line"/>
			<point x="574" y="631" type="line"/>
			<point x="516" y="669"/>
			<point x="465" y="689"/>
			<point x="381" y="689" type="curve" smooth="yes"/>
			<point x="192" y="689"/>
			<point x="63" y="548"/>
			<point x="63" y="338" type="curve" smooth="yes"/>
			<point x="63" y="129"/>
			<point x="186" y="-13"/>
		</contour>
		<contour>
			<point x="432" y="303" type="line"/>
			<point x="559" y="296" type="line"/>
			<point x="572" y="296" type="line"/>
			<point x="657" y="303" type="line"/>
			<point x="657" y="320" type="line"/>
			<point x="432" y="320" type="line"/>
		</contour>
	</outline>
	<anchor name="aboveUC" x="376" y="696"/>
	<anchor name="belowLC" x="383" y="-20"/>
</glyph>
<glyph name="K" format="2">
	<unicode hex="004B"/>
	<advance width="647"/>
	<outline>
		<contour>
			<point x="158" y="0" type="curve"/>
			<point x="191" y="0" type="line"/>
			<point x="189" y="98"/>
			<point x="189" y="194"/>
			<point x="189" y="256" type="curve" smooth="yes"/>
			<point x="189" y="365" type="line" smooth="yes"/>
			<point x="189" y="469"/>
			<point x="189" y="578"/>
			<point x="191" y="676" type="curve"/>
			<point x="158" y="676" type="line"/>
			<point x="160" y="578"/>
			<point x="160" y="469"/>
			<point x="160" y="365" type="curve" smooth="yes"/>
			<point x="160" y="314" type="line" smooth="yes"/>
			<point x="160" y="209"/>
			<point x="160" y="98"/>
		</contour>
		<contour>
			<point x="55" y="0" type="line"/>
			<point x="294" y="0" type="line"/>
			<point x="294" y="17" type="line"/>
			<point x="181" y="24" type="line"/>
			<point x="167" y="24" type="line"/>
			<point x="55" y="17" type="line"/>
		</contour>
		<contour>
			<point x="55" y="659" type="line"/>
			<point x="167" y="652" type="line"/>
			<point x="181" y="652" type="line"/>
			<point x="294" y="659" type="line"/>
			<point x="294" y="676" type="line"/>
			<point x="55" y="676" type="line"/>
		</contour>
		<contour>
			<point x="431" y="0" type="line"/>
			<point x="649" y="0" type="line"/>
			<point x="649" y="17" type="line"/>
			<point x="552" y="24" type="line"/>
			<point x="538" y="24" type="line"/>
			<point x="431" y="17" type="line"/>
		</contour>
		<contour>
			<point x="408" y="659" type="line"/>
			<point x="527" y="652" type="line"/>
			<point x="541" y="652" type="line"/>
			<point x="625" y="659" type="line"/>
			<point x="625" y="676" type="line"/>
			<point x="408" y="676" type="line"/>
		</contour>
		<contour>
			<point x="173" y="195" type="line"/>
			<point x="567" y="676" type="line"/>
			<point x="539" y="676" type="line"/>
			<point x="183" y="237" type="line"/>
			<point x="174" y="228" type="line"/>
			<point x="171" y="228" type="line"/>
		</contour>
		<contour>
			<point x="543" y="0" type="line"/>
			<point x="574" y="0" type="line"/>
			<point x="339" y="413" type="line"/>
			<point x="318" y="389" type="line"/>
		</contour>
	</outline>
	<anchor name="aboveUC" x="347" y="696"/>
	<anchor name="belowLC" x="359" y="-20"/>
</glyph>
<glyph name="M" format="2">
	<unicode hex="004D"/>
	<advance width="880"/>
	<outline>
		<contour>
			<point x="47" y="0" type="line"/>
			<point x="261" y="0" type="line"/>
			<point x="261" y="17" type="line"/>
			<point x="156" y="24" type="line"/>
			<point x="145" y="24" type="line"/>
			<point x="47" y="17" type="line"/>
		</contour>
		<contour>
			<point x="39" y="659" type="line"/>
			<point x="152" y="652" type="line"/>
			<point x="156" y="652" type="line"/>
			<point x="156" y="676" type="line"/>
			<point x="39" y="676" type="line"/>
		</contour>
		<contour>
			<point x="139" y="0" type="line"/>
			<point x="161" y="0" type="line"/>
			<point x="161" y="376" type="line"/>
			<point x="158" y="673" type="line"/>
			<point x="139" y="673" type="line"/>
		</contour>
		<contour>
			<point x="422" y="0" type="line"/>
			<point x="433" y="0" type="line"/>
			<point x="697" y="644" type="line"/>
			<point x="702" y="656" type="line"/>
			<point x="706" y="656" type="line"/>
			<point x="706" y="676" type="line"/>
			<point x="686" y="676" type="line"/>
			<point x="427" y="44" type="line"/>
			<point x="425" y="39" type="line"/>
			<point x="434" y="39" type="line"/>
			<point x="173" y="676" type="line"/>
			<point x="145" y="676" type="line"/>
			<point x="145" y="655" type="line"/>
			<point x="150" y="655" type="line"/>
		</contour>
		<contour>
			<point x="586" y="0" type="line"/>
			<point x="824" y="0" type="line"/>
			<point x="824" y="17" type="line"/>
			<point x="712" y="24" type="line"/>
			<point x="698" y="24" type="line"/>
			<point x="586" y="17" type="line"/>
		</contour>
		<contour>
			<point x="688" y="0" type="curve"/>
			<point x="721" y="0" type="line"/>
			<point x="719" y="98"/>
			<point x="719" y="209"/>
			<point x="719" y="314" type="curve" smooth="yes"/>
			<point x="719" y="365" type="line" smooth="yes"/>
			<point x="719" y="469"/>
			<point x="719" y="578"/>
			<point x="721" y="676" type="curve"/>
			<point x="693" y="676" type="line"/>
			<point x="690" y="307" type="line" smooth="yes"/>
			<point x="690" y="209"/>
			<point x="690" y="98"/>
		</contour>
		<contour>
			<point x="703" y="652" type="line"/>
			<point x="712" y="652" type="line"/>
			<point x="824" y="659" type="line"/>
			<point x="824" y="676" type="line"/>
			<point x="703" y="676" type="line"/>
		</contour>
	</outline>
	<anchor name="aboveUC" x="433" y="696"/>
	<anchor name="belowLC" x="426" y="-20"/>
</glyph>
<glyph name="P" format="2">
	<unicode hex="0050"/>
	<advance width="562"/>
	<outline>
		<contour>
			<point x="55" y="0" type="line"/>
			<point x="305" y="0" type="line"/>
			<point x="305" y="17" type="line"/>
			<point x="181" y="24" type="line"/>
			<point x="167" y="24" type="line"/>
			<point x="55" y="17" type="line"/>
		</contour>
		<contour>
			<point x="158" y="0" type="curve"/>
			<point x="191" y="0" type="line"/>
			<point x="189" y="98"/>
			<point x="189" y="209"/>
			<point x="189" y="307" type="curve" smooth="yes"/>
			<point x="189" y="365" type="line" smooth="yes"/>
			<point x="189" y="469"/>
			<point x="189" y="578"/>
			<point x="191" y="676" type="curve"/>
			<point x="158" y="676" type="line"/>
			<point x="160" y="578"/>
			<point x="160" y="469"/>
			<point x="160" y="365" type="curve" smooth="yes"/>
			<point x="160" y="314" type="line" smooth="yes"/>
			<point x="160" y="209"/>
			<point x="160" y="98"/>
		</contour>
		<contour>
			<point x="174" y="288" type="line"/>
			<point x="259" y="288" type="line" smooth="yes"/>
			<point x="435" y="288"/>
			<point x="517" y="373"/>
			<point x="517" y="486" type="curve" smooth="yes"/>
			<point x="517" y="603"/>
			<point x="443" y="676"/>
			<point x="296" y="676" type="curve" smooth="yes"/>
			<point x="174" y="676" type="line"/>
			<point x="174" y="656" type="line"/>
			<point x="289" y="656" type="line" smooth="yes"/>
			<point x="429" y="656"/>
			<point x="487" y="596"/>
			<point x="487" y="486" type="curve" smooth="yes"/>
			<point x="487" y="383"/>
			<point x="424" y="306"/>
			<point x="246" y="306" type="curve" smooth="yes"/>
			<point x="174" y="306" type="line"/>
		</contour>
		<contour>
			<point x="55" y="659" type="line"/>
			<point x="167" y="652" type="line"/>
			<point x="174" y="652" type="line"/>
			<point x="174" y="676" type="line"/>
			<point x="55" y="676" type="line"/>
		</contour>
	</outline>
	<anchor name="aboveUC" x="285" y="696"/>
	<anchor name="belowLC" x="174" y="-20"/>
</glyph>
<glyph name="Q" format="2">
	<unicode hex="0051"/>
	<advance width="690"/>
	<outline>
		<contour>
			<point x="485" y="-198" type="curve" smooth="yes"/>
			<point x="517" y="-198"/>
			<point x="558" y="-190"/>
			<point x="589" y="-170" type="curve"/>
			<point x="583" y="-157" type="line"/>
			<point x="554" y="-170"/>
			<point x="525" y="-177"/>
			<point x="487" y="-177" type="curve" smooth="yes"/>
			<point x="406" y="-177"/>
			<point x="351" y="-106"/>
			<point x="357" y="-1" type="curve"/>
			<point x="328" y="0" type="line"/>
			<point x="328" y="-12" type="line" smooth="yes"/>
			<point x="328" y="-103"/>
			<point x="370" y="-198"/>
		</contour>
		<component base="O"/>
	</outline>
	<anchor name="aboveUC" x="345" y="696"/>
</glyph>
<glyph name="S" format="2">
	<unicode hex="0053"/>
	<advance width="507"/>
	<outline>
		<contour>
			<point x="239" y="-13" type="curve" smooth="yes"/>
			<point x="362" y="-13"/>
			<point x="452" y="54"/>
			<point x="452" y="165" type="curve" smooth="yes"/>
			<point x="452" y="260"/>
			<point x="403" y="306"/>
			<point x="272" y="359" type="curve" smooth="yes"/>
			<point x="233" y="375" type="line" smooth="yes"/>
			<point x="156" y="407"/>
			<point x="102" y="448"/>
			<point x="102" y="528" type="curve" smooth="yes"/>
			<point x="102" y="625"/>
			<point x="172" y="669"/>
			<point x="266" y="669" type="curve" smooth="yes"/>
			<point x="324" y="669"/>
			<point x="365" y="656"/>
			<point x="405" y="627" type="curve"/>
			<point x="405" y="638" type="line"/>
			<point x="392" y="645" type="line"/>
			<point x="402" y="515" type="line"/>
			<point x="420" y="515" type="line"/>
			<point x="424" y="641" type="line"/>
			<point x="377" y="672"/>
			<point x="338" y="689"/>
			<point x="265" y="689" type="curve" smooth="yes"/>
			<point x="168" y="689"/>
			<point x="76" y="641"/>
			<point x="76" y="526" type="curve" smooth="yes"/>
			<point x="76" y="438"/>
			<point x="131" y="386"/>
			<point x="230" y="346" type="curve" smooth="yes"/>
			<point x="267" y="331" type="line" smooth="yes"/>
			<point x="381" y="284"/>
			<point x="426" y="244"/>
			<point x="426" y="164" type="curve" smooth="yes"/>
			<point x="426" y="58"/>
			<point x="348" y="7"/>
			<point x="239" y="7" type="curve" smooth="yes"/>
			<point x="171" y="7"/>
			<point x="124" y="21"/>
			<point x="73" y="59" type="curve"/>
			<point x="72" y="46" type="line"/>
			<point x="89" y="37" type="line"/>
			<point x="78" y="172" type="line"/>
			<point x="62" y="172" type="line"/>
			<point x="56" y="41" type="line"/>
			<point x="94" y="14"/>
			<point x="162" y="-13"/>
		</contour>
	</outline>
	<anchor name="aboveUC" x="268" y="696"/>
	<anchor name="belowLC" x="247" y="-20"/>
	<anchor name="baseLC" x="247" y="0"/>
</glyph>
<glyph name="T" format="2">
	<unicode hex="0054"/>
	<advance width="583"/>
	<outline>
		<contour>
			<point x="161" y="0" type="line"/>
			<point x="421" y="0" type="line"/>
			<point x="421" y="17" type="line"/>
			<point x="298" y="24" type="line"/>
			<point x="284" y="24" type="line"/>
			<point x="161" y="17" type="line"/>
		</contour>
		<contour>
			<point x="275" y="0" type="curve"/>
			<point x="308" y="0" type="line"/>
			<point x="306" y="98"/>
			<point x="306" y="209"/>
			<point x="306" y="314" type="curve" smooth="yes"/>
			<point x="306" y="365" type="line" smooth="yes"/>
			<point x="306" y="469"/>
			<point x="306" y="578"/>
			<point x="308" y="676" type="curve"/>
			<point x="275" y="676" type="line"/>
			<point x="277" y="578"/>
			<point x="277" y="469"/>
			<point x="277" y="365" type="curve" smooth="yes"/>
			<point x="277" y="314" type="line" smooth="yes"/>
			<point x="277" y="209"/>
			<point x="277" y="98"/>
		</contour>
		<contour>
			<point x="21" y="510" type="line"/>
			<point x="41" y="510" type="line"/>
			<point x="62" y="674" type="line"/>
			<point x="48" y="656" type="line"/>
			<point x="535" y="656" type="line"/>
			<point x="521" y="674" type="line"/>
			<point x="542" y="510" type="line"/>
			<point x="562" y="510" type="line"/>
			<point x="552" y="676" type="line"/>
			<point x="31" y="676" type="line"/>
		</contour>
	</outline>
	<anchor name="aboveUC" x="291" y="696"/>
	<anchor name="belowLC" x="291" y="-20"/>
	<anchor name="baseLC" x="291" y="0"/>
</glyph>
<glyph name="V" format="2">
	<unicode hex="0056"/>
	<advance width="638"/>
	<outline>
		<contour>
			<point x="312" y="-8" type="line"/>
			<point x="329" y="-8" type="line"/>
			<point x="550" y="676" type="line"/>
			<point x="526" y="676" type="line"/>
			<point x="321" y="26" type="line"/>
			<point x="317" y="15" type="line"/>
			<point x="332" y="15" type="line"/>
			<point x="115" y="676" type="line"/>
			<point x="85" y="676" type="line"/>
		</contour>
		<contour>
			<point x="2" y="659" type="line"/>
			<point x="103" y="652" type="line"/>
			<point x="114" y="652" type="line"/>
			<point x="230" y="659" type="line"/>
			<point x="230" y="676" type="line"/>
			<point x="2" y="676" type="line"/>
		</contour>
		<contour>
			<point x="411" y="659" type="line"/>
			<point x="524" y="652" type="line"/>
			<point x="536" y="652" type="line"/>
			<point x="629" y="659" type="line"/>
			<point x="629" y="676" type="line"/>
			<point x="411" y="676" type="line"/>
		</contour>
	</outline>
	<anchor name="aboveUC" x="319" y="696"/>
	<anchor name="belowLC" x="323" y="-20"/>
</glyph>
<glyph name="bracketleft" format="2">
	<unicode hex="005B"/>
	<advance width="290"/>
	<outline>
		<contour>
			<point x="98" y="-159" type="curve"/>
			<point x="128" y="-159" type="line"/>
			<point x="126" y="-59"/>
			<point x="126" y="54"/>
			<point x="126" y="160" type="curve" smooth="yes"/>
			<point x="126" y="399" type="line" smooth="yes"/>
			<point x="126" y="505"/>
			<point x="126" y="617"/>
			<point x="128" y="715" type="curve"/>
			<point x="98" y="715" type="line"/>
			<point x="101" y="616"/>
			<point x="101" y="503"/>
			<point x="101" y="399" type="curve" smooth="yes"/>
			<point x="101" y="160" type="line" smooth="yes"/>
			<point x="101" y="52"/>
			<point x="101" y="-60"/>
		</contour>
		<contour>
			<point x="112" y="-159" type="line"/>
			<point x="241" y="-159" type="line"/>
			<point x="241" y="-141" type="line"/>
			<point x="125" y="-134" type="line"/>
			<point x="112" y="-134" type="line"/>
		</contour>
		<contour>
			<point x="112" y="690" type="line"/>
			<point x="125" y="690" type="line"/>
			<point x="241" y="697" type="line"/>
			<point x="241" y="715" type="line"/>
			<point x="112" y="715" type="line"/>
		</contour>
	</outline>
</glyph>
<glyph name="a" format="2">
	<unicode hex="0061"/>
	<advance width="492"/>
	<outline>
		<contour>
			<point x="176" y="-13" type="curve" smooth="yes"/>
			<point x="241" y="-13"/>
			<point x="287" y="19"/>
			<point x="347" y="87" type="curve"/>
			<point x="356" y="87" type="line"/>
			<point x="356" y="119" type="line"/>
			<point x="285" y="40"/>
			<point x="238" y="10"/>
			<point x="182" y="10" type="curve" smooth="yes"/>
			<point x="122" y="10"/>
			<point x="84" y="46"/>
			<point x="84" y="107" type="curve" smooth="yes"/>
			<point x="84" y="159"/>
			<point x="122" y="199"/>
			<point x="201" y="228" type="curve" smooth="yes"/>
			<point x="251" y="246"/>
			<point x="310" y="261"/>
			<point x="358" y="272" type="curve"/>
			<point x="358" y="288" type="line"/>
			<point x="309" y="277"/>
			<point x="253" y="266"/>
			<point x="200" y="248" type="curve" smooth="yes"/>
			<point x="104" y="217"/>
			<point x="56" y="172"/>
			<point x="56" y="101" type="curve" smooth="yes"/>
			<point x="56" y="28"/>
			<point x="105" y="-13"/>
		</contour>
		<contour>
			<point x="412" y="-12" type="curve" smooth="yes"/>
			<point x="435" y="-12"/>
			<point x="459" y="0"/>
			<point x="473" y="16" type="curve"/>
			<point x="463" y="26" type="line"/>
			<point x="447" y="13"/>
			<point x="434" y="9"/>
			<point x="419" y="9" type="curve" smooth="yes"/>
			<point x="388" y="9"/>
			<point x="373" y="28"/>
			<point x="373" y="96" type="curve" smooth="yes"/>
			<point x="373" y="334" type="line" smooth="yes"/>
			<point x="373" y="433"/>
			<point x="324" y="477"/>
			<point x="230" y="477" type="curve" smooth="yes"/>
			<point x="152" y="477"/>
			<point x="90" y="440"/>
			<point x="68" y="366" type="curve"/>
			<point x="71" y="354"/>
			<point x="79" y="346"/>
			<point x="90" y="346" type="curve" smooth="yes"/>
			<point x="102" y="346"/>
			<point x="110" y="351"/>
			<point x="113" y="366" type="curve" smooth="yes"/>
			<point x="130" y="436" type="line"/>
			<point x="109" y="415" type="line"/>
			<point x="147" y="444"/>
			<point x="184" y="459"/>
			<point x="229" y="459" type="curve" smooth="yes"/>
			<point x="307" y="459"/>
			<point x="346" y="428"/>
			<point x="346" y="318" type="curve" smooth="yes"/>
			<point x="346" y="91" type="line"/>
			<point x="346" y="87" type="line"/>
			<point x="349" y="23"/>
			<point x="366" y="-12"/>
		</contour>
	</outline>
	<anchor name="aboveLC" x="229" y="484"/>
	<anchor name="belowLC" x="236" y="-20"/>
	<anchor name="ogonek" x="420" y="0"/>
</glyph>
<glyph name="g" format="2">
	<unicode hex="0067"/>
	<advance width="498"/>
	<outline>
		<contour>
			<point x="227" y="-250" type="curve" smooth="yes"/>
			<point x="382" y="-250"/>
			<point x="464" y="-174"/>
			<point x="464" y="-93" type="curve" smooth="yes"/>
			<point x="464" y="-17"/>
			<point x="414" y="20"/>
			<point x="326" y="20" type="curve" smooth="yes"/>
			<point x="178" y="20" type="line" smooth="yes"/>
			<point x="126" y="20"/>
			<point x="106" y="48"/>
			<point x="106" y="79" type="curve" smooth="yes"/>
			<point x="106" y="114"/>
			<point x="122" y="136"/>
			<point x="164" y="173" type="curve"/>
			<point x="148" y="182" type="line"/>
			<point x="148" y="176" type="line"/>
			<point x="106" y="142"/>
			<point x="80" y="113"/>
			<point x="80" y="73" type="curve" smooth="yes"/>
			<point x="80" y="32"/>
			<point x="103" y="5"/>
			<point x="148" y="-3" type="curve"/>
			<point x="148" y="-5" type="line"/>
			<point x="163" y="-7"/>
			<point x="177" y="-8"/>
			<point x="192" y="-8" type="curve" smooth="yes"/>
			<point x="320" y="-8" type="line" smooth="yes"/>
			<point x="409" y="-8"/>
			<point x="436" y="-47"/>
			<point x="436" y="-94" type="curve" smooth="yes"/>
			<point x="436" y="-170"/>
			<point x="365" y="-229"/>
			<point x="228" y="-229" type="curve" smooth="yes"/>
			<point x="127" y="-229"/>
			<point x="76" y="-191"/>
			<point x="76" y="-121" type="curve" smooth="yes"/>
			<point x="76" y="-66"/>
			<point x="105" y="-36"/>
			<point x="167" y="-1" type="curve"/>
			<point x="161" y="9" type="line"/>
			<point x="97" y="-18"/>
			<point x="47" y="-60"/>
			<point x="47" y="-126" type="curve" smooth="yes"/>
			<point x="47" y="-204"/>
			<point x="108" y="-250"/>
		</contour>
		<contour>
			<point x="234" y="148" type="curve" smooth="yes"/>
			<point x="328" y="148"/>
			<point x="395" y="213"/>
			<point x="395" y="312" type="curve" smooth="yes"/>
			<point x="395" y="368"/>
			<point x="375" y="413"/>
			<point x="339" y="441" type="curve"/>
			<point x="338" y="442" type="line"/>
			<point x="311" y="464"/>
			<point x="274" y="477"/>
			<point x="234" y="477" type="curve" smooth="yes"/>
			<point x="138" y="477"/>
			<point x="72" y="410"/>
			<point x="72" y="312" type="curve" smooth="yes"/>
			<point x="72" y="215"/>
			<point x="137" y="148"/>
		</contour>
		<contour>
			<point x="234" y="166" type="curve" smooth="yes"/>
			<point x="156" y="166"/>
			<point x="100" y="225"/>
			<point x="100" y="312" type="curve" smooth="yes"/>
			<point x="100" y="400"/>
			<point x="156" y="459"/>
			<point x="234" y="459" type="curve" smooth="yes"/>
			<point x="311" y="459"/>
			<point x="367" y="400"/>
			<point x="367" y="312" type="curve" smooth="yes"/>
			<point x="367" y="225"/>
			<point x="311" y="166"/>
		</contour>
		<contour>
			<point x="322" y="434" type="line"/>
			<point x="464" y="434" type="line"/>
			<point x="464" y="461" type="line"/>
			<point x="452" y="469" type="line"/>
			<point x="325" y="444" type="line"/>
			<point x="321" y="444" type="line"/>
		</contour>
	</outline>
	<anchor name="aboveLC" x="234" y="484"/>
	<anchor name="belowLC" x="259" y="-270"/>
</glyph>
<glyph name="k" format="2">
	<unicode hex="006B"/>
	<advance width="528"/>
	<outline>
		<contour>
			<point x="46" y="0" type="line"/>
			<point x="243" y="0" type="line"/>
			<point x="243" y="17" type="line"/>
			<point x="151" y="23" type="line"/>
			<point x="144" y="23" type="line"/>
			<point x="46" y="17" type="line"/>
		</contour>
		<contour>
			<point x="132" y="0" type="curve"/>
			<point x="165" y="0" type="line"/>
			<point x="163" y="45"/>
			<point x="162" y="147"/>
			<point x="162" y="209" type="curve" smooth="yes"/>
			<point x="162" y="592" type="line"/>
			<point x="164" y="741" type="line"/>
			<point x="152" y="748" type="line"/>
			<point x="46" y="737" type="line"/>
			<point x="46" y="720" type="line"/>
			<point x="135" y="720" type="line"/>
			<point x="135" y="209" type="line" smooth="yes"/>
			<point x="135" y="147"/>
			<point x="134" y="45"/>
		</contour>
		<contour>
			<point x="149" y="174" type="line"/>
			<point x="437" y="464" type="line"/>
			<point x="408" y="464" type="line"/>
			<point x="153" y="203" type="line"/>
			<point x="149" y="203" type="line"/>
		</contour>
		<contour>
			<point x="423" y="0" type="line"/>
			<point x="522" y="0" type="line"/>
			<point x="522" y="17" type="line"/>
			<point x="441" y="22" type="line"/>
			<point x="268" y="302" type="line"/>
			<point x="249" y="283" type="line"/>
		</contour>
		<contour>
			<point x="290" y="447" type="line"/>
			<point x="391" y="441" type="line"/>
			<point x="399" y="441" type="line"/>
			<point x="504" y="447" type="line"/>
			<point x="504" y="464" type="line"/>
			<point x="290" y="464" type="line"/>
		</contour>
	</outline>
	<anchor name="aboveLC" x="144" y="749"/>
	<anchor name="belowLC" x="321" y="-20"/>
</glyph>
<glyph name="w" format="2">
	<unicode hex="0077"/>
	<advance width="752"/>
	<outline>
		<contour>
			<point x="218" y="-5" type="line"/>
			<point x="234" y="-5" type="line"/>
			<point x="385" y="443" type="line"/>
			<point x="388" y="453" type="line"/>
			<point x="371" y="453" type="line"/>
			<point x="522" y="-5" type="line"/>
			<point x="537" y="-5" type="line"/>
			<point x="686" y="464" type="line"/>
			<point x="664" y="464" type="line"/>
			<point x="529" y="27" type="line"/>
			<point x="526" y="16" type="line"/>
			<point x="540" y="16" type="line"/>
			<point x="392" y="464" type="line"/>
			<point x="374" y="464" type="line"/>
			<point x="225" y="29" type="line"/>
			<point x="221" y="16" type="line"/>
			<point x="237" y="16" type="line"/>
			<point x="94" y="464" type="line"/>
			<point x="62" y="464" type="line"/>
		</contour>
		<contour>
			<point x="0" y="447" type="line"/>
			<point x="79" y="441" type="line"/>
			<point x="87" y="441" type="line"/>
			<point x="189" y="447" type="line"/>
			<point x="189" y="464" type="line"/>
			<point x="0" y="464" type="line"/>
		</contour>
		<contour>
			<point x="294" y="447" type="line"/>
			<point x="377" y="441" type="line"/>
			<point x="389" y="441" type="line"/>
			<point x="472" y="447" type="line"/>
			<point x="472" y="464" type="line"/>
			<point x="294" y="464" type="line"/>
		</contour>
		<contour>
			<point x="567" y="447" type="line"/>
			<point x="668" y="441" type="line"/>
			<point x="675" y="441" type="line"/>
			<point x="745" y="447" type="line"/>
			<point x="745" y="464" type="line"/>
			<point x="567" y="464" type="line"/>
		</contour>
	</outline>
	<anchor name="aboveLC" x="380" y="484"/>
	<anchor name="belowLC" x="383" y="-20"/>
</glyph>
<glyph name="braceleft" format="2">
	<unicode hex="007B"/>
	<advance width="342"/>
	<outline>
		<contour>
			<point x="39" y="269" type="line"/>
			<point x="127" y="262"/>
			<point x="169" y="228"/>
			<point x="169" y="170" type="curve" smooth="yes"/>
			<point x="169" y="121"/>
			<point x="121" y="42"/>
			<point x="121" y="-35" type="curve" smooth="yes"/>
			<point x="121" y="-113"/>
			<point x="161" y="-159"/>
			<point x="278" y="-159" type="curve" smooth="yes"/>
			<point x="313" y="-159" type="line"/>
			<point x="313" y="-141" type="line"/>
			<point x="276" y="-138" type="line" smooth="yes"/>
			<point x="172" y="-132"/>
			<point x="147" y="-104"/>
			<point x="147" y="-33" type="curve" smooth="yes"/>
			<point x="147" y="46"/>
			<point x="188" y="110"/>
			<point x="188" y="167" type="curve" smooth="yes"/>
			<point x="188" y="229"/>
			<point x="151" y="276"/>
			<point x="54" y="281" type="curve"/>
			<point x="54" y="275" type="line"/>
			<point x="151" y="280"/>
			<point x="188" y="327"/>
			<point x="188" y="389" type="curve" smooth="yes"/>
			<point x="188" y="446"/>
			<point x="147" y="510"/>
			<point x="147" y="589" type="curve" smooth="yes"/>
			<point x="147" y="660"/>
			<point x="172" y="688"/>
			<point x="276" y="694" type="curve" smooth="yes"/>
			<point x="313" y="697" type="line"/>
			<point x="313" y="715" type="line"/>
			<point x="278" y="715" type="line" smooth="yes"/>
			<point x="161" y="715"/>
			<point x="121" y="669"/>
			<point x="121" y="591" type="curve" smooth="yes"/>
			<point x="121" y="514"/>
			<point x="169" y="435"/>
			<point x="169" y="386" type="curve" smooth="yes"/>
			<point x="169" y="328"/>
			<point x="127" y="294"/>
			<point x="39" y="287" type="curve"/>
		</contour>
	</outline>
</glyph>
<glyph name="asciitilde" format="2">
	<unicode hex="007E"/>
	<advance width="520"/>
	<outline>
		<contour>
			<point x="273" y="348" type="curve" smooth="yes"/>
			<point x="243" y="378"/>
			<point x="211" y="401"/>
			<point x="167" y="401" type="curve" smooth="yes"/>
			<point x="107" y="401"/>
			<point x="67" y="358"/>
			<point x="62" y="296" type="curve"/>
			<point x="82" y="292" type="line"/>
			<point x="91" y="353"/>
			<point x="121" y="377"/>
			<point x="167" y="377" type="curve" smooth="yes"/>
			<point x="203" y="377"/>
			<point x="224" y="362"/>
			<point x="252" y="335" type="curve" smooth="yes"/>
			<point x="284" y="303"/>
			<point x="313" y="284"/>
			<point x="357" y="284" type="curve" smooth="yes"/>
			<point x="418" y="284"/>
			<point x="456" y="328"/>
			<point x="461" y="389" type="curve"/>
			<point x="441" y="393" type="line"/>
			<point x="432" y="333"/>
			<point x="403" y="307"/>
			<point x="358" y="307" type="curve" smooth="yes"/>
			<point x="324" y="307"/>
			<point x="301" y="321"/>
		</contour>
	</outline>
</glyph>
<glyph name="currency" format="2">
	<unicode hex="00A4"/>
	<advance width="482"/>
	<outline>
		<contour>
			<point x="350" y="436" type="line"/>
			<point x="394" y="472" type="line" smooth="yes"/>
			<point x="425" y="496"/>
			<point x="447" y="511"/>
			<point x="447" y="527" type="curve" smooth="yes"/>
			<point x="447" y="536"/>
			<point x="439" y="544"/>
			<point x="430" y="544" type="curve" smooth="yes"/>
			<point x="414" y="544"/>
			<point x="397" y="520"/>
			<point x="374" y="489" type="curve" smooth="yes"/>
			<point x="340" y="445" type="line"/>
		</contour>
		<contour>
			<point x="106" y="336" type="curve" smooth="yes"/>
			<point x="106" y="416"/>
			<point x="167" y="474"/>
			<point x="242" y="474" type="curve" smooth="yes"/>
			<point x="317" y="474"/>
			<point x="377" y="416"/>
			<point x="377" y="336" type="curve" smooth="yes"/>
			<point x="377" y="258"/>
			<point x="318" y="198"/>
			<point x="242" y="198" type="curve" smooth="yes"/>
			<point x="168" y="198"/>
			<point x="106" y="255"/>
		</contour>
		<contour>
			<point x="85" y="336" type="curve" smooth="yes"/>
			<point x="85" y="242"/>
			<point x="158" y="180"/>
			<point x="242" y="180" type="curve" smooth="yes"/>
			<point x="326" y="180"/>
			<point x="398" y="242"/>
			<point x="398" y="336" type="curve" smooth="yes"/>
			<point x="398" y="430"/>
			<point x="326" y="492"/>
			<point x="242" y="492" type="curve" smooth="yes"/>
			<point x="158" y="492"/>
			<point x="85" y="430"/>
		</contour>
		<contour>
			<point x="143" y="445" type="line"/>
			<point x="109" y="489" type="line" smooth="yes"/>
			<point x="85" y="522"/>
			<point x="69" y="545"/>
			<point x="54" y="545" type="curve" smooth="yes"/>
			<point x="44" y="545"/>
			<point x="37" y="537"/>
			<point x="37" y="528" type="curve" smooth="yes"/>
			<point x="37" y="511"/>
			<point x="59" y="496"/>
			<point x="90" y="472" type="curve" smooth="yes"/>
			<point x="134" y="437" type="line"/>
		</contour>
		<contour>
			<point x="133" y="236" type="line"/>
			<point x="89" y="200" type="line" smooth="yes"/>
			<point x="58" y="176"/>
			<point x="36" y="161"/>
			<point x="36" y="145" type="curve" smooth="yes"/>
			<point x="36" y="136"/>
			<point x="43" y="128"/>
			<point x="53" y="128" type="curve" smooth="yes"/>
			<point x="69" y="128"/>
			<point x="85" y="152"/>
			<point x="109" y="183" type="curve" smooth="yes"/>
			<point x="143" y="227" type="line"/>
		</contour>
		<contour>
			<point x="339" y="227" type="line"/>
			<point x="374" y="183" type="line" smooth="yes"/>
			<point x="397" y="150"/>
			<point x="413" y="127"/>
			<point x="429" y="127" type="curve" smooth="yes"/>
			<point x="439" y="127"/>
			<point x="446" y="135"/>
			<point x="446" y="144" type="curve" smooth="yes"/>
			<point x="446" y="161"/>
			<point x="424" y="176"/>
			<point x="393" y="200" type="curve" smooth="yes"/>
			<point x="349" y="235" type="line"/>
		</contour>
	</outline>
</glyph>
<glyph name="yen" format="2">
	<unicode hex="00A5"/>
	<advance width="482"/>
	<outline>
		<contour>
			<point x="246" y="250" type="line"/>
			<point x="428" y="655" type="line"/>
			<point x="405" y="655" type="line"/>
			<point x="239" y="277" type="line"/>
			<point x="251" y="279" type="line"/>
			<point x="82" y="655" type="line"/>
			<point x="54" y="655" type="line"/>
			<point x="238" y="248" type="line"/>
		</contour>
		<contour>
			<point x="73" y="631" type="line"/>
			<point x="87" y="631" type="line"/>
			<point x="192" y="637" type="line"/>
			<point x="192" y="655" type="line"/>
			<point x="-4" y="655" type="line"/>
			<point x="-4" y="637" type="line"/>
		</contour>
		<contour>
			<point x="234" y="24" type="line"/>
			<point x="118" y="17" type="line"/>
			<point x="118" y="0" type="line"/>
			<point x="364" y="0" type="line"/>
			<point x="364" y="17" type="line"/>
			<point x="248" y="24" type="line"/>
		</contour>
		<contour>
			<point x="227" y="169" type="line" smooth="yes"/>
			<point x="227" y="120"/>
			<point x="227" y="84"/>
			<point x="226" y="0" type="curve"/>
			<point x="257" y="0" type="line"/>
			<point x="255" y="84"/>
			<point x="255" y="120"/>
			<point x="255" y="169" type="curve" smooth="yes"/>
			<point x="255" y="284" type="line"/>
			<point x="227" y="284" type="line"/>
		</contour>
		<contour>
			<point x="399" y="631" type="line"/>
			<point x="412" y="631" type="line"/>
			<point x="485" y="637" type="line"/>
			<point x="485" y="655" type="line"/>
			<point x="296" y="655" type="line"/>
			<point x="296" y="637" type="line"/>
		</contour>
		<contour>
			<point x="58" y="152" type="line"/>
			<point x="419" y="152" type="line"/>
			<point x="419" y="172" type="line"/>
			<point x="58" y="172" type="line"/>
		</contour>
		<contour>
			<point x="58" y="267" type="line"/>
			<point x="419" y="267" type="line"/>
			<point x="419" y="288" type="line"/>
			<point x="58" y="288" type="line"/>
		</contour>
	</outline>
</glyph>
<glyph name="registered" format="2">
	<unicode hex="00AE"/>
	<advance width="458"/>
	<outline>
		<contour>
			<point x="328" y="430" type="line"/>
			<point x="295" y="432" type="line"/>
			<point x="306" y="424" type="line"/>
			<point x="283" y="484" type="line" smooth="yes"/>
			<point x="273" y="507"/>
			<point x="263" y="515"/>
			<point x="235" y="517" type="curve"/>
			<point x="237" y="515" type="line"/>
			<point x="278" y="517"/>
			<point x="300" y="541"/>
			<point x="300" y="569" type="curve" smooth="yes"/>
			<point x="300" y="603"/>
			<point x="275" y="621"/>
			<point x="230" y="621" type="curve" smooth="yes"/>
			<point x="192" y="621" type="line"/>
			<point x="192" y="611" type="line"/>
			<point x="227" y="611" type="line" smooth="yes"/>
			<point x="264" y="611"/>
			<point x="277" y="593"/>
			<point x="277" y="569" type="curve" smooth="yes"/>
			<point x="277" y="542"/>
			<point x="260" y="522"/>
			<point x="228" y="522" type="curve" smooth="yes"/>
			<point x="192" y="522" type="line"/>
			<point x="192" y="511" type="line"/>
			<point x="221" y="511" type="line" smooth="yes"/>
			<point x="244" y="511"/>
			<point x="251" y="503"/>
			<point x="258" y="484" type="curve" smooth="yes"/>
			<point x="277" y="434" type="line" smooth="yes"/>
			<point x="282" y="423"/>
			<point x="289" y="418"/>
			<point x="309" y="418" type="curve" smooth="yes"/>
			<point x="317" y="418"/>
			<point x="322" y="419"/>
			<point x="328" y="420" type="curve"/>
		</contour>
		<contour>
			<point x="190" y="432" type="line"/>
			<point x="154" y="430" type="line"/>
			<point x="154" y="420" type="line"/>
			<point x="231" y="420" type="line"/>
			<point x="231" y="430" type="line"/>
			<point x="196" y="432" type="line"/>
		</contour>
		<contour>
			<point x="190" y="609" type="line"/>
			<point x="194" y="613" type="line"/>
			<point x="194" y="621" type="line"/>
			<point x="154" y="621" type="line"/>
			<point x="154" y="612" type="line"/>
		</contour>
		<contour>
			<point x="50" y="516" type="curve" smooth="yes"/>
			<point x="50" y="621"/>
			<point x="136" y="694"/>
			<point x="229" y="694" type="curve" smooth="yes"/>
			<point x="322" y="694"/>
			<point x="408" y="621"/>
			<point x="408" y="516" type="curve" smooth="yes"/>
			<point x="408" y="411"/>
			<point x="323" y="336"/>
			<point x="229" y="336" type="curve" smooth="yes"/>
			<point x="135" y="336"/>
			<point x="50" y="411"/>
		</contour>
		<contour>
			<point x="181" y="420" type="line"/>
			<point x="205" y="420" type="line"/>
			<point x="205" y="621" type="line"/>
			<point x="181" y="621" type="line"/>
		</contour>
		<contour>
			<point x="30" y="516" type="curve" smooth="yes"/>
			<point x="30" y="398"/>
			<point x="127" y="318"/>
			<point x="229" y="318" type="curve" smooth="yes"/>
			<point x="331" y="318"/>
			<point x="428" y="398"/>
			<point x="428" y="516" type="curve" smooth="yes"/>
			<point x="428" y="634"/>
			<point x="332" y="712"/>
			<point x="229" y="712" type="curve" smooth="yes"/>
			<point x="126" y="712"/>
			<point x="30" y="634"/>
		</contour>
	</outline>
</glyph>
<glyph name="degree" format="2">
	<unicode hex="00B0"/>
	<advance width="300"/>
	<outline>
		<contour>
			<point x="150" y="481" type="curve" smooth="yes"/>
			<point x="101" y="481"/>
			<point x="62" y="518"/>
			<point x="62" y="575" type="curve" smooth="yes"/>
			<point x="62" y="632"/>
			<point x="101" y="668"/>
			<point x="150" y="668" type="curve" smooth="yes"/>
			<point x="200" y="668"/>
			<point x="239" y="632"/>
			<point x="239" y="575" type="curve" smooth="yes"/>
			<point x="239" y="518"/>
			<point x="200" y="481"/>
		</contour>
		<contour>
			<point x="150" y="460" type="curve" smooth="yes"/>
			<point x="211" y="460"/>
			<point x="262" y="505"/>
			<point x="262" y="575" type="curve" smooth="yes"/>
			<point x="262" y="642"/>
			<point x="211" y="689"/>
			<point x="150" y="689" type="curve" smooth="yes"/>
			<point x="89" y="689"/>
			<point x="38" y="642"/>
			<point x="38" y="575" type="curve" smooth="yes"/>
			<point x="38" y="505"/>
			<point x="89" y="460"/>
		</contour>
	</outline>
</glyph>
<glyph name="two.sups" format="2">
	<unicode hex="00B2"/>
	<advance width="331"/>
	<outline>
		<contour>
			<point x="46" y="437" type="line"/>
			<point x="299" y="437" type="line"/>
			<point x="299" y="464" type="line"/>
			<point x="66" y="464" type="line"/>
			<point x="64" y="470" type="line"/>
			<point x="62" y="456" type="line"/>
			<point x="186" y="579" type="line" smooth="yes"/>
			<point x="251" y="649"/>
			<point x="278" y="690"/>
			<point x="278" y="738" type="curve" smooth="yes"/>
			<point x="278" y="802"/>
			<point x="238" y="842"/>
			<point x="164" y="842" type="curve" smooth="yes"/>
			<point x="108" y="842"/>
			<point x="62" y="813"/>
			<point x="46" y="762" type="curve"/>
			<point x="49" y="753"/>
			<point x="55" y="748"/>
			<point x="64" y="748" type="curve" smooth="yes"/>
			<point x="74" y="748"/>
			<point x="80" y="755"/>
			<point x="85" y="771" type="curve" smooth="yes"/>
			<point x="105" y="823" type="line"/>
			<point x="82" y="802" type="line"/>
			<point x="109" y="820"/>
			<point x="133" y="826"/>
			<point x="159" y="826" type="curve" smooth="yes"/>
			<point x="218" y="826"/>
			<point x="249" y="788"/>
			<point x="249" y="736" type="curve" smooth="yes"/>
			<point x="249" y="691"/>
			<point x="225" y="650"/>
			<point x="169" y="588" type="curve" smooth="yes"/>
			<point x="46" y="458" type="line"/>
		</contour>
	</outline>
</glyph>
<glyph name="three.sups" format="2">
	<unicode hex="00B3"/>
	<advance width="331"/>
	<outline>
		<contour>
			<point x="159" y="428" type="curve" smooth="yes"/>
			<point x="234" y="428"/>
			<point x="291" y="473"/>
			<point x="291" y="542" type="curve" smooth="yes"/>
			<point x="291" y="602"/>
			<point x="248" y="643"/>
			<point x="169" y="647" type="curve"/>
			<point x="169" y="642" type="line"/>
			<point x="237" y="652"/>
			<point x="278" y="694"/>
			<point x="278" y="744" type="curve" smooth="yes"/>
			<point x="278" y="801"/>
			<point x="234" y="842"/>
			<point x="165" y="842" type="curve" smooth="yes"/>
			<point x="114" y="842"/>
			<point x="66" y="819"/>
			<point x="52" y="768" type="curve"/>
			<point x="54" y="759"/>
			<point x="60" y="754"/>
			<point x="68" y="754" type="curve" smooth="yes"/>
			<point x="80" y="754"/>
			<point x="85" y="760"/>
			<point x="89" y="775" type="curve" smooth="yes"/>
			<point x="106" y="825" type="line"/>
			<point x="87" y="806" type="line"/>
			<point x="112" y="822"/>
			<point x="134" y="826"/>
			<point x="162" y="826" type="curve" smooth="yes"/>
			<point x="217" y="826"/>
			<point x="249" y="793"/>
			<point x="249" y="744" type="curve" smooth="yes"/>
			<point x="249" y="687"/>
			<point x="204" y="654"/>
			<point x="144" y="654" type="curve" smooth="yes"/>
			<point x="117" y="654" type="line"/>
			<point x="117" y="637" type="line"/>
			<point x="146" y="637" type="line" smooth="yes"/>
			<point x="224" y="637"/>
			<point x="262" y="601"/>
			<point x="262" y="541" type="curve" smooth="yes"/>
			<point x="262" y="484"/>
			<point x="223" y="444"/>
			<point x="154" y="444" type="curve" smooth="yes"/>
			<point x="124" y="444"/>
			<point x="101" y="450"/>
			<point x="78" y="464" type="curve"/>
			<point x="97" y="444" type="line"/>
			<point x="79" y="496" type="line" smooth="yes"/>
			<point x="74" y="511"/>
			<point x="69" y="517"/>
			<point x="58" y="517" type="curve" smooth="yes"/>
			<point x="49" y="517"/>
			<point x="43" y="513"/>
			<point x="41" y="503" type="curve"/>
			<point x="56" y="453"/>
			<point x="100" y="428"/>
		</contour>
	</outline>
</glyph>
<glyph name="paragraph" format="2">
	<unicode hex="00B6"/>
	<advance width="603"/>
	<outline>
		<contour>
			<point x="341" y="177" type="curve"/>
			<point x="341" y="654" type="line"/>
			<point x="418" y="654" type="line"/>
			<point x="418" y="676" type="line"/>
			<point x="364" y="676" type="line" smooth="yes"/>
			<point x="174" y="676"/>
			<point x="62" y="577"/>
			<point x="62" y="427" type="curve" smooth="yes"/>
			<point x="62" y="268"/>
			<point x="185" y="177"/>
		</contour>
		<contour>
			<point x="407" y="-129" type="curve"/>
			<point x="436" y="-129" type="line"/>
			<point x="434" y="-31"/>
			<point x="434" y="79"/>
			<point x="434" y="184" type="curve" smooth="yes"/>
			<point x="434" y="364" type="line" smooth="yes"/>
			<point x="434" y="468"/>
			<point x="434" y="578"/>
			<point x="436" y="676" type="curve"/>
			<point x="409" y="676" type="line"/>
			<point x="409" y="184" type="line" smooth="yes"/>
			<point x="409" y="79"/>
			<point x="409" y="-31"/>
		</contour>
		<contour>
			<point x="418" y="652" type="line"/>
			<point x="426" y="652" type="line"/>
			<point x="542" y="659" type="line"/>
			<point x="542" y="676" type="line"/>
			<point x="418" y="676" type="line"/>
		</contour>
	</outline>
</glyph>
<glyph name="Oslash" format="2">
	<unicode hex="00D8"/>
	<advance width="690"/>
	<outline>
		<contour>
			<point x="622" y="683" type="line"/>
			<point x="606" y="696" type="line"/>
			<point x="68" y="-3" type="line"/>
			<point x="84" y="-16" type="line"/>
		</contour>
		<contour>
			<point x="93" y="337" type="curve" smooth="yes"/>
			<point x="93" y="523"/>
			<point x="189" y="669"/>
			<point x="345" y="669" type="curve" smooth="yes"/>
			<point x="501" y="669"/>
			<point x="597" y="524"/>
			<point x="597" y="339" type="curve" smooth="yes"/>
			<point x="597" y="153"/>
			<point x="501" y="7"/>
			<point x="345" y="7" type="curve" smooth="yes"/>
			<point x="189" y="7"/>
			<point x="93" y="152"/>
		</contour>
		<contour>
			<point x="345" y="689" type="curve" smooth="yes"/>
			<point x="184" y="689"/>
			<point x="62" y="551"/>
			<point x="62" y="337" type="curve" smooth="yes"/>
			<point x="62" y="124"/>
			<point x="184" y="-13"/>
			<point x="345" y="-13" type="curve" smooth="yes"/>
			<point x="506" y="-13"/>
			<point x="628" y="125"/>
			<point x="628" y="339" type="curve" smooth="yes"/>
			<point x="628" y="552"/>
			<point x="506" y="689"/>
		</contour>
	</outline>
	<anchor name="aboveUC" x="345" y="696"/>
</glyph>
<glyph name="germandbls" format="2">
	<unicode hex="00DF"/>
	<advance width="564"/>
	<outline>
		<contour>
			<point x="35" y="0" type="line"/>
			<point x="143" y="0" type="line"/>
			<point x="143" y="23" type="line"/>
			<point x="139" y="23" type="line"/>
			<point x="35" y="17" type="line"/>
		</contour>
		<contour>
			<point x="128" y="0" type="curve"/>
			<point x="162" y="0" type="line"/>
			<point x="160" y="70"/>
			<point x="158" y="139"/>
			<point x="158" y="209" type="curve" smooth="yes"/>
			<point x="158" y="452" type="line" smooth="yes"/>
			<point x="158" y="580"/>
			<point x="178" y="648"/>
			<point x="223" y="694" type="curve" smooth="yes"/>
			<point x="254" y="726"/>
			<point x="296" y="741"/>
			<point x="345" y="741" type="curve" smooth="yes"/>
			<point x="426" y="741"/>
			<point x="453" y="689"/>
			<point x="453" y="636" type="curve" smooth="yes"/>
			<point x="453" y="587"/>
			<point x="424" y="551"/>
			<point x="379" y="506" type="curve" smooth="yes"/>
			<point x="336" y="464"/>
			<point x="294" y="421"/>
			<point x="294" y="362" type="curve" smooth="yes"/>
			<point x="294" y="302"/>
			<point x="336" y="264"/>
			<point x="387" y="236" type="curve" smooth="yes"/>
			<point x="460" y="197"/>
			<point x="492" y="159"/>
			<point x="492" y="110" type="curve" smooth="yes"/>
			<point x="492" y="47"/>
			<point x="452" y="5"/>
			<point x="377" y="5" type="curve" smooth="yes"/>
			<point x="332" y="5"/>
			<point x="295" y="17"/>
			<point x="263" y="35" type="curve"/>
			<point x="280" y="15" type="line"/>
			<point x="267" y="123" type="line"/>
			<point x="250" y="123" type="line"/>
			<point x="250" y="16" type="line"/>
			<point x="292" y="-3"/>
			<point x="331" y="-13"/>
			<point x="374" y="-13" type="curve" smooth="yes"/>
			<point x="465" y="-13"/>
			<point x="518" y="37"/>
			<point x="518" y="113" type="curve" smooth="yes"/>
			<point x="518" y="170"/>
			<point x="482" y="215"/>
			<point x="401" y="261" type="curve" smooth="yes"/>
			<point x="350" y="290"/>
			<point x="320" y="320"/>
			<point x="320" y="366" type="curve" smooth="yes"/>
			<point x="320" y="415"/>
			<point x="351" y="453"/>
			<point x="393" y="495" type="curve" smooth="yes"/>
			<point x="442" y="544"/>
			<point x="480" y="580"/>
			<point x="480" y="637" type="curve" smooth="yes"/>
			<point x="480" y="712"/>
			<point x="432" y="759"/>
			<point x="348" y="759" type="curve" smooth="yes"/>
			<point x="295" y="759"/>
			<point x="246" y="744"/>
			<point x="206" y="705" type="curve" smooth="yes"/>
			<point x="150" y="650"/>
			<point x="131" y="572"/>
			<point x="131" y="458" type="curve" smooth="yes"/>
			<point x="131" y="209" type="line" smooth="yes"/>
			<point x="131" y="139"/>
			<point x="130" y="70"/>
		</contour>
	</outline>
</glyph>
<glyph name="eth" format="2">
	<unicode hex="00F0"/>
	<advance width="524"/>
	<outline>
		<contour>
			<point x="259" y="-13" type="curve" smooth="yes"/>
			<point x="376" y="-13"/>
			<point x="467" y="79"/>
			<point x="467" y="262" type="curve" smooth="yes"/>
			<point x="467" y="472"/>
			<point x="383" y="644"/>
			<point x="152" y="759" type="curve"/>
			<point x="142" y="743" type="line"/>
			<point x="365" y="628"/>
			<point x="426" y="481"/>
			<point x="441" y="302" type="curve"/>
			<point x="450" y="292" type="line"/>
			<point x="423" y="403"/>
			<point x="351" y="467"/>
			<point x="259" y="467" type="curve" smooth="yes"/>
			<point x="145" y="467"/>
			<point x="51" y="379"/>
			<point x="51" y="226" type="curve" smooth="yes"/>
			<point x="51" y="75"/>
			<point x="142" y="-13"/>
		</contour>
		<contour>
			<point x="259" y="5" type="curve" smooth="yes"/>
			<point x="161" y="5"/>
			<point x="81" y="89"/>
			<point x="81" y="226" type="curve" smooth="yes"/>
			<point x="81" y="370"/>
			<point x="160" y="449"/>
			<point x="259" y="449" type="curve" smooth="yes"/>
			<point x="352" y="449"/>
			<point x="437" y="376"/>
			<point x="437" y="230" type="curve" smooth="yes"/>
			<point x="437" y="98"/>
			<point x="363" y="5"/>
		</contour>
		<contour>
			<point x="156" y="552" type="line"/>
			<point x="478" y="720" type="line"/>
			<point x="470" y="737" type="line"/>
			<point x="148" y="569" type="line"/>
		</contour>
	</outline>
</glyph>
<glyph name="oslash" format="2">
	<unicode hex="00F8"/>
	<advance width="522"/>
	<outline>
		<contour>
			<point x="465" y="476" type="line"/>
			<point x="450" y="488" type="line"/>
			<point x="54" y="-12" type="line"/>
			<point x="69" y="-24" type="line"/>
		</contour>
		<contour>
			<point x="261" y="-13" type="curve" smooth="yes"/>
			<point x="364" y="-13"/>
			<point x="471" y="63"/>
			<point x="471" y="232" type="curve" smooth="yes"/>
			<point x="471" y="400"/>
			<point x="364" y="477"/>
			<point x="261" y="477" type="curve" smooth="yes"/>
			<point x="158" y="477"/>
			<point x="51" y="398"/>
			<point x="51" y="229" type="curve" smooth="yes"/>
			<point x="51" y="61"/>
			<point x="158" y="-13"/>
		</contour>
		<contour>
			<point x="261" y="5" type="curve" smooth="yes"/>
			<point x="157" y="5"/>
			<point x="81" y="84"/>
			<point x="81" y="229" type="curve" smooth="yes"/>
			<point x="81" y="373"/>
			<point x="157" y="459"/>
			<point x="261" y="459" type="curve" smooth="yes"/>
			<point x="365" y="459"/>
			<point x="441" y="377"/>
			<point x="441" y="232" type="curve" smooth="yes"/>
			<point x="441" y="88"/>
			<point x="365" y="5"/>
		</contour>
	</outline>
	<anchor name="aboveLC" x="261" y="484"/>
</glyph>
<glyph name="aogonek" format="2">
	<unicode hex="0105"/>
	<advance width="492"/>
	<outline>
		<contour>
			<point x="176" y="-13" type="curve" smooth="yes"/>
			<point x="241" y="-13"/>
			<point x="287" y="18"/>
			<point x="347" y="86" type="curve"/>
			<point x="367" y="86" type="line"/>
			<point x="348" y="109" type="line"/>
			<point x="285" y="39"/>
			<point x="238" y="10"/>
			<point x="182" y="10" type="curve" smooth="yes"/>
			<point x="122" y="10"/>
			<point x="84" y="46"/>
			<point x="84" y="107" type="curve" smooth="yes"/>
			<point x="84" y="159"/>
			<point x="122" y="197"/>
			<point x="201" y="226" type="curve" smooth="yes"/>
			<point x="251" y="245"/>
			<point x="310" y="260"/>
			<point x="358" y="271" type="curve"/>
			<point x="358" y="287" type="line"/>
			<point x="309" y="276"/>
			<point x="253" y="264"/>
			<point x="200" y="247" type="curve" smooth="yes"/>
			<point x="104" y="215"/>
			<point x="56" y="172"/>
			<point x="56" y="101" type="curve" smooth="yes"/>
			<point x="56" y="28"/>
			<point x="105" y="-13"/>
		</contour>
		<contour>
			<point x="410" y="-217" type="curve" smooth="yes"/>
			<point x="447" y="-217"/>
			<point x="476" y="-201"/>
			<point x="493" y="-177" type="curve"/>
			<point x="484" y="-169" type="line"/>
			<point x="462" y="-188"/>
			<point x="442" y="-195"/>
			<point x="417" y="-195" type="curve" smooth="yes"/>
			<point x="379" y="-195"/>
			<point x="351" y="-170"/>
			<point x="351" y="-122" type="curve" smooth="yes"/>
			<point x="351" y="-76"/>
			<point x="392" y="-36"/>
			<point x="442" y="-5" type="curve" smooth="yes"/>
			<point x="453" y="2"/>
			<point x="464" y="8"/>
			<point x="472" y="17" type="curve"/>
			<point x="464" y="26" type="line"/>
			<point x="447" y="13"/>
			<point x="433" y="9"/>
			<point x="417" y="9" type="curve" smooth="yes"/>
			<point x="388" y="9"/>
			<point x="372" y="31"/>
			<point x="372" y="99" type="curve" smooth="yes"/>
			<point x="372" y="334" type="line" smooth="yes"/>
			<point x="372" y="433"/>
			<point x="325" y="477"/>
			<point x="230" y="477" type="curve" smooth="yes"/>
			<point x="152" y="477"/>
			<point x="89" y="440"/>
			<point x="69" y="364" type="curve"/>
			<point x="71" y="352"/>
			<point x="80" y="346"/>
			<point x="91" y="346" type="curve" smooth="yes"/>
			<point x="102" y="346"/>
			<point x="112" y="351"/>
			<point x="115" y="364" type="curve" smooth="yes"/>
			<point x="130" y="437" type="line"/>
			<point x="105" y="411" type="line"/>
			<point x="148" y="446"/>
			<point x="184" y="459"/>
			<point x="228" y="459" type="curve" smooth="yes"/>
			<point x="306" y="459"/>
			<point x="345" y="428"/>
			<point x="345" y="318" type="curve" smooth="yes"/>
			<point x="345" y="87" type="line"/>
			<point x="345" y="85" type="line" smooth="yes"/>
			<point x="345" y="22"/>
			<point x="364" y="-11"/>
			<point x="412" y="-11" type="curve" smooth="yes"/>
			<point x="414" y="-11"/>
			<point x="416" y="-11"/>
			<point x="421" y="-9" type="curve"/>
			<point x="418" y="-5" type="line"/>
			<point x="369" y="-38"/>
			<point x="325" y="-77"/>
			<point x="325" y="-130" type="curve" smooth="yes"/>
			<point x="325" y="-186"/>
			<point x="364" y="-217"/>
		</contour>
	</outline>
	<anchor name="aboveLC" x="229" y="484"/>
	<anchor name="belowLC" x="236" y="-20"/>
</glyph>
<glyph name="eogonek" format="2">
	<unicode hex="0119"/>
	<advance width="477"/>
	<outline>
		<contour>
			<point x="337" y="-217" type="curve" smooth="yes"/>
			<point x="373" y="-217"/>
			<point x="402" y="-201"/>
			<point x="419" y="-177" type="curve"/>
			<point x="410" y="-169" type="line"/>
			<point x="388" y="-188"/>
			<point x="369" y="-195"/>
			<point x="343" y="-195" type="curve" smooth="yes"/>
			<point x="306" y="-195"/>
			<point x="277" y="-169"/>
			<point x="277" y="-120" type="curve" smooth="yes"/>
			<point x="277" y="-74"/>
			<point x="319" y="-22"/>
			<point x="362" y="8" type="curve" smooth="yes"/>
			<point x="386" y="24"/>
			<point x="410" y="42"/>
			<point x="428" y="65" type="curve"/>
			<point x="419" y="75" type="line"/>
			<point x="379" y="34"/>
			<point x="328" y="12"/>
			<point x="267" y="12" type="curve" smooth="yes"/>
			<point x="168" y="12"/>
			<point x="81" y="86"/>
			<point x="81" y="242" type="curve" smooth="yes"/>
			<point x="81" y="359"/>
			<point x="153" y="459"/>
			<point x="257" y="459" type="curve" smooth="yes"/>
			<point x="354" y="459"/>
			<point x="403" y="380"/>
			<point x="403" y="298" type="curve" smooth="yes"/>
			<point x="403" y="268"/>
			<point x="397" y="260"/>
			<point x="382" y="260" type="curve" smooth="yes"/>
			<point x="68" y="260" type="line"/>
			<point x="68" y="241" type="line"/>
			<point x="426" y="241" type="line"/>
			<point x="430" y="256"/>
			<point x="431" y="274"/>
			<point x="431" y="296" type="curve" smooth="yes"/>
			<point x="431" y="392"/>
			<point x="371" y="477"/>
			<point x="257" y="477" type="curve" smooth="yes"/>
			<point x="148" y="477"/>
			<point x="51" y="382"/>
			<point x="51" y="233" type="curve" smooth="yes"/>
			<point x="51" y="63"/>
			<point x="154" y="-13"/>
			<point x="267" y="-13" type="curve" smooth="yes"/>
			<point x="291" y="-13"/>
			<point x="316" y="-8"/>
			<point x="339" y="0" type="curve"/>
			<point x="341" y="8" type="line"/>
			<point x="303" y="-22"/>
			<point x="252" y="-72"/>
			<point x="252" y="-129" type="curve" smooth="yes"/>
			<point x="252" y="-185"/>
			<point x="290" y="-217"/>
		</contour>
	</outline>
	<anchor name="aboveLC" x="260" y="484"/>
	<anchor name="belowLC" x="266" y="-20"/>
</glyph>
<glyph name="hbar" format="2">
	<unicode hex="0127"/>
	<advance width="591"/>
	<outline>
		<contour>
			<point x="132" y="0" type="curve"/>
			<point x="165" y="0" type="line"/>
			<point x="163" y="45"/>
			<point x="162" y="147"/>
			<point x="162" y="209" type="curve" smooth="yes"/>
			<point x="162" y="333" type="line"/>
			<point x="162" y="344" type="line"/>
			<point x="162" y="585" type="line"/>
			<point x="164" y="741" type="line"/>
			<point x="151" y="748" type="line"/>
			<point x="46" y="737" type="line"/>
			<point x="46" y="720" type="line"/>
			<point x="135" y="720" type="line"/>
			<point x="135" y="209" type="line" smooth="yes"/>
			<point x="135" y="147"/>
			<point x="134" y="45"/>
		</contour>
		<contour>
			<point x="46" y="0" type="line"/>
			<point x="243" y="0" type="line"/>
			<point x="243" y="17" type="line"/>
			<point x="151" y="23" type="line"/>
			<point x="144" y="23" type="line"/>
			<point x="46" y="17" type="line"/>
		</contour>
		<contour>
			<point x="359" y="0" type="line"/>
			<point x="556" y="0" type="line"/>
			<point x="556" y="17" type="line"/>
			<point x="465" y="23" type="line"/>
			<point x="457" y="23" type="line"/>
			<point x="359" y="17" type="line"/>
		</contour>
		<contour>
			<point x="46" y="586" type="line"/>
			<point x="358" y="586" type="line"/>
			<point x="358" y="607" type="line"/>
			<point x="46" y="607" type="line"/>
		</contour>
		<contour>
			<point x="445" y="0" type="curve"/>
			<point x="478" y="0" type="line"/>
			<point x="476" y="45"/>
			<point x="475" y="146"/>
			<point x="475" y="209" type="curve" smooth="yes"/>
			<point x="475" y="297" type="line" smooth="yes"/>
			<point x="475" y="421"/>
			<point x="430" y="463"/>
			<point x="356" y="463" type="curve" smooth="yes"/>
			<point x="296" y="463"/>
			<point x="227" y="433"/>
			<point x="151" y="341" type="curve"/>
			<point x="142" y="341" type="line"/>
			<point x="155" y="322" type="line"/>
			<point x="236" y="419"/>
			<point x="308" y="438"/>
			<point x="350" y="438" type="curve" smooth="yes"/>
			<point x="410" y="438"/>
			<point x="448" y="400"/>
			<point x="448" y="298" type="curve" smooth="yes"/>
			<point x="448" y="209" type="line" smooth="yes"/>
			<point x="448" y="146"/>
			<point x="447" y="45"/>
		</contour>
	</outline>
</glyph>
<glyph name="Lslash" format="2">
	<unicode hex="0141"/>
	<advance width="552"/>
	<outline>
		<contour>
			<point x="382" y="444" type="line"/>
			<point x="175" y="326" type="line"/>
			<point x="175" y="304" type="line"/>
			<point x="382" y="423" type="line"/>
		</contour>
		<contour>
			<point x="175" y="326" type="line"/>
			<point x="57" y="258" type="line"/>
			<point x="57" y="237" type="line"/>
			<point x="175" y="303" type="line"/>
		</contour>
		<component base="L" yOffset="1"/>
	</outline>
</glyph>
<glyph name="Eng" format="2">
	<unicode hex="014A"/>
	<advance width="722"/>
	<outline>
		<contour>
			<point x="48" y="0" type="line"/>
			<point x="272" y="0" type="line"/>
			<point x="272" y="17" type="line"/>
			<point x="157" y="24" type="line"/>
			<point x="146" y="24" type="line"/>
			<point x="48" y="17" type="line"/>
		</contour>
		<contour>
			<point x="140" y="0" type="line"/>
			<point x="162" y="0" type="line"/>
			<point x="162" y="655" type="line"/>
			<point x="140" y="673" type="line"/>
		</contour>
		<contour>
			<point x="442" y="-121" type="curve" smooth="yes"/>
			<point x="482" y="-121"/>
			<point x="516" y="-104"/>
			<point x="544" y="-69" type="curve" smooth="yes"/>
			<point x="573" y="-32"/>
			<point x="590" y="21"/>
			<point x="590" y="132" type="curve" smooth="yes"/>
			<point x="591" y="676" type="line"/>
			<point x="569" y="676" type="line"/>
			<point x="569" y="121" type="line" smooth="yes"/>
			<point x="569" y="-16"/>
			<point x="530" y="-79"/>
			<point x="472" y="-101" type="curve"/>
			<point x="472" y="-108" type="line"/>
			<point x="487" y="-108" type="line"/>
			<point x="487" y="-105" type="line"/>
			<point x="477" y="-98" type="line" smooth="yes"/>
			<point x="457" y="-83"/>
			<point x="444" y="-76"/>
			<point x="426" y="-76" type="curve" smooth="yes"/>
			<point x="407" y="-76"/>
			<point x="392" y="-84"/>
			<point x="390" y="-95" type="curve"/>
			<point x="391" y="-113"/>
			<point x="415" y="-121"/>
		</contour>
		<contour>
			<point x="568" y="0" type="line"/>
			<point x="575" y="0" type="line"/>
			<point x="575" y="40" type="line"/>
			<point x="573" y="40" type="line"/>
			<point x="163" y="676" type="line"/>
			<point x="41" y="676" type="line"/>
			<point x="41" y="659" type="line"/>
			<point x="144" y="654" type="line"/>
			<point x="149" y="635" type="line"/>
			<point x="156" y="635" type="line"/>
		</contour>
		<contour>
			<point x="574" y="652" type="line"/>
			<point x="586" y="652" type="line"/>
			<point x="681" y="659" type="line"/>
			<point x="681" y="676" type="line"/>
			<point x="460" y="676" type="line"/>
			<point x="460" y="659" type="line"/>
		</contour>
	</outline>
</glyph>
<glyph name="OE" format="2">
	<unicode hex="0152"/>
	<advance width="892"/>
	<outline>
		<contour>
			<point x="94" y="338" type="curve" smooth="yes"/>
			<point x="94" y="520"/>
			<point x="187" y="669"/>
			<point x="374" y="669" type="curve" smooth="yes"/>
			<point x="413" y="669"/>
			<point x="449" y="665"/>
			<point x="481" y="654" type="curve"/>
			<point x="481" y="675" type="line"/>
			<point x="448" y="684"/>
			<point x="413" y="689"/>
			<point x="374" y="689" type="curve" smooth="yes"/>
			<point x="186" y="689"/>
			<point x="63" y="547"/>
			<point x="63" y="338" type="curve" smooth="yes"/>
			<point x="63" y="130"/>
			<point x="183" y="-13"/>
			<point x="373" y="-13" type="curve" smooth="yes"/>
			<point x="411" y="-13"/>
			<point x="446" y="-10"/>
			<point x="480" y="1" type="curve"/>
			<point x="480" y="22" type="line"/>
			<point x="446" y="11"/>
			<point x="411" y="7"/>
			<point x="373" y="7" type="curve" smooth="yes"/>
			<point x="189" y="7"/>
			<point x="94" y="156"/>
		</contour>
		<contour>
			<point x="466" y="0" type="curve"/>
			<point x="499" y="0" type="line"/>
			<point x="497" y="98"/>
			<point x="497" y="209"/>
			<point x="497" y="336" type="curve" smooth="yes"/>
			<point x="497" y="351" type="line" smooth="yes"/>
			<point x="497" y="469"/>
			<point x="497" y="578"/>
			<point x="499" y="676" type="curve"/>
			<point x="466" y="676" type="line"/>
			<point x="468" y="578"/>
			<point x="468" y="469"/>
			<point x="468" y="365" type="curve" smooth="yes"/>
			<point x="468" y="314" type="line" smooth="yes"/>
			<point x="468" y="209"/>
			<point x="468" y="98"/>
		</contour>
		<contour>
			<point x="697" y="235" type="line"/>
			<point x="714" y="235" type="line"/>
			<point x="714" y="451" type="line"/>
			<point x="697" y="451" type="line"/>
			<point x="686" y="351" type="line"/>
			<point x="686" y="335" type="line"/>
		</contour>
		<contour>
			<point x="482" y="333" type="line"/>
			<point x="697" y="333" type="line"/>
			<point x="697" y="353" type="line"/>
			<point x="482" y="353" type="line"/>
		</contour>
		<contour>
			<point x="813" y="520" type="line"/>
			<point x="834" y="520" type="line"/>
			<point x="823" y="676" type="line"/>
			<point x="482" y="676" type="line"/>
			<point x="482" y="656" type="line"/>
			<point x="795" y="656" type="line"/>
		</contour>
		<contour>
			<point x="827" y="158" type="line"/>
			<point x="808" y="20" type="line"/>
			<point x="482" y="20" type="line"/>
			<point x="482" y="0" type="line"/>
			<point x="837" y="0" type="line"/>
			<point x="847" y="158" type="line"/>
		</contour>
	</outline>
	<anchor name="aboveUC" x="484" y="696"/>
</glyph>
<glyph name="tbar" format="2">
	<unicode hex="0167"/>
	<advance width="323"/>
	<outline>
		<contour>
			<point x="15" y="273" type="line"/>
			<point x="290" y="273" type="line"/>
			<point x="290" y="294" type="line"/>
			<point x="15" y="294" type="line"/>
		</contour>
		<component base="t"/>
	</outline>
</glyph>
<glyph name="florin" format="2">
	<unicode hex="0192"/>
	<advance width="482"/>
	<outline>
		<contour>
			<point x="61" y="-100" type="curve" smooth="yes"/>
			<point x="96" y="-100"/>
			<point x="129" y="-88"/>
			<point x="162" y="-56" type="curve" smooth="yes"/>
			<point x="212" y="-8"/>
			<point x="234" y="74"/>
			<point x="246" y="222" type="curve" smooth="yes"/>
			<point x="257" y="364" type="line" smooth="yes"/>
			<point x="267" y="503"/>
			<point x="283" y="558"/>
			<point x="322" y="607" type="curve" smooth="yes"/>
			<point x="342" y="631"/>
			<point x="374" y="650"/>
			<point x="416" y="652" type="curve"/>
			<point x="414" y="652" type="line"/>
			<point x="377" y="657" type="line"/>
			<point x="406" y="641" type="line" smooth="yes"/>
			<point x="433" y="626"/>
			<point x="454" y="615"/>
			<point x="471" y="615" type="curve" smooth="yes"/>
			<point x="487" y="615"/>
			<point x="493" y="626"/>
			<point x="494" y="638" type="curve"/>
			<point x="475" y="655"/>
			<point x="446" y="667"/>
			<point x="413" y="667" type="curve" smooth="yes"/>
			<point x="378" y="667"/>
			<point x="344" y="655"/>
			<point x="315" y="627" type="curve" smooth="yes"/>
			<point x="260" y="573"/>
			<point x="239" y="501"/>
			<point x="229" y="364" type="curve" smooth="yes"/>
			<point x="218" y="217" type="line" smooth="yes"/>
			<point x="208" y="67"/>
			<point x="189" y="9"/>
			<point x="151" y="-39" type="curve" smooth="yes"/>
			<point x="132" y="-63"/>
			<point x="100" y="-83"/>
			<point x="58" y="-85" type="curve" smooth="yes"/>
			<point x="57" y="-85" type="line"/>
			<point x="94" y="-93" type="line"/>
			<point x="65" y="-76" type="line" smooth="yes"/>
			<point x="39" y="-60"/>
			<point x="18" y="-48"/>
			<point x="2" y="-48" type="curve" smooth="yes"/>
			<point x="-14" y="-48"/>
			<point x="-21" y="-59"/>
			<point x="-21" y="-70" type="curve"/>
			<point x="-2" y="-88"/>
			<point x="27" y="-100"/>
		</contour>
		<contour>
			<point x="102" y="361" type="line"/>
			<point x="400" y="361" type="line"/>
			<point x="400" y="382" type="line"/>
			<point x="102" y="382" type="line"/>
		</contour>
	</outline>
</glyph>
<glyph name="j.sups" format="2">
	<unicode hex="02B2"/>
	<advance width="177"/>
	<outline>
		<contour>
			<point x="6" y="271" type="curve" smooth="yes"/>
			<point x="31" y="271"/>
			<point x="52" y="279"/>
			<point x="71" y="298" type="curve" smooth="yes"/>
			<point x="104" y="330"/>
			<point x="109" y="376"/>
			<point x="109" y="508" type="curve" smooth="yes"/>
			<point x="109" y="739" type="line"/>
			<point x="103" y="743" type="line"/>
			<point x="25" y="728" type="line"/>
			<point x="25" y="715" type="line"/>
			<point x="84" y="713" type="line"/>
			<point x="84" y="477" type="line" smooth="yes"/>
			<point x="84" y="394"/>
			<point x="83" y="342"/>
			<point x="61" y="312" type="curve" smooth="yes"/>
			<point x="50" y="296"/>
			<point x="30" y="284"/>
			<point x="13" y="282" type="curve"/>
			<point x="22" y="276" type="line"/>
			<point x="41" y="283" type="line"/>
			<point x="24" y="294" type="line" smooth="yes"/>
			<point x="9" y="304"/>
			<point x="-2" y="306"/>
			<point x="-13" y="306" type="curve" smooth="yes"/>
			<point x="-27" y="306"/>
			<point x="-35" y="300"/>
			<point x="-38" y="289" type="curve"/>
			<point x="-35" y="279"/>
			<point x="-20" y="271"/>
		</contour>
		<contour>
			<point x="94" y="848" type="curve" smooth="yes"/>
			<point x="107" y="848"/>
			<point x="119" y="858"/>
			<point x="119" y="874" type="curve" smooth="yes"/>
			<point x="119" y="890"/>
			<point x="107" y="899"/>
			<point x="94" y="899" type="curve" smooth="yes"/>
			<point x="80" y="899"/>
			<point x="69" y="890"/>
			<point x="69" y="874" type="curve" smooth="yes"/>
			<point x="69" y="858"/>
			<point x="80" y="848"/>
		</contour>
	</outline>
</glyph>
<glyph name="r.sups" format="2">
	<unicode hex="02B3"/>
	<advance width="261"/>
	<outline>
		<contour>
			<point x="85" y="437" type="line"/>
			<point x="110" y="437" type="line"/>
			<point x="110" y="651" type="line"/>
			<point x="110" y="652" type="line"/>
			<point x="108" y="739" type="line"/>
			<point x="102" y="743" type="line"/>
			<point x="25" y="728" type="line"/>
			<point x="25" y="715" type="line"/>
			<point x="85" y="713" type="line"/>
		</contour>
		<contour>
			<point x="109" y="628" type="line"/>
			<point x="132" y="688"/>
			<point x="164" y="723"/>
			<point x="210" y="732" type="curve"/>
			<point x="180" y="731" type="line"/>
			<point x="196" y="722" type="line" smooth="yes"/>
			<point x="209" y="715"/>
			<point x="220" y="710"/>
			<point x="231" y="710" type="curve" smooth="yes"/>
			<point x="244" y="710"/>
			<point x="253" y="716"/>
			<point x="254" y="728" type="curve"/>
			<point x="250" y="740"/>
			<point x="233" y="748"/>
			<point x="216" y="748" type="curve" smooth="yes"/>
			<point x="170" y="748"/>
			<point x="127" y="710"/>
			<point x="107" y="652" type="curve"/>
			<point x="98" y="652" type="line"/>
		</contour>
		<contour>
			<point x="28" y="437" type="line"/>
			<point x="172" y="437" type="line"/>
			<point x="172" y="450" type="line"/>
			<point x="101" y="457" type="line"/>
			<point x="94" y="457" type="line"/>
			<point x="28" y="450" type="line"/>
		</contour>
	</outline>
</glyph>
<glyph name="y.sups" format="2">
	<unicode hex="02B8"/>
	<advance width="329"/>
	<outline>
		<contour>
			<point x="46" y="271" type="curve" smooth="yes"/>
			<point x="91" y="271"/>
			<point x="129" y="315"/>
			<point x="162" y="401" type="curve" smooth="yes"/>
			<point x="290" y="737" type="line"/>
			<point x="271" y="737" type="line"/>
			<point x="166" y="454" type="line"/>
			<point x="155" y="426" type="line" smooth="yes"/>
			<point x="118" y="326"/>
			<point x="92" y="293"/>
			<point x="46" y="284" type="curve"/>
			<point x="58" y="278" type="line"/>
			<point x="73" y="282" type="line"/>
			<point x="58" y="295" type="line" smooth="yes"/>
			<point x="44" y="305"/>
			<point x="32" y="311"/>
			<point x="21" y="311" type="curve" smooth="yes"/>
			<point x="8" y="311"/>
			<point x="-1" y="305"/>
			<point x="-4" y="294" type="curve"/>
			<point x="1" y="280"/>
			<point x="22" y="271"/>
		</contour>
		<contour>
			<point x="-2" y="723" type="line"/>
			<point x="58" y="717" type="line"/>
			<point x="65" y="717" type="line"/>
			<point x="133" y="723" type="line"/>
			<point x="133" y="737" type="line"/>
			<point x="-2" y="737" type="line"/>
		</contour>
		<contour>
			<point x="210" y="723" type="line"/>
			<point x="271" y="718" type="line"/>
			<point x="278" y="718" type="line"/>
			<point x="329" y="723" type="line"/>
			<point x="329" y="737" type="line"/>
			<point x="210" y="737" type="line"/>
		</contour>
		<contour>
			<point x="163" y="421" type="line"/>
			<point x="176" y="449" type="line"/>
			<point x="177" y="452" type="line"/>
			<point x="66" y="737" type="line"/>
			<point x="38" y="737" type="line"/>
		</contour>
	</outline>
</glyph>
<glyph name="ringhalfrightmod" format="2">
	<unicode hex="02BE"/>
	<advance width="152"/>
	<outline>
		<contour>
			<point x="30" y="570" type="line"/>
			<point x="83" y="570"/>
			<point x="122" y="605"/>
			<point x="122" y="657" type="curve" smooth="yes"/>
			<point x="122" y="710"/>
			<point x="83" y="744"/>
			<point x="30" y="744" type="curve"/>
			<point x="30" y="726" type="line"/>
			<point x="71" y="725"/>
			<point x="98" y="693"/>
			<point x="98" y="657" type="curve" smooth="yes"/>
			<point x="98" y="621"/>
			<point x="71" y="589"/>
			<point x="30" y="589" type="curve"/>
		</contour>
	</outline>
</glyph>
<glyph name="ringhalfleftmod" format="2">
	<unicode hex="02BF"/>
	<advance width="152"/>
	<outline>
		<contour>
			<point x="30" y="657" type="curve" smooth="yes"/>
			<point x="30" y="605"/>
			<point x="69" y="570"/>
			<point x="122" y="570" type="curve"/>
			<point x="122" y="589" type="line"/>
			<point x="81" y="589"/>
			<point x="54" y="621"/>
			<point x="54" y="657" type="curve" smooth="yes"/>
			<point x="54" y="693"/>
			<point x="81" y="725"/>
			<point x="122" y="726" type="curve"/>
			<point x="122" y="744" type="line"/>
			<point x="69" y="744"/>
			<point x="30" y="710"/>
		</contour>
	</outline>
</glyph>
<glyph name="verticallinemod" format="2">
	<unicode hex="02C8"/>
	<advance width="88"/>
	<outline>
		<contour>
			<point x="35" y="567" type="line"/>
			<point x="53" y="567" type="line"/>
			<point x="59" y="755" type="line"/>
			<point x="29" y="755" type="line"/>
		</contour>
	</outline>
</glyph>
<glyph name="s.sups" format="2">
	<unicode hex="02E2"/>
	<advance width="276"/>
	<outline>
		<contour>
			<point x="131" y="428" type="curve" smooth="yes"/>
			<point x="207" y="428"/>
			<point x="242" y="467"/>
			<point x="242" y="512" type="curve" smooth="yes"/>
			<point x="242" y="553"/>
			<point x="219" y="577"/>
			<point x="162" y="598" type="curve" smooth="yes"/>
			<point x="134" y="608" type="line" smooth="yes"/>
			<point x="91" y="624"/>
			<point x="68" y="640"/>
			<point x="68" y="672" type="curve" smooth="yes"/>
			<point x="68" y="706"/>
			<point x="92" y="733"/>
			<point x="143" y="733" type="curve" smooth="yes"/>
			<point x="169" y="733"/>
			<point x="193" y="726"/>
			<point x="217" y="710" type="curve"/>
			<point x="206" y="726" type="line"/>
			<point x="215" y="660" type="line"/>
			<point x="230" y="660" type="line"/>
			<point x="231" y="723" type="line"/>
			<point x="202" y="740"/>
			<point x="180" y="748"/>
			<point x="145" y="748" type="curve" smooth="yes"/>
			<point x="81" y="748"/>
			<point x="44" y="714"/>
			<point x="44" y="666" type="curve" smooth="yes"/>
			<point x="44" y="623"/>
			<point x="76" y="601"/>
			<point x="121" y="584" type="curve" smooth="yes"/>
			<point x="150" y="574" type="line" smooth="yes"/>
			<point x="201" y="556"/>
			<point x="218" y="538"/>
			<point x="218" y="507" type="curve" smooth="yes"/>
			<point x="218" y="470"/>
			<point x="190" y="443"/>
			<point x="131" y="443" type="curve" smooth="yes"/>
			<point x="95" y="443"/>
			<point x="73" y="450"/>
			<point x="50" y="464" type="curve"/>
			<point x="63" y="447" type="line"/>
			<point x="52" y="519" type="line"/>
			<point x="37" y="519" type="line"/>
			<point x="37" y="449" type="line"/>
			<point x="68" y="435"/>
			<point x="95" y="428"/>
		</contour>
	</outline>
</glyph>
<glyph name="gravecmb" format="2">
	<unicode hex="0300"/>
	<outline>
		<contour>
			<point x="46" y="564" type="line"/>
			<point x="10" y="612"/>
			<point x="-27" y="662"/>
			<point x="-55" y="698" type="curve" smooth="yes"/>
			<point x="-72" y="720"/>
			<point x="-78" y="729"/>
			<point x="-88" y="729" type="curve" smooth="yes"/>
			<point x="-97" y="729"/>
			<point x="-104" y="723"/>
			<point x="-104" y="713" type="curve" smooth="yes"/>
			<point x="-104" y="703"/>
			<point x="-95" y="694"/>
			<point x="-75" y="674" type="curve" smooth="yes"/>
			<point x="-50" y="647"/>
			<point x="-15" y="609"/>
			<point x="36" y="555" type="curve"/>
		</contour>
	</outline>
	<anchor name="_aboveLC" x="0" y="484"/>
	<anchor name="aboveLC" x="0" y="729"/>
</glyph>
<glyph name="acutecmb" format="2">
	<unicode hex="0301"/>
	<outline>
		<contour>
			<point x="-45" y="564" type="curve"/>
			<point x="-35" y="555" type="line"/>
			<point x="17" y="609"/>
			<point x="52" y="647"/>
			<point x="77" y="674" type="curve" smooth="yes"/>
			<point x="97" y="694"/>
			<point x="106" y="703"/>
			<point x="106" y="713" type="curve" smooth="yes"/>
			<point x="106" y="723"/>
			<point x="98" y="729"/>
			<point x="89" y="729" type="curve" smooth="yes"/>
			<point x="80" y="729"/>
			<point x="74" y="720"/>
			<point x="57" y="698" type="curve" smooth="yes"/>
			<point x="29" y="662"/>
			<point x="-8" y="612"/>
		</contour>
	</outline>
	<anchor name="_aboveLC" x="0" y="484"/>
	<anchor name="aboveLC" x="0" y="729"/>
</glyph>
<glyph name="brevecmb" format="2">
	<unicode hex="0306"/>
	<outline>
		<contour>
			<point x="-140" y="709" type="line"/>
			<point x="-128" y="628"/>
			<point x="-74" y="571"/>
			<point x="0" y="571" type="curve" smooth="yes"/>
			<point x="74" y="571"/>
			<point x="128" y="628"/>
			<point x="140" y="709" type="curve"/>
			<point x="127" y="713" type="line"/>
			<point x="107" y="644"/>
			<point x="69" y="596"/>
			<point x="0" y="596" type="curve" smooth="yes"/>
			<point x="-69" y="596"/>
			<point x="-107" y="644"/>
			<point x="-127" y="713" type="curve"/>
		</contour>
	</outline>
	<anchor name="_aboveLC" x="0" y="484"/>
	<anchor name="aboveLC" x="-1" y="713"/>
</glyph>
<glyph name="dotaccentcmb" format="2">
	<unicode hex="0307"/>
	<outline>
		<contour>
			<point x="0" y="624" type="curve" smooth="yes"/>
			<point x="16" y="624"/>
			<point x="31" y="636"/>
			<point x="31" y="655" type="curve" smooth="yes"/>
			<point x="31" y="673"/>
			<point x="16" y="686"/>
			<point x="0" y="686" type="curve" smooth="yes"/>
			<point x="-16" y="686"/>
			<point x="-31" y="673"/>
			<point x="-31" y="655" type="curve" smooth="yes"/>
			<point x="-31" y="636"/>
			<point x="-16" y="624"/>
		</contour>
	</outline>
	<anchor name="_aboveLC" x="0" y="484"/>
	<anchor name="aboveLC" x="0" y="686"/>
</glyph>
<glyph name="dieresiscmb" format="2">
	<unicode hex="0308"/>
	<outline>
		<contour>
			<point x="-90" y="638" type="curve" smooth="yes"/>
			<point x="-75" y="638"/>
			<point x="-62" y="648"/>
			<point x="-62" y="666" type="curve" smooth="yes"/>
			<point x="-62" y="684"/>
			<point x="-75" y="695"/>
			<point x="-90" y="695" type="curve" smooth="yes"/>
			<point x="-105" y="695"/>
			<point x="-118" y="684"/>
			<point x="-118" y="666" type="curve" smooth="yes"/>
			<point x="-118" y="648"/>
			<point x="-105" y="638"/>
		</contour>
		<contour>
			<point x="90" y="638" type="curve" smooth="yes"/>
			<point x="105" y="638"/>
			<point x="118" y="648"/>
			<point x="118" y="666" type="curve" smooth="yes"/>
			<point x="118" y="684"/>
			<point x="105" y="695"/>
			<point x="90" y="695" type="curve" smooth="yes"/>
			<point x="75" y="695"/>
			<point x="62" y="684"/>
			<point x="62" y="666" type="curve" smooth="yes"/>
			<point x="62" y="648"/>
			<point x="75" y="638"/>
		</contour>
	</outline>
	<anchor name="_aboveLC" x="0" y="484"/>
	<anchor name="aboveLC" x="0" y="695"/>
</glyph>
<glyph name="hoicmb" format="2">
	<unicode hex="0309"/>
	<outline>
		<contour>
			<point x="-17" y="552" type="line"/>
			<point x="35" y="559"/>
			<point x="72" y="588"/>
			<point x="72" y="631" type="curve" smooth="yes"/>
			<point x="72" y="681"/>
			<point x="40" y="711"/>
			<point x="-33" y="722" type="curve"/>
			<point x="-37" y="699" type="line"/>
			<point x="26" y="688"/>
			<point x="48" y="669"/>
			<point x="48" y="628" type="curve" smooth="yes"/>
			<point x="48" y="595"/>
			<point x="24" y="576"/>
			<point x="-21" y="565" type="curve"/>
		</contour>
	</outline>
	<anchor name="_aboveLC" x="0" y="484"/>
	<anchor name="aboveLC" x="0" y="722"/>
</glyph>
<glyph name="ringcmb" format="2">
	<unicode hex="030A"/>
	<outline>
		<contour>
			<point x="0" y="578" type="curve" smooth="yes"/>
			<point x="-37" y="578"/>
			<point x="-64" y="609"/>
			<point x="-64" y="645" type="curve" smooth="yes"/>
			<point x="-64" y="681"/>
			<point x="-37" y="712"/>
			<point x="0" y="712" type="curve" smooth="yes"/>
			<point x="37" y="712"/>
			<point x="64" y="681"/>
			<point x="64" y="645" type="curve" smooth="yes"/>
			<point x="64" y="609"/>
			<point x="37" y="578"/>
		</contour>
		<contour>
			<point x="0" y="560" type="curve" smooth="yes"/>
			<point x="45" y="560"/>
			<point x="84" y="595"/>
			<point x="84" y="645" type="curve" smooth="yes"/>
			<point x="84" y="694"/>
			<point x="45" y="729"/>
			<point x="0" y="729" type="curve" smooth="yes"/>
			<point x="-45" y="729"/>
			<point x="-84" y="694"/>
			<point x="-84" y="645" type="curve" smooth="yes"/>
			<point x="-84" y="595"/>
			<point x="-45" y="560"/>
		</contour>
	</outline>
	<anchor name="_aboveLC" x="0" y="484"/>
	<anchor name="aboveLC" x="0" y="729"/>
</glyph>
<glyph name="hungarumlautcmb" format="2">
	<unicode hex="030B"/>
	<outline>
		<contour>
			<point x="-92" y="559" type="line"/>
			<point x="-79" y="553" type="line"/>
			<point x="-4" y="689" type="line" smooth="yes"/>
			<point x="3" y="702"/>
			<point x="7" y="710"/>
			<point x="7" y="718" type="curve" smooth="yes"/>
			<point x="7" y="726"/>
			<point x="0" y="733"/>
			<point x="-8" y="733" type="curve" smooth="yes"/>
			<point x="-20" y="733"/>
			<point x="-26" y="722"/>
			<point x="-34" y="701" type="curve" smooth="yes"/>
		</contour>
		<contour>
			<point x="38" y="559" type="line"/>
			<point x="51" y="553" type="line"/>
			<point x="126" y="689" type="line" smooth="yes"/>
			<point x="132" y="702"/>
			<point x="136" y="710"/>
			<point x="136" y="718" type="curve" smooth="yes"/>
			<point x="136" y="726"/>
			<point x="129" y="733"/>
			<point x="121" y="733" type="curve" smooth="yes"/>
			<point x="109" y="733"/>
			<point x="103" y="722"/>
			<point x="95" y="701" type="curve" smooth="yes"/>
		</contour>
	</outline>
	<anchor name="_aboveLC" x="0" y="484"/>
	<anchor name="aboveLC" x="0" y="733"/>
</glyph>
<glyph name="horncmb" format="2">
	<unicode hex="031B"/>
	<outline>
		<contour>
			<point x="0" y="464" type="line"/>
			<point x="96" y="475"/>
			<point x="123" y="538"/>
			<point x="123" y="590" type="curve" smooth="yes"/>
			<point x="123" y="620"/>
			<point x="115" y="641"/>
			<point x="108" y="652" type="curve"/>
			<point x="105" y="653"/>
			<point x="102" y="654"/>
			<point x="97" y="654" type="curve" smooth="yes"/>
			<point x="87" y="654"/>
			<point x="79" y="648"/>
			<point x="79" y="637" type="curve" smooth="yes"/>
			<point x="79" y="622"/>
			<point x="96" y="606"/>
			<point x="96" y="570" type="curve" smooth="yes"/>
			<point x="96" y="531"/>
			<point x="73" y="489"/>
			<point x="-2" y="480" type="curve"/>
		</contour>
	</outline>
	<anchor name="_hornLC" x="0" y="464"/>
</glyph>
<glyph name="ogonekcmb" format="2">
	<unicode hex="0328"/>
	<outline>
		<contour>
			<point x="-80" y="-134" type="curve" smooth="yes"/>
			<point x="-80" y="-192"/>
			<point x="-42" y="-223"/>
			<point x="6" y="-223" type="curve" smooth="yes"/>
			<point x="43" y="-223"/>
			<point x="72" y="-207"/>
			<point x="89" y="-183" type="curve"/>
			<point x="81" y="-174" type="line"/>
			<point x="57" y="-194"/>
			<point x="38" y="-201"/>
			<point x="13" y="-201" type="curve" smooth="yes"/>
			<point x="-27" y="-201"/>
			<point x="-54" y="-174"/>
			<point x="-54" y="-125" type="curve" smooth="yes"/>
			<point x="-54" y="-79"/>
			<point x="-26" y="-29"/>
			<point x="11" y="4" type="curve"/>
			<point x="-6" y="6" type="line"/>
			<point x="-6" y="3" type="line"/>
			<point x="-43" y="-29"/>
			<point x="-80" y="-78"/>
		</contour>
	</outline>
	<anchor name="_ogonek" x="0" y="0"/>
</glyph>
<glyph name="Pi" format="2">
	<unicode hex="03A0"/>
	<advance width="754"/>
	<outline>
		<contour>
			<point x="158" y="0" type="curve"/>
			<point x="191" y="0" type="line"/>
			<point x="189" y="102"/>
			<point x="189" y="193"/>
			<point x="189" y="332" type="curve" smooth="yes"/>
			<point x="189" y="367" type="line" smooth="yes"/>
			<point x="189" y="471"/>
			<point x="189" y="574"/>
			<point x="191" y="676" type="curve"/>
			<point x="158" y="676" type="line"/>
			<point x="160" y="574"/>
			<point x="160" y="471"/>
			<point x="160" y="367" type="curve" smooth="yes"/>
			<point x="160" y="332" type="line" smooth="yes"/>
			<point x="160" y="193"/>
			<point x="160" y="102"/>
		</contour>
		<contour>
			<point x="562" y="0" type="curve"/>
			<point x="595" y="0" type="line"/>
			<point x="593" y="102"/>
			<point x="593" y="193"/>
			<point x="593" y="332" type="curve" smooth="yes"/>
			<point x="593" y="367" type="line" smooth="yes"/>
			<point x="593" y="471"/>
			<point x="593" y="574"/>
			<point x="595" y="676" type="curve"/>
			<point x="562" y="676" type="line"/>
			<point x="564" y="574"/>
			<point x="564" y="471"/>
			<point x="564" y="367" type="curve" smooth="yes"/>
			<point x="564" y="332" type="line" smooth="yes"/>
			<point x="564" y="193"/>
			<point x="564" y="102"/>
		</contour>
		<contour>
			<point x="55" y="0" type="line"/>
			<point x="294" y="0" type="line"/>
			<point x="294" y="17" type="line"/>
			<point x="181" y="24" type="line"/>
			<point x="167" y="24" type="line"/>
			<point x="55" y="17" type="line"/>
		</contour>
		<contour>
			<point x="460" y="0" type="line"/>
			<point x="699" y="0" type="line"/>
			<point x="699" y="17" type="line"/>
			<point x="587" y="24" type="line"/>
			<point x="573" y="24" type="line"/>
			<point x="460" y="17" type="line"/>
		</contour>
		<contour>
			<point x="55" y="659" type="line"/>
			<point x="167" y="652" type="line"/>
			<point x="176" y="652" type="line"/>
			<point x="176" y="676" type="line"/>
			<point x="55" y="676" type="line"/>
		</contour>
		<contour>
			<point x="578" y="652" type="line"/>
			<point x="587" y="652" type="line"/>
			<point x="699" y="659" type="line"/>
			<point x="699" y="676" type="line"/>
			<point x="577" y="676" type="line"/>
		</contour>
		<contour>
			<point x="174" y="656" type="line"/>
			<point x="580" y="656" type="line"/>
			<point x="580" y="676" type="line"/>
			<point x="174" y="676" type="line"/>
		</contour>
	</outline>
</glyph>
<glyph name="Omega" format="2">
	<unicode hex="03A9"/>
	<unicode hex="2126"/>
	<advance width="675"/>
	<outline>
		<contour>
			<point x="61" y="0" type="line"/>
			<point x="277" y="0" type="line"/>
			<point x="284" y="103" type="line"/>
			<point x="151" y="160"/>
			<point x="86" y="244"/>
			<point x="86" y="385" type="curve" smooth="yes"/>
			<point x="86" y="579"/>
			<point x="207" y="669"/>
			<point x="337" y="669" type="curve" smooth="yes"/>
			<point x="470" y="669"/>
			<point x="589" y="574"/>
			<point x="589" y="385" type="curve" smooth="yes"/>
			<point x="589" y="244"/>
			<point x="523" y="160"/>
			<point x="391" y="103" type="curve"/>
			<point x="397" y="0" type="line"/>
			<point x="613" y="0" type="line"/>
			<point x="630" y="147" type="line"/>
			<point x="610" y="147" type="line"/>
			<point x="585" y="12" type="line"/>
			<point x="599" y="26" type="line"/>
			<point x="403" y="26" type="line"/>
			<point x="413" y="16" type="line"/>
			<point x="409" y="90" type="line"/>
			<point x="539" y="146"/>
			<point x="620" y="243"/>
			<point x="620" y="384" type="curve" smooth="yes"/>
			<point x="620" y="606"/>
			<point x="467" y="689"/>
			<point x="337" y="689" type="curve" smooth="yes"/>
			<point x="207" y="689"/>
			<point x="55" y="606"/>
			<point x="55" y="384" type="curve" smooth="yes"/>
			<point x="55" y="235"/>
			<point x="141" y="138"/>
			<point x="265" y="90" type="curve"/>
			<point x="261" y="16" type="line"/>
			<point x="272" y="26" type="line"/>
			<point x="72" y="26" type="line"/>
			<point x="90" y="14" type="line"/>
			<point x="65" y="147" type="line"/>
			<point x="44" y="147" type="line"/>
		</contour>
	</outline>
</glyph>
<glyph name="alpha" format="2">
	<unicode hex="03B1"/>
	<advance width="543"/>
	<outline>
		<contour>
			<point x="239" y="-13" type="curve" smooth="yes"/>
			<point x="297" y="-13"/>
			<point x="371" y="23"/>
			<point x="401" y="115" type="curve"/>
			<point x="397" y="115" type="line"/>
			<point x="394" y="26"/>
			<point x="413" y="-13"/>
			<point x="462" y="-13" type="curve" smooth="yes"/>
			<point x="489" y="-13"/>
			<point x="507" y="1"/>
			<point x="519" y="18" type="curve"/>
			<point x="511" y="30" type="line"/>
			<point x="497" y="20"/>
			<point x="486" y="14"/>
			<point x="467" y="14" type="curve" smooth="yes"/>
			<point x="437" y="14"/>
			<point x="419" y="33"/>
			<point x="419" y="99" type="curve" smooth="yes"/>
			<point x="419" y="161"/>
			<point x="436" y="322"/>
			<point x="453" y="467" type="curve"/>
			<point x="447" y="471" type="line"/>
			<point x="427" y="462" type="line"/>
			<point x="417" y="354" type="line"/>
			<point x="403" y="187" type="line"/>
			<point x="392" y="57"/>
			<point x="304" y="9"/>
			<point x="240" y="9" type="curve" smooth="yes"/>
			<point x="137" y="9"/>
			<point x="81" y="94"/>
			<point x="81" y="222" type="curve" smooth="yes"/>
			<point x="81" y="389"/>
			<point x="162" y="455"/>
			<point x="254" y="455" type="curve" smooth="yes"/>
			<point x="330" y="455"/>
			<point x="398" y="402"/>
			<point x="420" y="272" type="curve"/>
			<point x="432" y="307" type="line"/>
			<point x="431" y="308" type="line"/>
			<point x="404" y="421"/>
			<point x="339" y="477"/>
			<point x="252" y="477" type="curve" smooth="yes"/>
			<point x="150" y="477"/>
			<point x="51" y="399"/>
			<point x="51" y="222" type="curve" smooth="yes"/>
			<point x="51" y="73"/>
			<point x="129" y="-13"/>
		</contour>
	</outline>
	<anchor name="aboveLC" x="271" y="484"/>
	<anchor name="belowLC" x="251" y="-20"/>
</glyph>
<glyph name="beta" format="2">
	<unicode hex="03B2"/>
	<advance width="542"/>
	<outline>
		<contour>
			<point x="104" y="-188" type="line"/>
			<point x="113" y="-194" type="line"/>
			<point x="135" y="-186" type="line"/>
			<point x="133" y="59" type="line"/>
			<point x="135" y="64" type="line"/>
			<point x="135" y="498" type="line" smooth="yes"/>
			<point x="135" y="655"/>
			<point x="194" y="729"/>
			<point x="290" y="729" type="curve" smooth="yes"/>
			<point x="367" y="729"/>
			<point x="424" y="683"/>
			<point x="424" y="587" type="curve" smooth="yes"/>
			<point x="424" y="489"/>
			<point x="380" y="429"/>
			<point x="230" y="391" type="curve"/>
			<point x="233" y="372" type="line"/>
			<point x="407" y="387"/>
			<point x="462" y="301"/>
			<point x="462" y="188" type="curve" smooth="yes"/>
			<point x="462" y="78"/>
			<point x="390" y="4"/>
			<point x="292" y="4" type="curve" smooth="yes"/>
			<point x="226" y="4"/>
			<point x="171" y="29"/>
			<point x="120" y="85" type="curve"/>
			<point x="116" y="74" type="line"/>
			<point x="117" y="72" type="line"/>
			<point x="156" y="11"/>
			<point x="225" y="-20"/>
			<point x="293" y="-20" type="curve" smooth="yes"/>
			<point x="400" y="-20"/>
			<point x="491" y="61"/>
			<point x="491" y="190" type="curve" smooth="yes"/>
			<point x="491" y="309"/>
			<point x="414" y="398"/>
			<point x="241" y="390" type="curve"/>
			<point x="241" y="383" type="line"/>
			<point x="379" y="404"/>
			<point x="453" y="486"/>
			<point x="453" y="584" type="curve" smooth="yes"/>
			<point x="453" y="690"/>
			<point x="392" y="748"/>
			<point x="291" y="748" type="curve" smooth="yes"/>
			<point x="178" y="748"/>
			<point x="109" y="662"/>
			<point x="109" y="495" type="curve" smooth="yes"/>
			<point x="108" y="17" type="line"/>
		</contour>
	</outline>
</glyph>
<glyph name="delta" format="2">
	<unicode hex="03B4"/>
	<advance width="497"/>
	<outline>
		<contour>
			<point x="241" y="-13" type="curve" smooth="yes"/>
			<point x="354" y="-13"/>
			<point x="446" y="70"/>
			<point x="446" y="209" type="curve" smooth="yes"/>
			<point x="446" y="315"/>
			<point x="394" y="382"/>
			<point x="274" y="456" type="curve" smooth="yes"/>
			<point x="150" y="531"/>
			<point x="130" y="568"/>
			<point x="130" y="619" type="curve" smooth="yes"/>
			<point x="130" y="686"/>
			<point x="181" y="731"/>
			<point x="268" y="731" type="curve" smooth="yes"/>
			<point x="303" y="731"/>
			<point x="341" y="723"/>
			<point x="372" y="703" type="curve"/>
			<point x="366" y="717" type="line"/>
			<point x="330" y="727" type="line"/>
			<point x="377" y="681" type="line" smooth="yes"/>
			<point x="388" y="670"/>
			<point x="396" y="663"/>
			<point x="409" y="663" type="curve" smooth="yes"/>
			<point x="423" y="663"/>
			<point x="432" y="674"/>
			<point x="429" y="691" type="curve"/>
			<point x="387" y="730"/>
			<point x="326" y="748"/>
			<point x="267" y="748" type="curve" smooth="yes"/>
			<point x="169" y="748"/>
			<point x="105" y="696"/>
			<point x="105" y="618" type="curve" smooth="yes"/>
			<point x="105" y="555"/>
			<point x="133" y="512"/>
			<point x="261" y="438" type="curve" smooth="yes"/>
			<point x="352" y="384"/>
			<point x="418" y="324"/>
			<point x="418" y="205" type="curve" smooth="yes"/>
			<point x="418" y="93"/>
			<point x="352" y="5"/>
			<point x="243" y="5" type="curve" smooth="yes"/>
			<point x="142" y="5"/>
			<point x="73" y="80"/>
			<point x="73" y="194" type="curve" smooth="yes"/>
			<point x="73" y="301"/>
			<point x="120" y="397"/>
			<point x="283" y="438" type="curve"/>
			<point x="266" y="453" type="line"/>
			<point x="266" y="450" type="line"/>
			<point x="141" y="421"/>
			<point x="44" y="341"/>
			<point x="44" y="194" type="curve" smooth="yes"/>
			<point x="44" y="71"/>
			<point x="124" y="-13"/>
		</contour>
	</outline>
</glyph>
<glyph name="theta" format="2">
	<unicode hex="03B8"/>
	<advance width="494"/>
	<outline>
		<contour>
			<point x="242" y="-13" type="curve" smooth="yes"/>
			<point x="126" y="-13"/>
			<point x="55" y="100"/>
			<point x="55" y="365" type="curve" smooth="yes"/>
			<point x="55" y="630"/>
			<point x="139" y="748"/>
			<point x="251" y="748" type="curve" smooth="yes"/>
			<point x="367" y="748"/>
			<point x="440" y="633"/>
			<point x="440" y="370" type="curve" smooth="yes"/>
			<point x="440" y="105"/>
			<point x="354" y="-13"/>
		</contour>
		<contour>
			<point x="245" y="5" type="curve" smooth="yes"/>
			<point x="343" y="5"/>
			<point x="412" y="115"/>
			<point x="412" y="362" type="curve" smooth="yes"/>
			<point x="412" y="612"/>
			<point x="348" y="730"/>
			<point x="248" y="730" type="curve" smooth="yes"/>
			<point x="152" y="730"/>
			<point x="82" y="619"/>
			<point x="82" y="381" type="curve" smooth="yes"/>
			<point x="82" y="118"/>
			<point x="149" y="5"/>
		</contour>
		<contour>
			<point x="60" y="364" type="line"/>
			<point x="60" y="389" type="line"/>
			<point x="434" y="389" type="line"/>
			<point x="434" y="364" type="line"/>
		</contour>
	</outline>
</glyph>
<glyph name="lambda" format="2">
	<unicode hex="03BB"/>
	<advance width="493"/>
	<outline>
		<contour>
			<point x="24" y="-1" type="line"/>
			<point x="50" y="-6" type="line"/>
			<point x="253" y="468" type="line"/>
			<point x="259" y="468" type="line"/>
			<point x="243" y="492" type="line"/>
			<point x="22" y="5" type="line"/>
		</contour>
		<contour>
			<point x="445" y="-13" type="curve" smooth="yes"/>
			<point x="465" y="-13"/>
			<point x="491" y="2"/>
			<point x="504" y="17" type="curve"/>
			<point x="499" y="28" type="line"/>
			<point x="484" y="20"/>
			<point x="463" y="17"/>
			<point x="452" y="17" type="curve" smooth="yes"/>
			<point x="423" y="17"/>
			<point x="411" y="35"/>
			<point x="377" y="133" type="curve" smooth="yes"/>
			<point x="211" y="627" type="line" smooth="yes"/>
			<point x="183" y="713"/>
			<point x="151" y="748"/>
			<point x="102" y="748" type="curve" smooth="yes"/>
			<point x="72" y="748"/>
			<point x="44" y="736"/>
			<point x="16" y="706" type="curve"/>
			<point x="24" y="692" type="line"/>
			<point x="46" y="707"/>
			<point x="68" y="717"/>
			<point x="93" y="717" type="curve" smooth="yes"/>
			<point x="141" y="717"/>
			<point x="168" y="693"/>
			<point x="195" y="613" type="curve" smooth="yes"/>
			<point x="243" y="475" type="line"/>
			<point x="358" y="120" type="line" smooth="yes"/>
			<point x="395" y="6"/>
			<point x="415" y="-13"/>
		</contour>
	</outline>
</glyph>
<glyph name="omicron" format="2">
	<unicode hex="03BF"/>
	<advance width="504"/>
	<outline>
		<contour>
			<point x="251" y="-13" type="curve" smooth="yes"/>
			<point x="344" y="-13"/>
			<point x="454" y="63"/>
			<point x="454" y="236" type="curve" smooth="yes"/>
			<point x="454" y="393"/>
			<point x="369" y="477"/>
			<point x="254" y="477" type="curve" smooth="yes"/>
			<point x="162" y="477"/>
			<point x="51" y="397"/>
			<point x="51" y="233" type="curve" smooth="yes"/>
			<point x="51" y="59"/>
			<point x="149" y="-13"/>
		</contour>
		<contour>
			<point x="253" y="7" type="curve" smooth="yes"/>
			<point x="163" y="7"/>
			<point x="80" y="79"/>
			<point x="80" y="243" type="curve" smooth="yes"/>
			<point x="80" y="369"/>
			<point x="154" y="457"/>
			<point x="255" y="457" type="curve" smooth="yes"/>
			<point x="363" y="457"/>
			<point x="425" y="363"/>
			<point x="425" y="221" type="curve" smooth="yes"/>
			<point x="425" y="102"/>
			<point x="361" y="7"/>
		</contour>
	</outline>
	<anchor name="aboveLC" x="257" y="484"/>
</glyph>
<glyph name="sigma" format="2">
	<unicode hex="03C3"/>
	<advance width="544"/>
	<outline>
		<contour>
			<point x="250" y="-13" type="curve" smooth="yes"/>
			<point x="350" y="-13"/>
			<point x="455" y="65"/>
			<point x="455" y="228" type="curve" smooth="yes"/>
			<point x="455" y="345"/>
			<point x="378" y="446"/>
			<point x="265" y="454" type="curve"/>
			<point x="254" y="448" type="line"/>
			<point x="359" y="435"/>
			<point x="428" y="349"/>
			<point x="428" y="221" type="curve" smooth="yes"/>
			<point x="428" y="92"/>
			<point x="355" y="7"/>
			<point x="257" y="7" type="curve" smooth="yes"/>
			<point x="157" y="7"/>
			<point x="80" y="90"/>
			<point x="80" y="227" type="curve" smooth="yes"/>
			<point x="80" y="355"/>
			<point x="147" y="446"/>
			<point x="290" y="446" type="curve"/>
			<point x="311" y="444" type="line"/>
			<point x="527" y="436" type="line"/>
			<point x="526" y="465" type="line"/>
			<point x="300" y="465" type="line" smooth="yes"/>
			<point x="129" y="465"/>
			<point x="51" y="363"/>
			<point x="51" y="220" type="curve" smooth="yes"/>
			<point x="51" y="73"/>
			<point x="139" y="-13"/>
		</contour>
	</outline>
</glyph>
<glyph name="tau" format="2">
	<unicode hex="03C4"/>
	<advance width="430"/>
	<outline>
		<contour>
			<point x="16" y="430" type="line"/>
			<point x="209" y="441" type="line"/>
			<point x="412" y="438" type="line"/>
			<point x="410" y="464" type="line"/>
			<point x="234" y="464" type="line" smooth="yes"/>
			<point x="143" y="464"/>
			<point x="79" y="457"/>
			<point x="15" y="445" type="curve"/>
		</contour>
		<contour>
			<point x="271" y="-13" type="curve" smooth="yes"/>
			<point x="300" y="-13"/>
			<point x="323" y="2"/>
			<point x="335" y="20" type="curve"/>
			<point x="329" y="30" type="line"/>
			<point x="314" y="20"/>
			<point x="301" y="13"/>
			<point x="275" y="13" type="curve" smooth="yes"/>
			<point x="245" y="13"/>
			<point x="221" y="27"/>
			<point x="221" y="93" type="curve" smooth="yes"/>
			<point x="220" y="453" type="line"/>
			<point x="200" y="453" type="line"/>
			<point x="196" y="335"/>
			<point x="193" y="216"/>
			<point x="193" y="98" type="curve" smooth="yes"/>
			<point x="193" y="15"/>
			<point x="220" y="-13"/>
		</contour>
	</outline>
</glyph>
<glyph name="upsilon" format="2">
	<unicode hex="03C5"/>
	<advance width="518"/>
	<outline>
		<contour>
			<point x="276" y="-13" type="curve" smooth="yes"/>
			<point x="388" y="-13"/>
			<point x="456" y="67"/>
			<point x="456" y="247" type="curve" smooth="yes"/>
			<point x="456" y="330"/>
			<point x="437" y="409"/>
			<point x="421" y="469" type="curve"/>
			<point x="417" y="474"/>
			<point x="410" y="477"/>
			<point x="402" y="477" type="curve" smooth="yes"/>
			<point x="391" y="477"/>
			<point x="385" y="466"/>
			<point x="385" y="454" type="curve" smooth="yes"/>
			<point x="385" y="429"/>
			<point x="402" y="397"/>
			<point x="443" y="312" type="curve"/>
			<point x="436" y="361" type="line"/>
			<point x="426" y="366" type="line"/>
			<point x="433" y="317"/>
			<point x="436" y="285"/>
			<point x="436" y="244" type="curve" smooth="yes"/>
			<point x="436" y="77"/>
			<point x="376" y="8"/>
			<point x="278" y="8" type="curve" smooth="yes"/>
			<point x="182" y="8"/>
			<point x="129" y="58"/>
			<point x="129" y="171" type="curve" smooth="yes"/>
			<point x="129" y="258"/>
			<point x="139" y="313"/>
			<point x="139" y="379" type="curve" smooth="yes"/>
			<point x="139" y="444"/>
			<point x="121" y="474"/>
			<point x="77" y="474" type="curve" smooth="yes"/>
			<point x="54" y="474"/>
			<point x="36" y="464"/>
			<point x="30" y="457" type="curve"/>
			<point x="35" y="446" type="line"/>
			<point x="42" y="449"/>
			<point x="52" y="451"/>
			<point x="62" y="451" type="curve" smooth="yes"/>
			<point x="99" y="451"/>
			<point x="114" y="433"/>
			<point x="114" y="374" type="curve" smooth="yes"/>
			<point x="114" y="322"/>
			<point x="102" y="250"/>
			<point x="102" y="166" type="curve" smooth="yes"/>
			<point x="102" y="37"/>
			<point x="178" y="-13"/>
		</contour>
	</outline>
	<anchor name="aboveLC" x="256" y="484"/>
</glyph>
<glyph name="psi" format="2">
	<unicode hex="03C8"/>
	<advance width="678"/>
	<outline>
		<contour>
			<point x="353" y="-202" type="line"/>
			<point x="375" y="-194" type="line"/>
			<point x="373" y="-5" type="line"/>
			<point x="370" y="619" type="line"/>
			<point x="354" y="619" type="line"/>
			<point x="349" y="-9" type="line"/>
			<point x="344" y="-197" type="line"/>
		</contour>
		<contour>
			<point x="353" y="-13" type="curve"/>
			<point x="354" y="8" type="line"/>
			<point x="204" y="8"/>
			<point x="132" y="61"/>
			<point x="132" y="179" type="curve" smooth="yes"/>
			<point x="132" y="261"/>
			<point x="139" y="313"/>
			<point x="139" y="378" type="curve" smooth="yes"/>
			<point x="139" y="444"/>
			<point x="121" y="474"/>
			<point x="77" y="474" type="curve" smooth="yes"/>
			<point x="54" y="474"/>
			<point x="36" y="463"/>
			<point x="30" y="456" type="curve"/>
			<point x="35" y="446" type="line"/>
			<point x="43" y="448"/>
			<point x="53" y="450"/>
			<point x="64" y="450" type="curve" smooth="yes"/>
			<point x="101" y="450"/>
			<point x="114" y="433"/>
			<point x="114" y="374" type="curve" smooth="yes"/>
			<point x="114" y="321"/>
			<point x="106" y="253"/>
			<point x="106" y="174" type="curve" smooth="yes"/>
			<point x="106" y="41"/>
			<point x="201" y="-13"/>
		</contour>
		<contour>
			<point x="363" y="-13" type="line"/>
			<point x="529" y="-13"/>
			<point x="615" y="78"/>
			<point x="615" y="247" type="curve" smooth="yes"/>
			<point x="615" y="330"/>
			<point x="607" y="407"/>
			<point x="596" y="468" type="curve"/>
			<point x="593" y="474"/>
			<point x="587" y="477"/>
			<point x="579" y="477" type="curve" smooth="yes"/>
			<point x="566" y="477"/>
			<point x="558" y="467"/>
			<point x="558" y="452" type="curve" smooth="yes"/>
			<point x="558" y="426"/>
			<point x="570" y="398"/>
			<point x="603" y="310" type="curve"/>
			<point x="598" y="363" type="line"/>
			<point x="591" y="364" type="line"/>
			<point x="596" y="316"/>
			<point x="597" y="285"/>
			<point x="597" y="249" type="curve" smooth="yes"/>
			<point x="597" y="86"/>
			<point x="516" y="8"/>
			<point x="364" y="8" type="curve"/>
		</contour>
	</outline>
</glyph>
<glyph name="iotadieresis" format="2">
	<unicode hex="03CA"/>
	<advance width="246"/>
	<outline>
		<contour>
			<point x="60" y="638" type="curve" smooth="yes"/>
			<point x="75" y="638"/>
			<point x="88" y="648"/>
			<point x="88" y="666" type="curve" smooth="yes"/>
			<point x="88" y="684"/>
			<point x="75" y="695"/>
			<point x="60" y="695" type="curve" smooth="yes"/>
			<point x="45" y="695"/>
			<point x="32" y="684"/>
			<point x="32" y="666" type="curve" smooth="yes"/>
			<point x="32" y="648"/>
			<point x="45" y="638"/>
		</contour>
		<contour>
			<point x="221" y="638" type="curve" smooth="yes"/>
			<point x="236" y="638"/>
			<point x="249" y="648"/>
			<point x="249" y="666" type="curve" smooth="yes"/>
			<point x="249" y="684"/>
			<point x="236" y="695"/>
			<point x="221" y="695" type="curve" smooth="yes"/>
			<point x="206" y="695"/>
			<point x="193" y="684"/>
			<point x="193" y="666" type="curve" smooth="yes"/>
			<point x="193" y="648"/>
			<point x="206" y="638"/>
		</contour>
		<component base="iota"/>
	</outline>
</glyph>
<glyph name="stigma" format="2">
	<unicode hex="03DB"/>
	<advance width="433"/>
	<outline>
		<contour>
			<point x="316" y="-205" type="curve"/>
			<point x="335" y="-205" type="line"/>
			<point x="358" y="-162"/>
			<point x="374" y="-128"/>
			<point x="374" y="-89" type="curve" smooth="yes"/>
			<point x="374" y="-34"/>
			<point x="356" y="7"/>
			<point x="242" y="36" type="curve" smooth="yes"/>
			<point x="124" y="65"/>
			<point x="78" y="117"/>
			<point x="78" y="233" type="curve" smooth="yes"/>
			<point x="78" y="347"/>
			<point x="134" y="413"/>
			<point x="224" y="430" type="curve" smooth="yes"/>
			<point x="289" y="442" type="line" smooth="yes"/>
			<point x="367" y="457"/>
			<point x="402" y="472"/>
			<point x="413" y="523" type="curve" smooth="yes"/>
			<point x="423" y="570" type="line"/>
			<point x="408" y="572" type="line"/>
			<point x="392" y="523" type="line" smooth="yes"/>
			<point x="381" y="492"/>
			<point x="361" y="483"/>
			<point x="291" y="470" type="curve" smooth="yes"/>
			<point x="230" y="458" type="line" smooth="yes"/>
			<point x="128" y="438"/>
			<point x="55" y="367"/>
			<point x="55" y="229" type="curve" smooth="yes"/>
			<point x="55" y="128"/>
			<point x="84" y="47"/>
			<point x="231" y="11" type="curve" smooth="yes"/>
			<point x="339" y="-16"/>
			<point x="348" y="-52"/>
			<point x="348" y="-92" type="curve" smooth="yes"/>
			<point x="348" y="-122"/>
			<point x="338" y="-160"/>
		</contour>
	</outline>
</glyph>
<glyph name="digamma" format="2">
	<unicode hex="03DD"/>
	<advance width="411"/>
	<outline>
		<contour>
			<point x="105" y="-195" type="line"/>
			<point x="113" y="-201" type="line"/>
			<point x="137" y="-193" type="line"/>
			<point x="129" y="82" type="line"/>
			<point x="130" y="187"/>
			<point x="132" y="284"/>
			<point x="135" y="451" type="curve"/>
			<point x="122" y="442" type="line"/>
			<point x="392" y="438" type="line"/>
			<point x="392" y="468" type="line"/>
			<point x="104" y="460" type="line"/>
			<point x="113" y="79" type="line"/>
		</contour>
		<contour>
			<point x="122" y="163" type="line"/>
			<point x="373" y="156" type="line"/>
			<point x="373" y="186" type="line"/>
			<point x="122" y="183" type="line"/>
		</contour>
	</outline>
	<anchor name="aboveLC" x="249" y="484"/>
</glyph>
<glyph name="Dje" format="2">
	<unicode hex="0402"/>
	<advance width="695"/>
	<outline>
		<contour>
			<point x="21" y="510" type="line"/>
			<point x="41" y="510" type="line"/>
			<point x="62" y="674" type="line"/>
			<point x="49" y="656" type="line"/>
			<point x="527" y="656" type="line"/>
			<point x="513" y="674" type="line"/>
			<point x="534" y="510" type="line"/>
			<point x="554" y="510" type="line"/>
			<point x="544" y="676" type="line"/>
			<point x="31" y="676" type="line"/>
		</contour>
		<contour>
			<point x="256" y="0" type="curve"/>
			<point x="288" y="0" type="line"/>
			<point x="286" y="98"/>
			<point x="286" y="209"/>
			<point x="286" y="314" type="curve" smooth="yes"/>
			<point x="286" y="356" type="line" smooth="yes"/>
			<point x="286" y="469"/>
			<point x="286" y="578"/>
			<point x="288" y="676" type="curve"/>
			<point x="256" y="676" type="line"/>
			<point x="258" y="578"/>
			<point x="258" y="469"/>
			<point x="258" y="365" type="curve" smooth="yes"/>
			<point x="258" y="314" type="line" smooth="yes"/>
			<point x="258" y="209"/>
			<point x="258" y="98"/>
		</contour>
		<contour>
			<point x="440" y="-58" type="line"/>
			<point x="551" y="-46"/>
			<point x="623" y="49"/>
			<point x="623" y="174" type="curve" smooth="yes"/>
			<point x="623" y="319"/>
			<point x="561" y="380"/>
			<point x="408" y="380" type="curve" smooth="yes"/>
			<point x="362" y="380"/>
			<point x="320" y="377"/>
			<point x="270" y="367" type="curve"/>
			<point x="270" y="350" type="line"/>
			<point x="318" y="359"/>
			<point x="356" y="361"/>
			<point x="396" y="361" type="curve" smooth="yes"/>
			<point x="549" y="361"/>
			<point x="594" y="303"/>
			<point x="594" y="174" type="curve" smooth="yes"/>
			<point x="594" y="57"/>
			<point x="539" y="-24"/>
			<point x="436" y="-42" type="curve"/>
		</contour>
		<contour>
			<point x="146" y="0" type="line"/>
			<point x="273" y="0" type="line"/>
			<point x="273" y="24" type="line"/>
			<point x="265" y="24" type="line"/>
			<point x="146" y="17" type="line"/>
		</contour>
	</outline>
</glyph>
<glyph name="Nje" format="2">
	<unicode hex="040A"/>
	<advance width="957"/>
	<outline>
		<contour>
			<point x="55" y="0" type="line"/>
			<point x="294" y="0" type="line"/>
			<point x="294" y="17" type="line"/>
			<point x="181" y="24" type="line"/>
			<point x="167" y="24" type="line"/>
			<point x="55" y="17" type="line"/>
		</contour>
		<contour>
			<point x="158" y="0" type="curve"/>
			<point x="191" y="0" type="line"/>
			<point x="189" y="98"/>
			<point x="189" y="209"/>
			<point x="189" y="314" type="curve" smooth="yes"/>
			<point x="189" y="365" type="line" smooth="yes"/>
			<point x="189" y="469"/>
			<point x="189" y="578"/>
			<point x="191" y="676" type="curve"/>
			<point x="158" y="676" type="line"/>
			<point x="160" y="578"/>
			<point x="160" y="469"/>
			<point x="160" y="365" type="curve" smooth="yes"/>
			<point x="160" y="314" type="line" smooth="yes"/>
			<point x="160" y="209"/>
			<point x="160" y="98"/>
		</contour>
		<contour>
			<point x="167" y="652" type="line"/>
			<point x="181" y="652" type="line"/>
			<point x="294" y="659" type="line"/>
			<point x="294" y="676" type="line"/>
			<point x="55" y="676" type="line"/>
			<point x="55" y="659" type="line"/>
		</contour>
		<contour>
			<point x="174" y="350" type="line"/>
			<point x="562" y="350" type="line"/>
			<point x="562" y="370" type="line"/>
			<point x="174" y="370" type="line"/>
		</contour>
		<contour>
			<point x="442" y="0" type="line"/>
			<point x="561" y="0" type="line"/>
			<point x="561" y="24" type="line"/>
			<point x="555" y="24" type="line"/>
			<point x="442" y="17" type="line"/>
		</contour>
		<contour>
			<point x="545" y="0" type="curve"/>
			<point x="578" y="0" type="line"/>
			<point x="576" y="98"/>
			<point x="576" y="209"/>
			<point x="576" y="314" type="curve" smooth="yes"/>
			<point x="576" y="361" type="line" smooth="yes"/>
			<point x="576" y="469"/>
			<point x="576" y="578"/>
			<point x="578" y="676" type="curve"/>
			<point x="545" y="676" type="line"/>
			<point x="547" y="578"/>
			<point x="547" y="469"/>
			<point x="547" y="365" type="curve" smooth="yes"/>
			<point x="547" y="314" type="line" smooth="yes"/>
			<point x="547" y="209"/>
			<point x="547" y="98"/>
		</contour>
		<contour>
			<point x="555" y="652" type="line"/>
			<point x="569" y="652" type="line"/>
			<point x="688" y="659" type="line"/>
			<point x="688" y="676" type="line"/>
			<point x="442" y="676" type="line"/>
			<point x="442" y="659" type="line"/>
		</contour>
		<contour>
			<point x="562" y="0" type="line"/>
			<point x="702" y="0" type="line" smooth="yes"/>
			<point x="841" y="0"/>
			<point x="924" y="73"/>
			<point x="924" y="192" type="curve" smooth="yes"/>
			<point x="924" y="306"/>
			<point x="851" y="379"/>
			<point x="706" y="379" type="curve" smooth="yes"/>
			<point x="659" y="379"/>
			<point x="607" y="375"/>
			<point x="562" y="369" type="curve"/>
			<point x="562" y="351" type="line"/>
			<point x="603" y="357"/>
			<point x="657" y="360"/>
			<point x="697" y="360" type="curve" smooth="yes"/>
			<point x="837" y="360"/>
			<point x="895" y="296"/>
			<point x="895" y="192" type="curve" smooth="yes"/>
			<point x="895" y="83"/>
			<point x="830" y="20"/>
			<point x="696" y="20" type="curve" smooth="yes"/>
			<point x="562" y="20" type="line"/>
		</contour>
	</outline>
</glyph>
<glyph name="Be" format="2">
	<unicode hex="0411"/>
	<advance width="577"/>
	<outline>
		<contour>
			<point x="55" y="0" type="line"/>
			<point x="174" y="0" type="line"/>
			<point x="174" y="24" type="line"/>
			<point x="167" y="24" type="line"/>
			<point x="55" y="17" type="line"/>
		</contour>
		<contour>
			<point x="158" y="0" type="curve"/>
			<point x="191" y="0" type="line"/>
			<point x="189" y="98"/>
			<point x="189" y="209"/>
			<point x="189" y="314" type="curve" smooth="yes"/>
			<point x="189" y="358" type="line" smooth="yes"/>
			<point x="189" y="469"/>
			<point x="189" y="578"/>
			<point x="191" y="676" type="curve"/>
			<point x="158" y="676" type="line"/>
			<point x="160" y="578"/>
			<point x="160" y="469"/>
			<point x="160" y="365" type="curve" smooth="yes"/>
			<point x="160" y="314" type="line" smooth="yes"/>
			<point x="160" y="209"/>
			<point x="160" y="98"/>
		</contour>
		<contour>
			<point x="174" y="0" type="line"/>
			<point x="303" y="0" type="line" smooth="yes"/>
			<point x="445" y="0"/>
			<point x="530" y="72"/>
			<point x="530" y="188" type="curve" smooth="yes"/>
			<point x="530" y="300"/>
			<point x="455" y="371"/>
			<point x="304" y="371" type="curve" smooth="yes"/>
			<point x="261" y="371"/>
			<point x="219" y="368"/>
			<point x="174" y="359" type="curve"/>
			<point x="174" y="341" type="line"/>
			<point x="216" y="350"/>
			<point x="254" y="353"/>
			<point x="294" y="353" type="curve" smooth="yes"/>
			<point x="441" y="353"/>
			<point x="501" y="290"/>
			<point x="501" y="188" type="curve" smooth="yes"/>
			<point x="501" y="82"/>
			<point x="435" y="20"/>
			<point x="296" y="20" type="curve" smooth="yes"/>
			<point x="174" y="20" type="line"/>
		</contour>
		<contour>
			<point x="55" y="659" type="line"/>
			<point x="167" y="652" type="line"/>
			<point x="176" y="652" type="line"/>
			<point x="177" y="676" type="line"/>
			<point x="55" y="676" type="line"/>
		</contour>
		<contour>
			<point x="479" y="520" type="line"/>
			<point x="499" y="520" type="line"/>
			<point x="489" y="676" type="line"/>
			<point x="174" y="676" type="line"/>
			<point x="174" y="656" type="line"/>
			<point x="471" y="656" type="line"/>
			<point x="458" y="674" type="line"/>
		</contour>
	</outline>
</glyph>
<glyph name="De" format="2">
	<unicode hex="0414"/>
	<advance width="689"/>
	<outline>
		<contour>
			<point x="26" y="-180" type="line"/>
			<point x="45" y="-180" type="line"/>
			<point x="56" y="19" type="line"/>
			<point x="43" y="0" type="line"/>
			<point x="613" y="0" type="line"/>
			<point x="600" y="19" type="line"/>
			<point x="611" y="-180" type="line"/>
			<point x="630" y="-180" type="line"/>
			<point x="631" y="20" type="line"/>
			<point x="24" y="20" type="line"/>
		</contour>
		<contour>
			<point x="173" y="659" type="line"/>
			<point x="268" y="652" type="line"/>
			<point x="275" y="652" type="line"/>
			<point x="275" y="676" type="line"/>
			<point x="173" y="676" type="line"/>
		</contour>
		<contour>
			<point x="272" y="656" type="line"/>
			<point x="518" y="656" type="line"/>
			<point x="518" y="676" type="line"/>
			<point x="272" y="676" type="line"/>
		</contour>
		<contour>
			<point x="501" y="0" type="curve"/>
			<point x="534" y="0" type="line"/>
			<point x="532" y="98"/>
			<point x="532" y="209"/>
			<point x="532" y="336" type="curve" smooth="yes"/>
			<point x="532" y="356" type="line" smooth="yes"/>
			<point x="532" y="469"/>
			<point x="532" y="578"/>
			<point x="534" y="676" type="curve"/>
			<point x="501" y="676" type="line"/>
			<point x="503" y="578"/>
			<point x="503" y="469"/>
			<point x="503" y="356" type="curve" smooth="yes"/>
			<point x="503" y="336" type="line" smooth="yes"/>
			<point x="503" y="209"/>
			<point x="503" y="98"/>
		</contour>
		<contour>
			<point x="516" y="652" type="line"/>
			<point x="525" y="652" type="line"/>
			<point x="637" y="659" type="line"/>
			<point x="637" y="676" type="line"/>
			<point x="516" y="676" type="line"/>
		</contour>
		<contour>
			<point x="75" y="19" type="curve"/>
			<point x="97" y="7" type="line"/>
			<point x="219" y="168"/>
			<point x="272" y="392"/>
			<point x="288" y="676" type="curve"/>
			<point x="264" y="676" type="line"/>
			<point x="249" y="395"/>
			<point x="198" y="178"/>
		</contour>
	</outline>
</glyph>
<glyph name="Icyr" format="2">
	<unicode hex="0418"/>
	<advance width="778"/>
	<outline>
		<contour>
			<point x="158" y="0" type="curve"/>
			<point x="189" y="0" type="line"/>
			<point x="189" y="365" type="line" smooth="yes"/>
			<point x="189" y="469"/>
			<point x="189" y="573"/>
			<point x="190" y="676" type="curve"/>
			<point x="158" y="676" type="line"/>
			<point x="160" y="578"/>
			<point x="160" y="469"/>
			<point x="160" y="365" type="curve" smooth="yes"/>
			<point x="160" y="314" type="line" smooth="yes"/>
			<point x="160" y="209"/>
			<point x="160" y="98"/>
		</contour>
		<contour>
			<point x="587" y="0" type="curve"/>
			<point x="620" y="0" type="line"/>
			<point x="618" y="98"/>
			<point x="618" y="209"/>
			<point x="618" y="314" type="curve" smooth="yes"/>
			<point x="618" y="365" type="line" smooth="yes"/>
			<point x="618" y="469"/>
			<point x="618" y="578"/>
			<point x="620" y="676" type="curve"/>
			<point x="589" y="676" type="line"/>
			<point x="589" y="314" type="line" smooth="yes"/>
			<point x="589" y="209"/>
			<point x="589" y="104"/>
		</contour>
		<contour>
			<point x="55" y="0" type="line"/>
			<point x="294" y="0" type="line"/>
			<point x="294" y="17" type="line"/>
			<point x="181" y="24" type="line"/>
			<point x="167" y="24" type="line"/>
			<point x="55" y="17" type="line"/>
		</contour>
		<contour>
			<point x="55" y="659" type="line"/>
			<point x="167" y="652" type="line"/>
			<point x="181" y="652" type="line"/>
			<point x="294" y="659" type="line"/>
			<point x="294" y="676" type="line"/>
			<point x="55" y="676" type="line"/>
		</contour>
		<contour>
			<point x="484" y="0" type="line"/>
			<point x="722" y="0" type="line"/>
			<point x="722" y="17" type="line"/>
			<point x="611" y="24" type="line"/>
			<point x="597" y="24" type="line"/>
			<point x="484" y="17" type="line"/>
		</contour>
		<contour>
			<point x="484" y="659" type="line"/>
			<point x="597" y="652" type="line"/>
			<point x="611" y="652" type="line"/>
			<point x="722" y="659" type="line"/>
			<point x="722" y="676" type="line"/>
			<point x="484" y="676" type="line"/>
		</contour>
		<contour>
			<point x="175" y="37" type="line"/>
			<point x="604" y="605" type="line"/>
			<point x="609" y="605" type="line"/>
			<point x="604" y="639" type="line"/>
			<point x="175" y="70" type="line"/>
			<point x="169" y="70" type="line"/>
		</contour>
	</outline>
	<anchor name="aboveUC" x="388" y="696"/>
</glyph>
<glyph name="Che" format="2">
	<unicode hex="0427"/>
	<advance width="687"/>
	<outline>
		<contour>
			<point x="143" y="652" type="line"/>
			<point x="157" y="652" type="line"/>
			<point x="270" y="659" type="line"/>
			<point x="270" y="676" type="line"/>
			<point x="40" y="676" type="line"/>
			<point x="40" y="659" type="line"/>
		</contour>
		<contour>
			<point x="325" y="292" type="curve" smooth="yes"/>
			<point x="374" y="292"/>
			<point x="445" y="302"/>
			<point x="514" y="315" type="curve"/>
			<point x="514" y="331" type="line"/>
			<point x="443" y="321"/>
			<point x="385" y="315"/>
			<point x="330" y="315" type="curve" smooth="yes"/>
			<point x="213" y="315"/>
			<point x="164" y="352"/>
			<point x="164" y="496" type="curve" smooth="yes"/>
			<point x="164" y="545"/>
			<point x="165" y="612"/>
			<point x="166" y="676" type="curve"/>
			<point x="136" y="676" type="line"/>
			<point x="136" y="611"/>
			<point x="136" y="547"/>
			<point x="136" y="482" type="curve" smooth="yes"/>
			<point x="136" y="323"/>
			<point x="208" y="292"/>
		</contour>
		<contour>
			<point x="394" y="0" type="line"/>
			<point x="632" y="0" type="line"/>
			<point x="632" y="17" type="line"/>
			<point x="520" y="24" type="line"/>
			<point x="506" y="24" type="line"/>
			<point x="394" y="17" type="line"/>
		</contour>
		<contour>
			<point x="496" y="0" type="curve"/>
			<point x="529" y="0" type="line"/>
			<point x="527" y="98"/>
			<point x="527" y="208"/>
			<point x="527" y="312" type="curve" smooth="yes"/>
			<point x="527" y="363" type="line" smooth="yes"/>
			<point x="527" y="468"/>
			<point x="527" y="578"/>
			<point x="529" y="676" type="curve"/>
			<point x="496" y="676" type="line"/>
			<point x="498" y="578"/>
			<point x="498" y="468"/>
			<point x="498" y="363" type="curve" smooth="yes"/>
			<point x="498" y="321" type="line" smooth="yes"/>
			<point x="498" y="208"/>
			<point x="498" y="98"/>
		</contour>
		<contour>
			<point x="506" y="652" type="line"/>
			<point x="520" y="652" type="line"/>
			<point x="632" y="659" type="line"/>
			<point x="632" y="676" type="line"/>
			<point x="393" y="676" type="line"/>
			<point x="393" y="659" type="line"/>
		</contour>
	</outline>
	<anchor name="aboveUC" x="335" y="696"/>
</glyph>
<glyph name="Yeru" format="2">
	<unicode hex="042B"/>
	<advance width="852"/>
	<outline>
		<contour>
			<point x="174" y="0" type="line"/>
			<point x="293" y="0" type="line" smooth="yes"/>
			<point x="430" y="0"/>
			<point x="511" y="73"/>
			<point x="511" y="192" type="curve" smooth="yes"/>
			<point x="511" y="306"/>
			<point x="438" y="379"/>
			<point x="294" y="379" type="curve" smooth="yes"/>
			<point x="252" y="379"/>
			<point x="217" y="375"/>
			<point x="174" y="367" type="curve"/>
			<point x="174" y="349" type="line"/>
			<point x="214" y="357"/>
			<point x="246" y="360"/>
			<point x="284" y="360" type="curve" smooth="yes"/>
			<point x="425" y="360"/>
			<point x="482" y="296"/>
			<point x="482" y="192" type="curve" smooth="yes"/>
			<point x="482" y="83"/>
			<point x="418" y="20"/>
			<point x="286" y="20" type="curve" smooth="yes"/>
			<point x="174" y="20" type="line"/>
		</contour>
		<contour>
			<point x="158" y="0" type="curve"/>
			<point x="191" y="0" type="line"/>
			<point x="189" y="98"/>
			<point x="189" y="209"/>
			<point x="189" y="314" type="curve" smooth="yes"/>
			<point x="189" y="361" type="line" smooth="yes"/>
			<point x="189" y="469"/>
			<point x="189" y="578"/>
			<point x="191" y="676" type="curve"/>
			<point x="158" y="676" type="line"/>
			<point x="160" y="578"/>
			<point x="160" y="469"/>
			<point x="160" y="365" type="curve" smooth="yes"/>
			<point x="160" y="314" type="line" smooth="yes"/>
			<point x="160" y="209"/>
			<point x="160" y="98"/>
		</contour>
		<contour>
			<point x="661" y="0" type="curve"/>
			<point x="694" y="0" type="line"/>
			<point x="692" y="98"/>
			<point x="692" y="209"/>
			<point x="692" y="314" type="curve" smooth="yes"/>
			<point x="692" y="365" type="line" smooth="yes"/>
			<point x="692" y="469"/>
			<point x="692" y="578"/>
			<point x="694" y="676" type="curve"/>
			<point x="661" y="676" type="line"/>
			<point x="663" y="578"/>
			<point x="663" y="469"/>
			<point x="663" y="365" type="curve" smooth="yes"/>
			<point x="663" y="314" type="line" smooth="yes"/>
			<point x="663" y="209"/>
			<point x="663" y="98"/>
		</contour>
		<contour>
			<point x="55" y="659" type="line"/>
			<point x="167" y="652" type="line"/>
			<point x="181" y="652" type="line"/>
			<point x="301" y="659" type="line"/>
			<point x="301" y="676" type="line"/>
			<point x="55" y="676" type="line"/>
		</contour>
		<contour>
			<point x="558" y="0" type="line"/>
			<point x="797" y="0" type="line"/>
			<point x="797" y="17" type="line"/>
			<point x="685" y="24" type="line"/>
			<point x="671" y="24" type="line"/>
			<point x="558" y="17" type="line"/>
		</contour>
		<contour>
			<point x="558" y="659" type="line"/>
			<point x="671" y="652" type="line"/>
			<point x="685" y="652" type="line"/>
			<point x="797" y="659" type="line"/>
			<point x="797" y="676" type="line"/>
			<point x="558" y="676" type="line"/>
		</contour>
		<contour>
			<point x="55" y="0" type="line"/>
			<point x="174" y="0" type="line"/>
			<point x="174" y="24" type="line"/>
			<point x="167" y="24" type="line"/>
			<point x="55" y="17" type="line"/>
		</contour>
	</outline>
	<anchor name="aboveUC" x="426" y="696"/>
</glyph>
<glyph name="el" format="2">
	<unicode hex="043B"/>
	<advance width="551"/>
	<outline>
		<contour>
			<point x="76" y="-7" type="curve" smooth="yes"/>
			<point x="120" y="-7"/>
			<point x="157" y="37"/>
			<point x="181" y="114" type="curve" smooth="yes"/>
			<point x="208" y="198"/>
			<point x="228" y="321"/>
			<point x="232" y="464" type="curve"/>
			<point x="210" y="464" type="line"/>
			<point x="206" y="323"/>
			<point x="189" y="205"/>
			<point x="157" y="117" type="curve" smooth="yes"/>
			<point x="138" y="62"/>
			<point x="117" y="35"/>
			<point x="87" y="20" type="curve"/>
			<point x="87" y="14" type="line"/>
			<point x="109" y="14" type="line"/>
			<point x="109" y="21" type="line"/>
			<point x="89" y="40"/>
			<point x="75" y="49"/>
			<point x="58" y="49" type="curve" smooth="yes"/>
			<point x="43" y="49"/>
			<point x="32" y="42"/>
			<point x="28" y="31" type="curve"/>
			<point x="29" y="11"/>
			<point x="44" y="-7"/>
		</contour>
		<contour>
			<point x="128" y="447" type="line"/>
			<point x="217" y="441" type="line"/>
			<point x="220" y="441" type="line"/>
			<point x="220" y="464" type="line"/>
			<point x="128" y="464" type="line"/>
		</contour>
		<contour>
			<point x="221" y="445" type="line"/>
			<point x="406" y="445" type="line"/>
			<point x="406" y="464" type="line"/>
			<point x="221" y="464" type="line"/>
		</contour>
		<contour>
			<point x="305" y="0" type="line"/>
			<point x="506" y="0" type="line"/>
			<point x="506" y="17" type="line"/>
			<point x="411" y="23" type="line"/>
			<point x="403" y="23" type="line"/>
			<point x="305" y="17" type="line"/>
		</contour>
		<contour>
			<point x="389" y="0" type="curve"/>
			<point x="422" y="0" type="line"/>
			<point x="420" y="45"/>
			<point x="419" y="147"/>
			<point x="419" y="208" type="curve" smooth="yes"/>
			<point x="419" y="256" type="line" smooth="yes"/>
			<point x="419" y="317"/>
			<point x="420" y="419"/>
			<point x="422" y="464" type="curve"/>
			<point x="389" y="464" type="line"/>
			<point x="391" y="419"/>
			<point x="392" y="317"/>
			<point x="392" y="256" type="curve" smooth="yes"/>
			<point x="392" y="208" type="line" smooth="yes"/>
			<point x="392" y="147"/>
			<point x="391" y="45"/>
		</contour>
		<contour>
			<point x="405" y="441" type="line"/>
			<point x="410" y="441" type="line"/>
			<point x="506" y="447" type="line"/>
			<point x="506" y="464" type="line"/>
			<point x="405" y="464" type="line"/>
		</contour>
	</outline>
</glyph>
<glyph name="en" format="2">
	<unicode hex="043D"/>
	<advance width="610"/>
	<outline>
		<contour>
			<point x="128" y="0" type="curve"/>
			<point x="161" y="0" type="line"/>
			<point x="159" y="45"/>
			<point x="158" y="147"/>
			<point x="158" y="229" type="curve" smooth="yes"/>
			<point x="158" y="249" type="line" smooth="yes"/>
			<point x="158" y="317"/>
			<point x="159" y="419"/>
			<point x="161" y="464" type="curve"/>
			<point x="128" y="464" type="line"/>
			<point x="130" y="419"/>
			<point x="131" y="317"/>
			<point x="131" y="256" type="curve" smooth="yes"/>
			<point x="131" y="208" type="line" smooth="yes"/>
			<point x="131" y="147"/>
			<point x="130" y="45"/>
		</contour>
		<contour>
			<point x="449" y="0" type="curve"/>
			<point x="482" y="0" type="line"/>
			<point x="480" y="45"/>
			<point x="479" y="147"/>
			<point x="479" y="208" type="curve" smooth="yes"/>
			<point x="479" y="256" type="line" smooth="yes"/>
			<point x="479" y="317"/>
			<point x="480" y="419"/>
			<point x="482" y="464" type="curve"/>
			<point x="449" y="464" type="line"/>
			<point x="451" y="419"/>
			<point x="452" y="317"/>
			<point x="452" y="249" type="curve" smooth="yes"/>
			<point x="452" y="229" type="line" smooth="yes"/>
			<point x="452" y="147"/>
			<point x="451" y="45"/>
		</contour>
		<contour>
			<point x="44" y="0" type="line"/>
			<point x="245" y="0" type="line"/>
			<point x="245" y="17" type="line"/>
			<point x="148" y="23" type="line"/>
			<point x="140" y="23" type="line"/>
			<point x="44" y="17" type="line"/>
		</contour>
		<contour>
			<point x="44" y="447" type="line"/>
			<point x="140" y="441" type="line"/>
			<point x="148" y="441" type="line"/>
			<point x="245" y="447" type="line"/>
			<point x="245" y="464" type="line"/>
			<point x="44" y="464" type="line"/>
		</contour>
		<contour>
			<point x="365" y="0" type="line"/>
			<point x="566" y="0" type="line"/>
			<point x="566" y="17" type="line"/>
			<point x="470" y="23" type="line"/>
			<point x="462" y="23" type="line"/>
			<point x="365" y="17" type="line"/>
		</contour>
		<contour>
			<point x="365" y="447" type="line"/>
			<point x="462" y="441" type="line"/>
			<point x="470" y="441" type="line"/>
			<point x="566" y="447" type="line"/>
			<point x="566" y="464" type="line"/>
			<point x="365" y="464" type="line"/>
		</contour>
		<contour>
			<point x="145" y="232" type="line"/>
			<point x="465" y="232" type="line"/>
			<point x="465" y="251" type="line"/>
			<point x="145" y="251" type="line"/>
		</contour>
	</outline>
</glyph>
<glyph name="pe" format="2">
	<unicode hex="043F"/>
	<advance width="600"/>
	<outline>
		<contour>
			<point x="128" y="0" type="curve"/>
			<point x="161" y="0" type="line"/>
			<point x="159" y="45"/>
			<point x="158" y="147"/>
			<point x="158" y="208" type="curve" smooth="yes"/>
			<point x="158" y="256" type="line" smooth="yes"/>
			<point x="158" y="317"/>
			<point x="159" y="419"/>
			<point x="161" y="464" type="curve"/>
			<point x="128" y="464" type="line"/>
			<point x="130" y="419"/>
			<point x="131" y="317"/>
			<point x="131" y="256" type="curve" smooth="yes"/>
			<point x="131" y="208" type="line" smooth="yes"/>
			<point x="131" y="147"/>
			<point x="130" y="45"/>
		</contour>
		<contour>
			<point x="438" y="0" type="curve"/>
			<point x="471" y="0" type="line"/>
			<point x="469" y="45"/>
			<point x="468" y="147"/>
			<point x="468" y="208" type="curve" smooth="yes"/>
			<point x="468" y="256" type="line" smooth="yes"/>
			<point x="468" y="317"/>
			<point x="469" y="419"/>
			<point x="471" y="464" type="curve"/>
			<point x="438" y="464" type="line"/>
			<point x="440" y="419"/>
			<point x="441" y="317"/>
			<point x="441" y="256" type="curve" smooth="yes"/>
			<point x="441" y="208" type="line" smooth="yes"/>
			<point x="441" y="147"/>
			<point x="440" y="45"/>
		</contour>
		<contour>
			<point x="44" y="0" type="line"/>
			<point x="244" y="0" type="line"/>
			<point x="244" y="17" type="line"/>
			<point x="148" y="23" type="line"/>
			<point x="140" y="23" type="line"/>
			<point x="44" y="17" type="line"/>
		</contour>
		<contour>
			<point x="355" y="0" type="line"/>
			<point x="556" y="0" type="line"/>
			<point x="556" y="17" type="line"/>
			<point x="459" y="23" type="line"/>
			<point x="451" y="23" type="line"/>
			<point x="355" y="17" type="line"/>
		</contour>
		<contour>
			<point x="44" y="447" type="line"/>
			<point x="140" y="441" type="line"/>
			<point x="145" y="441" type="line"/>
			<point x="145" y="464" type="line"/>
			<point x="44" y="464" type="line"/>
		</contour>
		<contour>
			<point x="454" y="441" type="line"/>
			<point x="459" y="441" type="line"/>
			<point x="555" y="447" type="line"/>
			<point x="555" y="464" type="line"/>
			<point x="454" y="464" type="line"/>
		</contour>
		<contour>
			<point x="145" y="445" type="line"/>
			<point x="454" y="445" type="line"/>
			<point x="454" y="464" type="line"/>
			<point x="145" y="464" type="line"/>
		</contour>
	</outline>
</glyph>
<glyph name="shcha" format="2">
	<unicode hex="0449"/>
	<advance width="846"/>
	<outline>
		<contour>
			<point x="128" y="0" type="curve"/>
			<point x="161" y="0" type="line"/>
			<point x="159" y="45"/>
			<point x="158" y="147"/>
			<point x="158" y="208" type="curve" smooth="yes"/>
			<point x="158" y="256" type="line" smooth="yes"/>
			<point x="158" y="317"/>
			<point x="159" y="419"/>
			<point x="161" y="464" type="curve"/>
			<point x="128" y="464" type="line"/>
			<point x="130" y="419"/>
			<point x="131" y="317"/>
			<point x="131" y="256" type="curve" smooth="yes"/>
			<point x="131" y="208" type="line" smooth="yes"/>
			<point x="131" y="147"/>
			<point x="130" y="45"/>
		</contour>
		<contour>
			<point x="406" y="0" type="curve"/>
			<point x="439" y="0" type="line"/>
			<point x="437" y="45"/>
			<point x="436" y="147"/>
			<point x="436" y="208" type="curve" smooth="yes"/>
			<point x="436" y="256" type="line" smooth="yes"/>
			<point x="436" y="317"/>
			<point x="437" y="419"/>
			<point x="439" y="464" type="curve"/>
			<point x="406" y="464" type="line"/>
			<point x="408" y="419"/>
			<point x="409" y="317"/>
			<point x="409" y="256" type="curve" smooth="yes"/>
			<point x="409" y="208" type="line" smooth="yes"/>
			<point x="409" y="147"/>
			<point x="408" y="45"/>
		</contour>
		<contour>
			<point x="685" y="0" type="curve"/>
			<point x="718" y="0" type="line"/>
			<point x="716" y="45"/>
			<point x="715" y="147"/>
			<point x="715" y="208" type="curve" smooth="yes"/>
			<point x="715" y="256" type="line" smooth="yes"/>
			<point x="715" y="317"/>
			<point x="716" y="419"/>
			<point x="718" y="464" type="curve"/>
			<point x="685" y="464" type="line"/>
			<point x="687" y="419"/>
			<point x="688" y="317"/>
			<point x="688" y="256" type="curve" smooth="yes"/>
			<point x="688" y="208" type="line" smooth="yes"/>
			<point x="688" y="147"/>
			<point x="687" y="45"/>
		</contour>
		<contour>
			<point x="783" y="-144" type="line"/>
			<point x="802" y="-144" type="line"/>
			<point x="807" y="19" type="line"/>
			<point x="143" y="19" type="line"/>
			<point x="143" y="0" type="line"/>
			<point x="788" y="0" type="line"/>
			<point x="773" y="14" type="line"/>
		</contour>
		<contour>
			<point x="44" y="447" type="line"/>
			<point x="140" y="441" type="line"/>
			<point x="148" y="441" type="line"/>
			<point x="243" y="447" type="line"/>
			<point x="243" y="464" type="line"/>
			<point x="44" y="464" type="line"/>
		</contour>
		<contour>
			<point x="323" y="447" type="line"/>
			<point x="419" y="441" type="line"/>
			<point x="427" y="441" type="line"/>
			<point x="522" y="447" type="line"/>
			<point x="522" y="464" type="line"/>
			<point x="323" y="464" type="line"/>
		</contour>
		<contour>
			<point x="602" y="447" type="line"/>
			<point x="697" y="441" type="line"/>
			<point x="706" y="441" type="line"/>
			<point x="802" y="447" type="line"/>
			<point x="802" y="464" type="line"/>
			<point x="602" y="464" type="line"/>
		</contour>
		<contour>
			<point x="44" y="0" type="line"/>
			<point x="144" y="0" type="line"/>
			<point x="145" y="23" type="line"/>
			<point x="140" y="23" type="line"/>
			<point x="44" y="17" type="line"/>
		</contour>
	</outline>
</glyph>
<glyph name="soft" format="2">
	<unicode hex="044C"/>
	<advance width="458"/>
	<outline>
		<contour>
			<point x="153" y="0" type="line"/>
			<point x="251" y="0" type="line" smooth="yes"/>
			<point x="384" y="0"/>
			<point x="437" y="63"/>
			<point x="437" y="144" type="curve" smooth="yes"/>
			<point x="437" y="223"/>
			<point x="389" y="281"/>
			<point x="264" y="281" type="curve" smooth="yes"/>
			<point x="225" y="281"/>
			<point x="191" y="277"/>
			<point x="154" y="270" type="curve"/>
			<point x="154" y="252" type="line"/>
			<point x="192" y="260"/>
			<point x="223" y="263"/>
			<point x="259" y="263" type="curve" smooth="yes"/>
			<point x="361" y="263"/>
			<point x="409" y="221"/>
			<point x="409" y="144" type="curve" smooth="yes"/>
			<point x="409" y="60"/>
			<point x="358" y="18"/>
			<point x="237" y="18" type="curve" smooth="yes"/>
			<point x="153" y="18" type="line"/>
		</contour>
		<contour>
			<point x="136" y="0" type="curve"/>
			<point x="169" y="0" type="line"/>
			<point x="167" y="45"/>
			<point x="166" y="147"/>
			<point x="166" y="208" type="curve" smooth="yes"/>
			<point x="166" y="256" type="line" smooth="yes"/>
			<point x="166" y="317"/>
			<point x="167" y="419"/>
			<point x="169" y="464" type="curve"/>
			<point x="136" y="464" type="line"/>
			<point x="138" y="419"/>
			<point x="139" y="317"/>
			<point x="139" y="256" type="curve" smooth="yes"/>
			<point x="139" y="208" type="line" smooth="yes"/>
			<point x="139" y="147"/>
			<point x="138" y="45"/>
		</contour>
		<contour>
			<point x="52" y="447" type="line"/>
			<point x="149" y="441" type="line"/>
			<point x="157" y="441" type="line"/>
			<point x="253" y="447" type="line"/>
			<point x="253" y="464" type="line"/>
			<point x="52" y="464" type="line"/>
		</contour>
		<contour>
			<point x="52" y="0" type="line"/>
			<point x="157" y="0" type="line"/>
			<point x="157" y="23" type="line"/>
			<point x="149" y="23" type="line"/>
			<point x="52" y="17" type="line"/>
		</contour>
	</outline>
</glyph>
<glyph name="ya" format="2">
	<unicode hex="044F"/>
	<advance width="503"/>
	<outline>
		<contour>
			<point x="250" y="464" type="line" smooth="yes"/>
			<point x="155" y="464"/>
			<point x="97" y="419"/>
			<point x="97" y="343" type="curve" smooth="yes"/>
			<point x="97" y="277"/>
			<point x="140" y="220"/>
			<point x="251" y="219" type="curve"/>
			<point x="262" y="225" type="line"/>
			<point x="206" y="219"/>
			<point x="187" y="198"/>
			<point x="155" y="137" type="curve" smooth="yes"/>
			<point x="89" y="13" type="line"/>
			<point x="107" y="23" type="line"/>
			<point x="21" y="16" type="line"/>
			<point x="21" y="0" type="line"/>
			<point x="39" y="-3"/>
			<point x="55" y="-4"/>
			<point x="70" y="-4" type="curve"/>
			<point x="107" y="-4"/>
			<point x="111" y="2"/>
			<point x="128" y="34" type="curve" smooth="yes"/>
			<point x="184" y="142" type="line" smooth="yes"/>
			<point x="215" y="202"/>
			<point x="239" y="216"/>
			<point x="293" y="216" type="curve" smooth="yes"/>
			<point x="358" y="216" type="line"/>
			<point x="358" y="233" type="line"/>
			<point x="263" y="233" type="line" smooth="yes"/>
			<point x="171" y="233"/>
			<point x="123" y="275"/>
			<point x="123" y="344" type="curve" smooth="yes"/>
			<point x="123" y="405"/>
			<point x="165" y="445"/>
			<point x="250" y="445" type="curve" smooth="yes"/>
			<point x="358" y="445" type="line"/>
			<point x="363" y="441" type="line"/>
			<point x="459" y="447" type="line"/>
			<point x="459" y="464" type="line"/>
		</contour>
		<contour>
			<point x="343" y="0" type="curve"/>
			<point x="375" y="0" type="line"/>
			<point x="373" y="45"/>
			<point x="372" y="147"/>
			<point x="372" y="208" type="curve" smooth="yes"/>
			<point x="372" y="256" type="line" smooth="yes"/>
			<point x="372" y="317"/>
			<point x="373" y="419"/>
			<point x="375" y="464" type="curve"/>
			<point x="343" y="464" type="line"/>
			<point x="345" y="419"/>
			<point x="346" y="317"/>
			<point x="346" y="256" type="curve" smooth="yes"/>
			<point x="346" y="219" type="line" smooth="yes"/>
			<point x="346" y="147"/>
			<point x="345" y="45"/>
		</contour>
		<contour>
			<point x="258" y="0" type="line"/>
			<point x="459" y="0" type="line"/>
			<point x="459" y="17" type="line"/>
			<point x="363" y="23" type="line"/>
			<point x="355" y="23" type="line"/>
			<point x="258" y="17" type="line"/>
		</contour>
	</outline>
	<anchor name="aboveLC" x="275" y="484"/>
</glyph>
<glyph name="ieukran" format="2">
	<unicode hex="0454"/>
	<advance width="465"/>
	<outline>
		<contour>
			<point x="260" y="-13" type="curve" smooth="yes"/>
			<point x="335" y="-13"/>
			<point x="383" y="17"/>
			<point x="422" y="68" type="curve"/>
			<point x="412" y="77" type="line"/>
			<point x="371" y="31"/>
			<point x="324" y="11"/>
			<point x="264" y="11" type="curve" smooth="yes"/>
			<point x="148" y="11"/>
			<point x="80" y="94"/>
			<point x="80" y="237" type="curve" smooth="yes"/>
			<point x="80" y="381"/>
			<point x="152" y="459"/>
			<point x="270" y="459" type="curve" smooth="yes"/>
			<point x="312" y="459"/>
			<point x="353" y="450"/>
			<point x="394" y="421" type="curve"/>
			<point x="381" y="444" type="line"/>
			<point x="390" y="343" type="line"/>
			<point x="409" y="343" type="line"/>
			<point x="412" y="434" type="line"/>
			<point x="366" y="464"/>
			<point x="324" y="477"/>
			<point x="271" y="477" type="curve" smooth="yes"/>
			<point x="147" y="477"/>
			<point x="51" y="399"/>
			<point x="51" y="232" type="curve" smooth="yes"/>
			<point x="51" y="74"/>
			<point x="130" y="-13"/>
		</contour>
		<contour>
			<point x="67" y="232" type="line"/>
			<point x="346" y="230" type="line"/>
			<point x="346" y="254" type="line"/>
			<point x="67" y="251" type="line"/>
		</contour>
	</outline>
	<anchor name="aboveLC" x="258" y="484"/>
</glyph>
<glyph name="dzhe" format="2">
	<unicode hex="045F"/>
	<advance width="593"/>
	<outline>
		<contour>
			<point x="128" y="0" type="curve"/>
			<point x="161" y="0" type="line"/>
			<point x="159" y="45"/>
			<point x="158" y="147"/>
			<point x="158" y="208" type="curve" smooth="yes"/>
			<point x="158" y="256" type="line" smooth="yes"/>
			<point x="158" y="317"/>
			<point x="159" y="419"/>
			<point x="161" y="464" type="curve"/>
			<point x="128" y="464" type="line"/>
			<point x="130" y="419"/>
			<point x="131" y="317"/>
			<point x="131" y="256" type="curve" smooth="yes"/>
			<point x="131" y="208" type="line" smooth="yes"/>
			<point x="131" y="147"/>
			<point x="130" y="45"/>
		</contour>
		<contour>
			<point x="433" y="0" type="curve"/>
			<point x="466" y="0" type="line"/>
			<point x="464" y="45"/>
			<point x="463" y="147"/>
			<point x="463" y="208" type="curve" smooth="yes"/>
			<point x="463" y="256" type="line" smooth="yes"/>
			<point x="463" y="317"/>
			<point x="464" y="419"/>
			<point x="466" y="464" type="curve"/>
			<point x="433" y="464" type="line"/>
			<point x="435" y="419"/>
			<point x="436" y="317"/>
			<point x="436" y="256" type="curve" smooth="yes"/>
			<point x="436" y="208" type="line" smooth="yes"/>
			<point x="436" y="147"/>
			<point x="435" y="45"/>
		</contour>
		<contour>
			<point x="44" y="447" type="line"/>
			<point x="140" y="441" type="line"/>
			<point x="148" y="441" type="line"/>
			<point x="243" y="447" type="line"/>
			<point x="243" y="464" type="line"/>
			<point x="44" y="464" type="line"/>
		</contour>
		<contour>
			<point x="350" y="447" type="line"/>
			<point x="445" y="441" type="line"/>
			<point x="454" y="441" type="line"/>
			<point x="550" y="447" type="line"/>
			<point x="550" y="464" type="line"/>
			<point x="350" y="464" type="line"/>
		</contour>
		<contour>
			<point x="44" y="0" type="line"/>
			<point x="145" y="0" type="line"/>
			<point x="145" y="23" type="line"/>
			<point x="140" y="23" type="line"/>
			<point x="44" y="17" type="line"/>
		</contour>
		<contour>
			<point x="449" y="0" type="line"/>
			<point x="550" y="0" type="line"/>
			<point x="550" y="17" type="line"/>
			<point x="454" y="23" type="line"/>
			<point x="449" y="23" type="line"/>
		</contour>
		<contour>
			<point x="145" y="0" type="line"/>
			<point x="449" y="0" type="line"/>
			<point x="449" y="19" type="line"/>
			<point x="145" y="19" type="line"/>
		</contour>
		<contour>
			<point x="287" y="-152" type="line"/>
			<point x="306" y="-152" type="line"/>
			<point x="314" y="12" type="line"/>
			<point x="280" y="12" type="line"/>
		</contour>
	</outline>
</glyph>
<glyph name="gheup" format="2">
	<unicode hex="0491"/>
	<advance width="428"/>
	<outline>
		<contour>
			<point x="128" y="0" type="curve"/>
			<point x="161" y="0" type="line"/>
			<point x="159" y="45"/>
			<point x="158" y="147"/>
			<point x="158" y="208" type="curve" smooth="yes"/>
			<point x="158" y="256" type="line" smooth="yes"/>
			<point x="158" y="317"/>
			<point x="159" y="419"/>
			<point x="161" y="464" type="curve"/>
			<point x="128" y="464" type="line"/>
			<point x="130" y="419"/>
			<point x="131" y="317"/>
			<point x="131" y="256" type="curve" smooth="yes"/>
			<point x="131" y="208" type="line" smooth="yes"/>
			<point x="131" y="147"/>
			<point x="130" y="45"/>
		</contour>
		<contour>
			<point x="141" y="464" type="line"/>
			<point x="141" y="445" type="line"/>
			<point x="384" y="445" type="line"/>
			<point x="393" y="596" type="line"/>
			<point x="374" y="596" type="line"/>
			<point x="349" y="449" type="line"/>
			<point x="365" y="464" type="line"/>
		</contour>
		<contour>
			<point x="44" y="0" type="line"/>
			<point x="253" y="0" type="line"/>
			<point x="253" y="17" type="line"/>
			<point x="148" y="23" type="line"/>
			<point x="140" y="23" type="line"/>
			<point x="44" y="17" type="line"/>
		</contour>
		<contour>
			<point x="44" y="447" type="line"/>
			<point x="140" y="441" type="line"/>
			<point x="145" y="441" type="line"/>
			<point x="145" y="464" type="line"/>
			<point x="44" y="464" type="line"/>
		</contour>
	</outline>
</glyph>
<glyph name="ghestroke" format="2">
	<unicode hex="0493"/>
	<advance width="427"/>
	<outline>
		<contour>
			<point x="44" y="231" type="line"/>
			<point x="281" y="231" type="line"/>
			<point x="281" y="249" type="line"/>
			<point x="44" y="249" type="line"/>
		</contour>
		<component base="ghe"/>
	</outline>
</glyph>
<glyph name="kadescender" format="2">
	<unicode hex="049B"/>
	<advance width="520"/>
	<outline>
		<contour>
			<point x="487" y="0" type="line"/>
			<point x="472" y="14" type="line"/>
			<point x="484" y="-144" type="line"/>
			<point x="503" y="-144" type="line"/>
			<point x="505" y="16" type="line"/>
			<point x="405" y="22" type="line"/>
			<point x="415" y="0" type="line"/>
		</contour>
		<component base="ka"/>
	</outline>
</glyph>
<glyph name="Kabashkir" format="2">
	<unicode hex="04A0"/>
	<advance width="745"/>
	<outline>
		<contour>
			<point x="671" y="-4" type="curve" smooth="yes"/>
			<point x="699" y="-4"/>
			<point x="719" y="-2"/>
			<point x="734" y="0" type="curve"/>
			<point x="734" y="16" type="line"/>
			<point x="615" y="22" type="line"/>
			<point x="633" y="15" type="line"/>
			<point x="540" y="228" type="line" smooth="yes"/>
			<point x="514" y="291"/>
			<point x="471" y="346"/>
			<point x="376" y="353" type="curve"/>
			<point x="364" y="340" type="line"/>
			<point x="442" y="350"/>
			<point x="470" y="366"/>
			<point x="537" y="513" type="curve" smooth="yes"/>
			<point x="566" y="578"/>
			<point x="587" y="613"/>
			<point x="626" y="659" type="curve"/>
			<point x="599" y="646" type="line"/>
			<point x="625" y="642"/>
			<point x="647" y="636"/>
			<point x="665" y="636" type="curve" smooth="yes"/>
			<point x="688" y="636"/>
			<point x="699" y="646"/>
			<point x="699" y="661" type="curve" smooth="yes"/>
			<point x="699" y="675"/>
			<point x="688" y="685"/>
			<point x="672" y="689" type="curve"/>
			<point x="610" y="687"/>
			<point x="580" y="652"/>
			<point x="519" y="520" type="curve" smooth="yes"/>
			<point x="453" y="378"/>
			<point x="431" y="357"/>
			<point x="355" y="357" type="curve" smooth="yes"/>
			<point x="272" y="357" type="line"/>
			<point x="272" y="338" type="line"/>
			<point x="350" y="338" type="line" smooth="yes"/>
			<point x="440" y="338"/>
			<point x="478" y="306"/>
			<point x="515" y="218" type="curve" smooth="yes"/>
			<point x="594" y="33" type="line" smooth="yes"/>
			<point x="606" y="3"/>
			<point x="620" y="-4"/>
		</contour>
		<contour>
			<point x="256" y="0" type="curve"/>
			<point x="288" y="0" type="line"/>
			<point x="286" y="98"/>
			<point x="286" y="209"/>
			<point x="286" y="338" type="curve" smooth="yes"/>
			<point x="286" y="356" type="line" smooth="yes"/>
			<point x="286" y="469"/>
			<point x="286" y="578"/>
			<point x="288" y="676" type="curve"/>
			<point x="256" y="676" type="line"/>
			<point x="258" y="578"/>
			<point x="258" y="469"/>
			<point x="258" y="365" type="curve" smooth="yes"/>
			<point x="258" y="314" type="line" smooth="yes"/>
			<point x="258" y="209"/>
			<point x="258" y="98"/>
		</contour>
		<contour>
			<point x="21" y="510" type="line"/>
			<point x="41" y="510" type="line"/>
			<point x="62" y="674" type="line"/>
			<point x="49" y="656" type="line"/>
			<point x="260" y="656" type="line"/>
			<point x="260" y="676" type="line"/>
			<point x="31" y="676" type="line"/>
		</contour>
		<contour>
			<point x="153" y="0" type="line"/>
			<point x="391" y="0" type="line"/>
			<point x="391" y="17" type="line"/>
			<point x="279" y="24" type="line"/>
			<point x="265" y="24" type="line"/>
			<point x="153" y="17" type="line"/>
		</contour>
		<contour>
			<point x="261" y="652" type="line"/>
			<point x="272" y="652" type="line"/>
			<point x="391" y="659" type="line"/>
			<point x="391" y="676" type="line"/>
			<point x="261" y="676" type="line"/>
		</contour>
	</outline>
</glyph>
<glyph name="endescender" format="2">
	<unicode hex="04A3"/>
	<advance width="610"/>
	<outline>
		<contour>
			<point x="553" y="0" type="line"/>
			<point x="538" y="14" type="line"/>
			<point x="550" y="-144" type="line"/>
			<point x="569" y="-144" type="line"/>
			<point x="571" y="17" type="line"/>
			<point x="467" y="24" type="line"/>
			<point x="467" y="0" type="line"/>
		</contour>
		<component base="en"/>
	</outline>
</glyph>
<glyph name="ustraight" format="2">
	<unicode hex="04AF"/>
	<advance width="488"/>
	<outline>
		<contour>
			<point x="237" y="-13" type="line"/>
			<point x="253" y="-13" type="line"/>
			<point x="426" y="464" type="line"/>
			<point x="403" y="464" type="line"/>
			<point x="241" y="9" type="line"/>
			<point x="256" y="9" type="line"/>
			<point x="91" y="464" type="line"/>
			<point x="59" y="464" type="line"/>
		</contour>
		<contour>
			<point x="-5" y="447" type="line"/>
			<point x="80" y="441" type="line"/>
			<point x="88" y="441" type="line"/>
			<point x="183" y="447" type="line"/>
			<point x="183" y="464" type="line"/>
			<point x="-5" y="464" type="line"/>
		</contour>
		<contour>
			<point x="134" y="-250" type="line"/>
			<point x="355" y="-250" type="line"/>
			<point x="355" y="-233" type="line"/>
			<point x="249" y="-227" type="line"/>
			<point x="241" y="-227" type="line"/>
			<point x="134" y="-233" type="line"/>
		</contour>
		<contour>
			<point x="308" y="447" type="line"/>
			<point x="401" y="441" type="line"/>
			<point x="409" y="441" type="line"/>
			<point x="485" y="447" type="line"/>
			<point x="485" y="464" type="line"/>
			<point x="308" y="464" type="line"/>
		</contour>
		<contour>
			<point x="228" y="-250" type="curve"/>
			<point x="261" y="-250" type="line"/>
			<point x="259" y="-206"/>
			<point x="258" y="-104"/>
			<point x="258" y="11" type="curve"/>
			<point x="231" y="11" type="line"/>
			<point x="231" y="-104"/>
			<point x="230" y="-206"/>
		</contour>
	</outline>
	<anchor name="aboveLC" x="245" y="484"/>
</glyph>
<glyph name="ustraightstroke" format="2">
	<unicode hex="04B1"/>
	<advance width="488"/>
	<outline>
		<contour>
			<point x="77" y="0" type="line"/>
			<point x="399" y="0" type="line"/>
			<point x="399" y="19" type="line"/>
			<point x="77" y="19" type="line"/>
		</contour>
		<component base="ustraight"/>
	</outline>
	<anchor name="aboveLC" x="245" y="484"/>
</glyph>
<glyph name="hadescender" format="2">
	<unicode hex="04B3"/>
	<advance width="487"/>
	<outline>
		<contour>
			<point x="468" y="0" type="line"/>
			<point x="453" y="14" type="line"/>
			<point x="465" y="-144" type="line"/>
			<point x="484" y="-144" type="line"/>
			<point x="486" y="17" type="line"/>
			<point x="389" y="24" type="line"/>
			<point x="389" y="0" type="line"/>
		</contour>
		<component base="ha"/>
	</outline>
</glyph>
<glyph name="chedescender" format="2">
	<unicode hex="04B7"/>
	<advance width="530"/>
	<outline>
		<contour>
			<point x="473" y="0" type="line"/>
			<point x="459" y="14" type="line"/>
			<point x="470" y="-144" type="line"/>
			<point x="489" y="-144" type="line"/>
			<point x="491" y="17" type="line"/>
			<point x="388" y="24" type="line"/>
			<point x="388" y="0" type="line"/>
		</contour>
		<component base="che"/>
	</outline>
</glyph>
<glyph name="palochka" format="2">
	<unicode hex="04CF"/>
	<advance width="293"/>
	<outline>
		<contour>
			<point x="39" y="0" type="line"/>
			<point x="255" y="0" type="line"/>
			<point x="255" y="17" type="line"/>
			<point x="152" y="22" type="line"/>
			<point x="141" y="22" type="line"/>
			<point x="39" y="17" type="line"/>
		</contour>
		<contour>
			<point x="131" y="0" type="curve"/>
			<point x="163" y="0" type="line"/>
			<point x="161" y="86"/>
			<point x="160" y="188"/>
			<point x="160" y="280" type="curve" smooth="yes"/>
			<point x="160" y="459" type="line" smooth="yes"/>
			<point x="160" y="551"/>
			<point x="161" y="654"/>
			<point x="163" y="739" type="curve"/>
			<point x="131" y="739" type="line"/>
			<point x="133" y="654"/>
			<point x="134" y="551"/>
			<point x="134" y="459" type="curve" smooth="yes"/>
			<point x="134" y="280" type="line" smooth="yes"/>
			<point x="134" y="188"/>
			<point x="133" y="86"/>
		</contour>
		<contour>
			<point x="39" y="722" type="line"/>
			<point x="141" y="717" type="line"/>
			<point x="152" y="717" type="line"/>
			<point x="255" y="722" type="line"/>
			<point x="255" y="739" type="line"/>
			<point x="39" y="739" type="line"/>
		</contour>
	</outline>
</glyph>
<glyph name="d.sups" format="2">
	<unicode hex="1D48"/>
	<advance width="374"/>
	<outline>
		<contour>
			<point x="163" y="428" type="curve" smooth="yes"/>
			<point x="203" y="428"/>
			<point x="245" y="447"/>
			<point x="275" y="493" type="curve"/>
			<point x="274" y="502" type="line"/>
			<point x="271" y="505" type="line"/>
			<point x="238" y="463"/>
			<point x="206" y="446"/>
			<point x="168" y="446" type="curve" smooth="yes"/>
			<point x="108" y="446"/>
			<point x="63" y="493"/>
			<point x="63" y="583" type="curve" smooth="yes"/>
			<point x="63" y="683"/>
			<point x="113" y="729"/>
			<point x="175" y="729" type="curve" smooth="yes"/>
			<point x="209" y="729"/>
			<point x="237" y="713"/>
			<point x="272" y="676" type="curve"/>
			<point x="278" y="686" type="line"/>
			<point x="275" y="686" type="line"/>
			<point x="246" y="731"/>
			<point x="208" y="748"/>
			<point x="173" y="748" type="curve" smooth="yes"/>
			<point x="95" y="748"/>
			<point x="36" y="686"/>
			<point x="36" y="583" type="curve" smooth="yes"/>
			<point x="36" y="489"/>
			<point x="88" y="428"/>
		</contour>
		<contour>
			<point x="269" y="433" type="line"/>
			<point x="354" y="437" type="line"/>
			<point x="354" y="450" type="line"/>
			<point x="291" y="455" type="line"/>
			<point x="291" y="911" type="line"/>
			<point x="284" y="917" type="line"/>
			<point x="210" y="904" type="line"/>
			<point x="210" y="890" type="line"/>
			<point x="266" y="888" type="line"/>
			<point x="266" y="689" type="line"/>
			<point x="266" y="687" type="line"/>
			<point x="266" y="492" type="line"/>
			<point x="266" y="491" type="line"/>
		</contour>
	</outline>
</glyph>
<glyph name="e.sups" format="2">
	<unicode hex="1D49"/>
	<advance width="320"/>
	<outline>
		<contour>
			<point x="175" y="428" type="curve" smooth="yes"/>
			<point x="219" y="428"/>
			<point x="260" y="448"/>
			<point x="285" y="485" type="curve"/>
			<point x="277" y="492" type="line"/>
			<point x="252" y="465"/>
			<point x="219" y="449"/>
			<point x="179" y="449" type="curve" smooth="yes"/>
			<point x="114" y="449"/>
			<point x="61" y="498"/>
			<point x="61" y="593" type="curve" smooth="yes"/>
			<point x="61" y="676"/>
			<point x="109" y="732"/>
			<point x="171" y="732" type="curve" smooth="yes"/>
			<point x="231" y="732"/>
			<point x="263" y="686"/>
			<point x="263" y="636" type="curve" smooth="yes"/>
			<point x="263" y="616"/>
			<point x="258" y="609"/>
			<point x="244" y="609" type="curve" smooth="yes"/>
			<point x="48" y="609" type="line"/>
			<point x="48" y="593" type="line"/>
			<point x="283" y="593" type="line"/>
			<point x="286" y="603"/>
			<point x="288" y="615"/>
			<point x="288" y="629" type="curve" smooth="yes"/>
			<point x="288" y="696"/>
			<point x="245" y="748"/>
			<point x="172" y="748" type="curve" smooth="yes"/>
			<point x="99" y="748"/>
			<point x="34" y="684"/>
			<point x="34" y="587" type="curve" smooth="yes"/>
			<point x="34" y="480"/>
			<point x="100" y="428"/>
		</contour>
	</outline>
</glyph>
<glyph name="m.sups" format="2">
	<unicode hex="1D50"/>
	<advance width="573"/>
	<outline>
		<contour>
			<point x="85" y="437" type="line"/>
			<point x="110" y="437" type="line"/>
			<point x="110" y="669" type="line"/>
			<point x="110" y="671" type="line"/>
			<point x="108" y="739" type="line"/>
			<point x="102" y="743" type="line"/>
			<point x="25" y="728" type="line"/>
			<point x="25" y="715" type="line"/>
			<point x="85" y="713" type="line"/>
		</contour>
		<contour>
			<point x="281" y="437" type="line"/>
			<point x="306" y="437" type="line"/>
			<point x="306" y="638" type="line" smooth="yes"/>
			<point x="306" y="719"/>
			<point x="277" y="748"/>
			<point x="229" y="748" type="curve" smooth="yes"/>
			<point x="188" y="748"/>
			<point x="148" y="724"/>
			<point x="104" y="673" type="curve"/>
			<point x="97" y="673" type="line"/>
			<point x="105" y="657" type="line"/>
			<point x="155" y="712"/>
			<point x="193" y="725"/>
			<point x="222" y="725" type="curve" smooth="yes"/>
			<point x="258" y="725"/>
			<point x="281" y="701"/>
			<point x="281" y="637" type="curve" smooth="yes"/>
		</contour>
		<contour>
			<point x="474" y="437" type="line"/>
			<point x="499" y="437" type="line"/>
			<point x="499" y="639" type="line" smooth="yes"/>
			<point x="499" y="719"/>
			<point x="470" y="748"/>
			<point x="420" y="748" type="curve" smooth="yes"/>
			<point x="379" y="748"/>
			<point x="339" y="725"/>
			<point x="297" y="675" type="curve"/>
			<point x="291" y="675" type="line"/>
			<point x="300" y="662" type="line"/>
			<point x="347" y="712"/>
			<point x="384" y="725"/>
			<point x="412" y="725" type="curve" smooth="yes"/>
			<point x="451" y="725"/>
			<point x="474" y="702"/>
			<point x="474" y="637" type="curve" smooth="yes"/>
		</contour>
		<contour>
			<point x="28" y="437" type="line"/>
			<point x="163" y="437" type="line"/>
			<point x="163" y="450" type="line"/>
			<point x="101" y="457" type="line"/>
			<point x="94" y="457" type="line"/>
			<point x="28" y="450" type="line"/>
		</contour>
		<contour>
			<point x="224" y="437" type="line"/>
			<point x="358" y="437" type="line"/>
			<point x="358" y="450" type="line"/>
			<point x="296" y="457" type="line"/>
			<point x="290" y="457" type="line"/>
			<point x="224" y="450" type="line"/>
		</contour>
		<contour>
			<point x="416" y="437" type="line"/>
			<point x="551" y="437" type="line"/>
			<point x="551" y="450" type="line"/>
			<point x="489" y="457" type="line"/>
			<point x="483" y="457" type="line"/>
			<point x="416" y="450" type="line"/>
		</contour>
	</outline>
</glyph>
<glyph name="o.sups" format="2">
	<unicode hex="1D52"/>
	<advance width="346"/>
	<outline>
		<contour>
			<point x="173" y="428" type="curve" smooth="yes"/>
			<point x="242" y="428"/>
			<point x="312" y="479"/>
			<point x="312" y="587" type="curve" smooth="yes"/>
			<point x="312" y="696"/>
			<point x="242" y="748"/>
			<point x="173" y="748" type="curve" smooth="yes"/>
			<point x="104" y="748"/>
			<point x="34" y="695"/>
			<point x="34" y="586" type="curve" smooth="yes"/>
			<point x="34" y="478"/>
			<point x="104" y="428"/>
		</contour>
		<contour>
			<point x="173" y="443" type="curve" smooth="yes"/>
			<point x="108" y="443"/>
			<point x="62" y="495"/>
			<point x="62" y="586" type="curve" smooth="yes"/>
			<point x="62" y="678"/>
			<point x="108" y="732"/>
			<point x="173" y="732" type="curve" smooth="yes"/>
			<point x="239" y="732"/>
			<point x="284" y="679"/>
			<point x="284" y="587" type="curve" smooth="yes"/>
			<point x="284" y="496"/>
			<point x="239" y="443"/>
		</contour>
	</outline>
</glyph>
<glyph name="t.sups" format="2">
	<unicode hex="1D57"/>
	<advance width="213"/>
	<outline>
		<contour>
			<point x="140" y="430" type="curve" smooth="yes"/>
			<point x="165" y="430"/>
			<point x="184" y="438"/>
			<point x="199" y="453" type="curve"/>
			<point x="193" y="463" type="line"/>
			<point x="177" y="453"/>
			<point x="165" y="448"/>
			<point x="145" y="448" type="curve" smooth="yes"/>
			<point x="115" y="448"/>
			<point x="101" y="465"/>
			<point x="101" y="506" type="curve" smooth="yes"/>
			<point x="101" y="723" type="line"/>
			<point x="101" y="724" type="line"/>
			<point x="104" y="834" type="line"/>
			<point x="87" y="834" type="line"/>
			<point x="75" y="729" type="line"/>
			<point x="90" y="739" type="line"/>
			<point x="13" y="734" type="line"/>
			<point x="13" y="719" type="line"/>
			<point x="76" y="719" type="line"/>
			<point x="76" y="505" type="line" smooth="yes"/>
			<point x="76" y="455"/>
			<point x="95" y="430"/>
		</contour>
		<contour>
			<point x="88" y="719" type="line"/>
			<point x="195" y="719" type="line"/>
			<point x="195" y="737" type="line"/>
			<point x="88" y="737" type="line"/>
		</contour>
	</outline>
</glyph>
<glyph name="u.sups" format="2">
	<unicode hex="1D58"/>
	<advance width="380"/>
	<outline>
		<contour>
			<point x="163" y="428" type="curve" smooth="yes"/>
			<point x="210" y="428"/>
			<point x="247" y="453"/>
			<point x="281" y="497" type="curve"/>
			<point x="290" y="497" type="line"/>
			<point x="282" y="515" type="line"/>
			<point x="245" y="470"/>
			<point x="208" y="450"/>
			<point x="170" y="450" type="curve" smooth="yes"/>
			<point x="126" y="450"/>
			<point x="101" y="475"/>
			<point x="101" y="546" type="curve" smooth="yes"/>
			<point x="101" y="734" type="line"/>
			<point x="95" y="741" type="line"/>
			<point x="21" y="734" type="line"/>
			<point x="21" y="721" type="line"/>
			<point x="75" y="716" type="line"/>
			<point x="75" y="543" type="line" smooth="yes"/>
			<point x="75" y="457"/>
			<point x="106" y="428"/>
		</contour>
		<contour>
			<point x="280" y="433" type="line"/>
			<point x="356" y="437" type="line"/>
			<point x="356" y="450" type="line"/>
			<point x="305" y="456" type="line"/>
			<point x="305" y="734" type="line"/>
			<point x="299" y="741" type="line"/>
			<point x="224" y="734" type="line"/>
			<point x="224" y="721" type="line"/>
			<point x="280" y="716" type="line"/>
			<point x="280" y="499" type="line"/>
			<point x="280" y="498" type="line"/>
		</contour>
	</outline>
</glyph>
<glyph name="f.sups" format="2">
	<unicode hex="1DA0"/>
	<advance width="229"/>
	<outline>
		<contour>
			<point x="86" y="437" type="line"/>
			<point x="111" y="437" type="line"/>
			<point x="111" y="726" type="line"/>
			<point x="110" y="825"/>
			<point x="127" y="864"/>
			<point x="154" y="890" type="curve" smooth="yes"/>
			<point x="170" y="906"/>
			<point x="189" y="916"/>
			<point x="212" y="916" type="curve"/>
			<point x="210" y="923" type="line"/>
			<point x="179" y="916" type="line"/>
			<point x="203" y="903" type="line" smooth="yes"/>
			<point x="219" y="894"/>
			<point x="229" y="892"/>
			<point x="239" y="892" type="curve" smooth="yes"/>
			<point x="253" y="892"/>
			<point x="262" y="899"/>
			<point x="263" y="909" type="curve"/>
			<point x="257" y="921"/>
			<point x="238" y="928"/>
			<point x="217" y="928" type="curve" smooth="yes"/>
			<point x="191" y="928"/>
			<point x="162" y="919"/>
			<point x="140" y="898" type="curve" smooth="yes"/>
			<point x="101" y="860"/>
			<point x="87" y="820"/>
			<point x="85" y="733" type="curve"/>
			<point x="96" y="739" type="line"/>
			<point x="24" y="734" type="line"/>
			<point x="24" y="719" type="line"/>
			<point x="86" y="719" type="line"/>
		</contour>
		<contour>
			<point x="24" y="437" type="line"/>
			<point x="177" y="437" type="line"/>
			<point x="177" y="450" type="line"/>
			<point x="101" y="457" type="line"/>
			<point x="94" y="457" type="line"/>
			<point x="24" y="450" type="line"/>
		</contour>
		<contour>
			<point x="98" y="719" type="line"/>
			<point x="210" y="719" type="line"/>
			<point x="210" y="737" type="line"/>
			<point x="98" y="737" type="line"/>
		</contour>
	</outline>
</glyph>
<glyph name="Germandbls" format="2">
	<unicode hex="1E9E"/>
	<advance width="679"/>
	<outline>
		<contour>
			<point x="55" y="0" type="line"/>
			<point x="175" y="0" type="line"/>
			<point x="176" y="24" type="line"/>
			<point x="170" y="24" type="line"/>
			<point x="55" y="17" type="line"/>
		</contour>
		<contour>
			<point x="158" y="0" type="curve"/>
			<point x="191" y="0" type="line"/>
			<point x="189" y="102"/>
			<point x="189" y="217"/>
			<point x="189" y="331" type="curve" smooth="yes"/>
			<point x="189" y="448" type="line" smooth="yes"/>
			<point x="189" y="612"/>
			<point x="259" y="669"/>
			<point x="397" y="669" type="curve" smooth="yes"/>
			<point x="466" y="669"/>
			<point x="517" y="656"/>
			<point x="562" y="628" type="curve"/>
			<point x="562" y="637" type="line"/>
			<point x="487" y="595"/>
			<point x="442" y="543"/>
			<point x="442" y="466" type="curve" smooth="yes"/>
			<point x="442" y="408"/>
			<point x="470" y="364"/>
			<point x="514" y="314" type="curve" smooth="yes"/>
			<point x="541" y="284" type="line" smooth="yes"/>
			<point x="585" y="233"/>
			<point x="618" y="202"/>
			<point x="618" y="143" type="curve" smooth="yes"/>
			<point x="618" y="69"/>
			<point x="568" y="7"/>
			<point x="479" y="7" type="curve" smooth="yes"/>
			<point x="423" y="7"/>
			<point x="392" y="18"/>
			<point x="352" y="52" type="curve"/>
			<point x="370" y="27" type="line"/>
			<point x="360" y="171" type="line"/>
			<point x="343" y="171" type="line"/>
			<point x="339" y="33" type="line"/>
			<point x="373" y="4"/>
			<point x="416" y="-13"/>
			<point x="478" y="-13" type="curve" smooth="yes"/>
			<point x="584" y="-13"/>
			<point x="645" y="59"/>
			<point x="645" y="143" type="curve" smooth="yes"/>
			<point x="645" y="218"/>
			<point x="607" y="251"/>
			<point x="560" y="307" type="curve" smooth="yes"/>
			<point x="531" y="340" type="line" smooth="yes"/>
			<point x="496" y="381"/>
			<point x="469" y="421"/>
			<point x="469" y="472" type="curve" smooth="yes"/>
			<point x="469" y="534"/>
			<point x="499" y="583"/>
			<point x="571" y="627" type="curve"/>
			<point x="571" y="639" type="line"/>
			<point x="529" y="670"/>
			<point x="469" y="689"/>
			<point x="398" y="689" type="curve" smooth="yes"/>
			<point x="246" y="689"/>
			<point x="160" y="618"/>
			<point x="160" y="448" type="curve" smooth="yes"/>
			<point x="160" y="331" type="line" smooth="yes"/>
			<point x="160" y="217"/>
			<point x="160" y="102"/>
		</contour>
	</outline>
</glyph>
<glyph name="figuredash" format="2">
	<unicode hex="2012"/>
	<advance width="482"/>
	<outline>
		<contour>
			<point x="39" y="296" type="line"/>
			<point x="443" y="296" type="line"/>
			<point x="443" y="320" type="line"/>
			<point x="39" y="320" type="line"/>
		</contour>
	</outline>
</glyph>
<glyph name="triangularbullet" format="2">
	<unicode hex="2023"/>
	<advance width="300"/>
	<outline>
		<contour>
			<point x="91" y="393" type="line"/>
			<point x="84" y="389" type="line"/>
			<point x="84" y="245" type="line"/>
			<point x="91" y="241" type="line"/>
			<point x="216" y="313" type="line"/>
			<point x="216" y="321" type="line"/>
		</contour>
	</outline>
</glyph>
<glyph name="guilsinglleft" format="2">
	<unicode hex="2039"/>
	<advance width="280"/>
	<outline>
		<contour>
			<point x="238" y="47" type="line"/>
			<point x="249" y="58" type="line"/>
			<point x="48" y="258" type="line"/>
			<point x="48" y="239" type="line"/>
			<point x="249" y="437" type="line"/>
			<point x="238" y="449" type="line"/>
			<point x="21" y="254" type="line"/>
			<point x="21" y="241" type="line"/>
		</contour>
	</outline>
</glyph>
<glyph name="four.sups" format="2">
	<unicode hex="2074"/>
	<advance width="331"/>
	<outline>
		<contour>
			<point x="210" y="437" type="line"/>
			<point x="237" y="437" type="line"/>
			<point x="237" y="839" type="line"/>
			<point x="219" y="839" type="line"/>
			<point x="27" y="584" type="line"/>
			<point x="27" y="565" type="line"/>
			<point x="312" y="565" type="line"/>
			<point x="312" y="588" type="line"/>
			<point x="45" y="588" type="line"/>
			<point x="45" y="595" type="line"/>
			<point x="41" y="579" type="line"/>
			<point x="224" y="821" type="line"/>
			<point x="206" y="809" type="line"/>
			<point x="210" y="809" type="line"/>
			<point x="210" y="582" type="line"/>
			<point x="210" y="574" type="line"/>
		</contour>
	</outline>
</glyph>
<glyph name="five.sups" format="2">
	<unicode hex="2075"/>
	<advance width="331"/>
	<outline>
		<contour>
			<point x="151" y="428" type="curve" smooth="yes"/>
			<point x="236" y="428"/>
			<point x="293" y="482"/>
			<point x="293" y="559" type="curve" smooth="yes"/>
			<point x="293" y="636"/>
			<point x="240" y="682"/>
			<point x="160" y="682" type="curve" smooth="yes"/>
			<point x="129" y="682"/>
			<point x="101" y="676"/>
			<point x="73" y="662" type="curve"/>
			<point x="73" y="656" type="line"/>
			<point x="85" y="656" type="line"/>
			<point x="97" y="820" type="line"/>
			<point x="89" y="806" type="line"/>
			<point x="282" y="806" type="line"/>
			<point x="282" y="834" type="line"/>
			<point x="81" y="834" type="line"/>
			<point x="68" y="650" type="line"/>
			<point x="79" y="648" type="line"/>
			<point x="102" y="658"/>
			<point x="126" y="662"/>
			<point x="156" y="662" type="curve" smooth="yes"/>
			<point x="220" y="662"/>
			<point x="264" y="626"/>
			<point x="264" y="555" type="curve" smooth="yes"/>
			<point x="264" y="487"/>
			<point x="222" y="444"/>
			<point x="148" y="444" type="curve" smooth="yes"/>
			<point x="117" y="444"/>
			<point x="96" y="450"/>
			<point x="73" y="465" type="curve"/>
			<point x="92" y="447" type="line"/>
			<point x="73" y="496" type="line" smooth="yes"/>
			<point x="67" y="511"/>
			<point x="63" y="517"/>
			<point x="53" y="517" type="curve" smooth="yes"/>
			<point x="45" y="517"/>
			<point x="38" y="513"/>
			<point x="36" y="504" type="curve"/>
			<point x="50" y="454"/>
			<point x="92" y="428"/>
		</contour>
	</outline>
</glyph>
<glyph name="six.sups" format="2">
	<unicode hex="2076"/>
	<advance width="331"/>
	<outline>
		<contour>
			<point x="173" y="428" type="curve" smooth="yes"/>
			<point x="242" y="428"/>
			<point x="297" y="480"/>
			<point x="297" y="557" type="curve" smooth="yes"/>
			<point x="297" y="631"/>
			<point x="251" y="678"/>
			<point x="182" y="678" type="curve" smooth="yes"/>
			<point x="134" y="678"/>
			<point x="95" y="655"/>
			<point x="62" y="609" type="curve"/>
			<point x="58" y="609" type="line"/>
			<point x="68" y="604" type="line"/>
			<point x="103" y="642"/>
			<point x="138" y="657"/>
			<point x="176" y="657" type="curve" smooth="yes"/>
			<point x="231" y="657"/>
			<point x="268" y="622"/>
			<point x="268" y="553" type="curve" smooth="yes"/>
			<point x="268" y="487"/>
			<point x="226" y="444"/>
			<point x="174" y="444" type="curve" smooth="yes"/>
			<point x="110" y="444"/>
			<point x="73" y="503"/>
			<point x="73" y="603" type="curve" smooth="yes"/>
			<point x="73" y="709"/>
			<point x="149" y="802"/>
			<point x="289" y="830" type="curve"/>
			<point x="286" y="842" type="line"/>
			<point x="135" y="823"/>
			<point x="44" y="713"/>
			<point x="44" y="591" type="curve" smooth="yes"/>
			<point x="44" y="492"/>
			<point x="92" y="428"/>
		</contour>
	</outline>
</glyph>
<glyph name="eight.sups" format="2">
	<unicode hex="2078"/>
	<advance width="331"/>
	<outline>
		<contour>
			<point x="168" y="428" type="curve" smooth="yes"/>
			<point x="244" y="428"/>
			<point x="294" y="470"/>
			<point x="294" y="528" type="curve" smooth="yes"/>
			<point x="294" y="582"/>
			<point x="261" y="616"/>
			<point x="178" y="650" type="curve" smooth="yes"/>
			<point x="109" y="680"/>
			<point x="84" y="711"/>
			<point x="84" y="750" type="curve" smooth="yes"/>
			<point x="84" y="797"/>
			<point x="124" y="826"/>
			<point x="169" y="826" type="curve" smooth="yes"/>
			<point x="221" y="826"/>
			<point x="251" y="791"/>
			<point x="251" y="748" type="curve" smooth="yes"/>
			<point x="251" y="704"/>
			<point x="225" y="676"/>
			<point x="164" y="646" type="curve"/>
			<point x="176" y="637" type="line"/>
			<point x="176" y="641" type="line"/>
			<point x="250" y="671"/>
			<point x="276" y="711"/>
			<point x="276" y="748" type="curve" smooth="yes"/>
			<point x="276" y="805"/>
			<point x="233" y="842"/>
			<point x="169" y="842" type="curve" smooth="yes"/>
			<point x="107" y="842"/>
			<point x="58" y="804"/>
			<point x="58" y="745" type="curve" smooth="yes"/>
			<point x="58" y="698"/>
			<point x="87" y="661"/>
			<point x="156" y="632" type="curve" smooth="yes"/>
			<point x="237" y="597"/>
			<point x="268" y="567"/>
			<point x="268" y="527" type="curve" smooth="yes"/>
			<point x="268" y="478"/>
			<point x="230" y="444"/>
			<point x="169" y="444" type="curve" smooth="yes"/>
			<point x="107" y="444"/>
			<point x="71" y="478"/>
			<point x="71" y="528" type="curve" smooth="yes"/>
			<point x="71" y="574"/>
			<point x="101" y="603"/>
			<point x="168" y="635" type="curve"/>
			<point x="154" y="645" type="line"/>
			<point x="154" y="640" type="line"/>
			<point x="83" y="610"/>
			<point x="44" y="576"/>
			<point x="44" y="525" type="curve" smooth="yes"/>
			<point x="44" y="467"/>
			<point x="89" y="428"/>
		</contour>
	</outline>
</glyph>
<glyph name="nine.sups" format="2">
	<unicode hex="2079"/>
	<advance width="331"/>
	<outline>
		<contour>
			<point x="70" y="428" type="line"/>
			<point x="219" y="468"/>
			<point x="294" y="567"/>
			<point x="294" y="681" type="curve" smooth="yes"/>
			<point x="294" y="781"/>
			<point x="243" y="842"/>
			<point x="167" y="842" type="curve" smooth="yes"/>
			<point x="98" y="842"/>
			<point x="42" y="792"/>
			<point x="42" y="720" type="curve" smooth="yes"/>
			<point x="42" y="644"/>
			<point x="95" y="597"/>
			<point x="166" y="597" type="curve" smooth="yes"/>
			<point x="215" y="597"/>
			<point x="256" y="621"/>
			<point x="278" y="664" type="curve"/>
			<point x="284" y="664" type="line"/>
			<point x="274" y="671" type="line"/>
			<point x="249" y="636"/>
			<point x="212" y="617"/>
			<point x="174" y="617" type="curve" smooth="yes"/>
			<point x="115" y="617"/>
			<point x="71" y="655"/>
			<point x="71" y="721" type="curve" smooth="yes"/>
			<point x="71" y="787"/>
			<point x="115" y="826"/>
			<point x="167" y="826" type="curve" smooth="yes"/>
			<point x="223" y="826"/>
			<point x="265" y="772"/>
			<point x="265" y="677" type="curve" smooth="yes"/>
			<point x="265" y="570"/>
			<point x="200" y="486"/>
			<point x="66" y="441" type="curve"/>
		</contour>
	</outline>
</glyph>
<glyph name="parenright.sups" format="2">
	<unicode hex="207E"/>
	<advance width="228"/>
	<outline>
		<contour>
			<point x="131" y="606" type="curve" smooth="yes"/>
			<point x="131" y="499"/>
			<point x="103" y="421"/>
			<point x="29" y="317" type="curve"/>
			<point x="38" y="310" type="line"/>
			<point x="120" y="400"/>
			<point x="158" y="496"/>
			<point x="158" y="606" type="curve" smooth="yes"/>
			<point x="158" y="716"/>
			<point x="120" y="812"/>
			<point x="38" y="902" type="curve"/>
			<point x="29" y="895" type="line"/>
			<point x="103" y="792"/>
			<point x="131" y="713"/>
		</contour>
	</outline>
</glyph>
<glyph name="lira" format="2">
	<unicode hex="20A4"/>
	<advance width="482"/>
	<outline>
		<contour>
			<point x="40" y="0" type="line"/>
			<point x="444" y="0" type="line"/>
			<point x="444" y="25" type="line"/>
			<point x="60" y="25" type="line"/>
			<point x="64" y="20" type="line"/>
			<point x="139" y="77"/>
			<point x="177" y="154"/>
			<point x="177" y="256" type="curve" smooth="yes"/>
			<point x="177" y="344"/>
			<point x="127" y="406"/>
			<point x="127" y="507" type="curve" smooth="yes"/>
			<point x="127" y="588"/>
			<point x="174" y="649"/>
			<point x="264" y="649" type="curve" smooth="yes"/>
			<point x="310" y="649"/>
			<point x="338" y="637"/>
			<point x="382" y="601" type="curve"/>
			<point x="353" y="633" type="line"/>
			<point x="388" y="553" type="line" smooth="yes"/>
			<point x="394" y="540"/>
			<point x="401" y="533"/>
			<point x="412" y="533" type="curve" smooth="yes"/>
			<point x="422" y="533"/>
			<point x="429" y="539"/>
			<point x="432" y="549" type="curve"/>
			<point x="402" y="621"/>
			<point x="345" y="667"/>
			<point x="263" y="667" type="curve" smooth="yes"/>
			<point x="162" y="667"/>
			<point x="96" y="604"/>
			<point x="96" y="505" type="curve" smooth="yes"/>
			<point x="96" y="399"/>
			<point x="156" y="336"/>
			<point x="156" y="250" type="curve" smooth="yes"/>
			<point x="156" y="146"/>
			<point x="121" y="85"/>
			<point x="40" y="20" type="curve"/>
		</contour>
		<contour>
			<point x="38" y="241" type="line"/>
			<point x="388" y="241" type="line"/>
			<point x="388" y="261" type="line"/>
			<point x="38" y="261" type="line"/>
		</contour>
		<contour>
			<point x="38" y="358" type="line"/>
			<point x="388" y="358" type="line"/>
			<point x="388" y="379" type="line"/>
			<point x="38" y="379" type="line"/>
		</contour>
	</outline>
</glyph>
<glyph name="naira" format="2">
	<unicode hex="20A6"/>
	<advance width="482"/>
	<outline>
		<contour>
			<point x="202" y="0" type="line"/>
			<point x="202" y="16" type="line"/>
			<point x="111" y="23" type="line"/>
			<point x="111" y="589" type="line"/>
			<point x="112" y="589" type="line"/>
			<point x="247" y="273" type="line"/>
			<point x="370" y="-5" type="line"/>
			<point x="391" y="-5" type="line"/>
			<point x="391" y="631" type="line"/>
			<point x="475" y="638" type="line"/>
			<point x="475" y="655" type="line"/>
			<point x="282" y="655" type="line"/>
			<point x="282" y="638" type="line"/>
			<point x="372" y="631" type="line"/>
			<point x="372" y="46" type="line"/>
			<point x="371" y="46" type="line"/>
			<point x="226" y="384" type="line"/>
			<point x="110" y="655" type="line"/>
			<point x="13" y="655" type="line"/>
			<point x="13" y="638" type="line"/>
			<point x="92" y="633" type="line"/>
			<point x="92" y="23" type="line"/>
			<point x="6" y="16" type="line"/>
			<point x="6" y="0" type="line"/>
		</contour>
		<contour>
			<point x="11" y="259" type="line"/>
			<point x="263" y="259" type="line"/>
			<point x="270" y="263" type="line"/>
			<point x="380" y="263" type="line"/>
			<point x="387" y="259" type="line"/>
			<point x="472" y="259" type="line"/>
			<point x="472" y="280" type="line"/>
			<point x="11" y="280" type="line"/>
		</contour>
		<contour>
			<point x="11" y="377" type="line"/>
			<point x="472" y="377" type="line"/>
			<point x="472" y="397" type="line"/>
			<point x="213" y="397" type="line"/>
			<point x="205" y="394" type="line"/>
			<point x="104" y="394" type="line"/>
			<point x="99" y="397" type="line"/>
			<point x="11" y="397" type="line"/>
		</contour>
	</outline>
</glyph>
<glyph name="guarani" format="2">
	<unicode hex="20B2"/>
	<advance width="482"/>
	<outline>
		<contour>
			<point x="270" y="-13" type="curve" smooth="yes"/>
			<point x="317" y="-13"/>
			<point x="355" y="-1"/>
			<point x="398" y="30" type="curve"/>
			<point x="398" y="95" type="line" smooth="yes"/>
			<point x="398" y="180"/>
			<point x="399" y="244"/>
			<point x="401" y="308" type="curve"/>
			<point x="367" y="308" type="line"/>
			<point x="369" y="237"/>
			<point x="370" y="165"/>
			<point x="370" y="95" type="curve" smooth="yes"/>
			<point x="370" y="30" type="line"/>
			<point x="381" y="46" type="line"/>
			<point x="350" y="18"/>
			<point x="311" y="6"/>
			<point x="274" y="6" type="curve" smooth="yes"/>
			<point x="150" y="6"/>
			<point x="70" y="133"/>
			<point x="70" y="325" type="curve" smooth="yes"/>
			<point x="70" y="516"/>
			<point x="152" y="649"/>
			<point x="280" y="649" type="curve" smooth="yes"/>
			<point x="326" y="649"/>
			<point x="355" y="636"/>
			<point x="388" y="607" type="curve"/>
			<point x="387" y="631" type="line"/>
			<point x="368" y="632" type="line"/>
			<point x="387" y="480" type="line"/>
			<point x="406" y="480" type="line"/>
			<point x="402" y="626" type="line"/>
			<point x="362" y="656"/>
			<point x="330" y="667"/>
			<point x="278" y="667" type="curve" smooth="yes"/>
			<point x="136" y="667"/>
			<point x="39" y="527"/>
			<point x="39" y="325" type="curve" smooth="yes"/>
			<point x="39" y="124"/>
			<point x="120" y="-13"/>
		</contour>
		<contour>
			<point x="266" y="292" type="line"/>
			<point x="378" y="285" type="line"/>
			<point x="391" y="285" type="line"/>
			<point x="471" y="292" type="line"/>
			<point x="471" y="308" type="line"/>
			<point x="266" y="308" type="line"/>
		</contour>
		<contour>
			<point x="262" y="-115" type="line"/>
			<point x="282" y="-115" type="line"/>
			<point x="282" y="-1" type="line"/>
			<point x="262" y="-1" type="line"/>
		</contour>
		<contour>
			<point x="262" y="657" type="line"/>
			<point x="282" y="657" type="line"/>
			<point x="282" y="761" type="line"/>
			<point x="262" y="761" type="line"/>
		</contour>
	</outline>
</glyph>
<glyph name="hryvnia" format="2">
	<unicode hex="20B4"/>
	<advance width="482"/>
	<outline>
		<contour>
			<point x="237" y="-13" type="curve" smooth="yes"/>
			<point x="337" y="-13"/>
			<point x="403" y="35"/>
			<point x="427" y="114" type="curve"/>
			<point x="426" y="127"/>
			<point x="419" y="135"/>
			<point x="406" y="135" type="curve" smooth="yes"/>
			<point x="395" y="135"/>
			<point x="385" y="131"/>
			<point x="380" y="115" type="curve" smooth="yes"/>
			<point x="354" y="28" type="line"/>
			<point x="385" y="63" type="line"/>
			<point x="340" y="19"/>
			<point x="298" y="5"/>
			<point x="237" y="5" type="curve" smooth="yes"/>
			<point x="149" y="5"/>
			<point x="92" y="48"/>
			<point x="92" y="134" type="curve" smooth="yes"/>
			<point x="92" y="181"/>
			<point x="115" y="226"/>
			<point x="172" y="270" type="curve"/>
			<point x="142" y="270" type="line"/>
			<point x="90" y="229"/>
			<point x="68" y="180"/>
			<point x="68" y="131" type="curve" smooth="yes"/>
			<point x="68" y="30"/>
			<point x="142" y="-13"/>
		</contour>
		<contour>
			<point x="295" y="381" type="curve"/>
			<point x="326" y="381" type="line"/>
			<point x="388" y="432"/>
			<point x="403" y="480"/>
			<point x="403" y="527" type="curve" smooth="yes"/>
			<point x="403" y="626"/>
			<point x="337" y="667"/>
			<point x="244" y="667" type="curve" smooth="yes"/>
			<point x="165" y="667"/>
			<point x="98" y="621"/>
			<point x="72" y="534" type="curve"/>
			<point x="73" y="520"/>
			<point x="80" y="513"/>
			<point x="93" y="513" type="curve" smooth="yes"/>
			<point x="103" y="513"/>
			<point x="114" y="517"/>
			<point x="119" y="532" type="curve" smooth="yes"/>
			<point x="148" y="629" type="line"/>
			<point x="112" y="586" type="line"/>
			<point x="156" y="634"/>
			<point x="187" y="649"/>
			<point x="244" y="649" type="curve" smooth="yes"/>
			<point x="325" y="649"/>
			<point x="379" y="609"/>
			<point x="379" y="527" type="curve" smooth="yes"/>
			<point x="379" y="474"/>
			<point x="360" y="433"/>
		</contour>
		<contour>
			<point x="46" y="256" type="line"/>
			<point x="436" y="256" type="line"/>
			<point x="436" y="277" type="line"/>
			<point x="46" y="277" type="line"/>
		</contour>
		<contour>
			<point x="46" y="374" type="line"/>
			<point x="436" y="374" type="line"/>
			<point x="436" y="394" type="line"/>
			<point x="46" y="394" type="line"/>
		</contour>
		<contour>
			<point x="142" y="272" type="line"/>
			<point x="178" y="272" type="line"/>
			<point x="325" y="379" type="line"/>
			<point x="289" y="379" type="line"/>
		</contour>
	</outline>
</glyph>
<glyph name="tenge" format="2">
	<unicode hex="20B8"/>
	<advance width="482"/>
	<outline>
		<contour>
			<point x="8" y="390" type="line"/>
			<point x="28" y="390" type="line"/>
			<point x="48" y="549" type="line"/>
			<point x="35" y="532" type="line"/>
			<point x="447" y="532" type="line"/>
			<point x="433" y="549" type="line"/>
			<point x="453" y="390" type="line"/>
			<point x="473" y="390" type="line"/>
			<point x="463" y="551" type="line"/>
			<point x="19" y="551" type="line"/>
		</contour>
		<contour>
			<point x="225" y="0" type="curve"/>
			<point x="256" y="0" type="line"/>
			<point x="254" y="79"/>
			<point x="254" y="169"/>
			<point x="254" y="253" type="curve" smooth="yes"/>
			<point x="254" y="300" type="line" smooth="yes"/>
			<point x="254" y="383"/>
			<point x="254" y="472"/>
			<point x="256" y="551" type="curve"/>
			<point x="225" y="551" type="line"/>
			<point x="227" y="472"/>
			<point x="227" y="383"/>
			<point x="227" y="300" type="curve" smooth="yes"/>
			<point x="227" y="253" type="line" smooth="yes"/>
			<point x="227" y="169"/>
			<point x="227" y="79"/>
		</contour>
		<contour>
			<point x="114" y="0" type="line"/>
			<point x="367" y="0" type="line"/>
			<point x="367" y="16" type="line"/>
			<point x="248" y="23" type="line"/>
			<point x="234" y="23" type="line"/>
			<point x="114" y="16" type="line"/>
		</contour>
		<contour>
			<point x="18" y="639" type="line"/>
			<point x="464" y="639" type="line"/>
			<point x="464" y="659" type="line"/>
			<point x="18" y="659" type="line"/>
		</contour>
	</outline>
</glyph>
<glyph name="ruble" format="2">
	<unicode hex="20BD"/>
	<advance width="482"/>
	<outline>
		<contour>
			<point x="23" y="286" type="line"/>
			<point x="218" y="286" type="line" smooth="yes"/>
			<point x="381" y="286"/>
			<point x="464" y="363"/>
			<point x="464" y="474" type="curve" smooth="yes"/>
			<point x="464" y="584"/>
			<point x="385" y="655"/>
			<point x="246" y="655" type="curve" smooth="yes"/>
			<point x="146" y="655" type="line"/>
			<point x="146" y="636" type="line"/>
			<point x="236" y="636" type="line" smooth="yes"/>
			<point x="379" y="636"/>
			<point x="436" y="569"/>
			<point x="436" y="474" type="curve" smooth="yes"/>
			<point x="436" y="375"/>
			<point x="373" y="307"/>
			<point x="219" y="307" type="curve" smooth="yes"/>
			<point x="23" y="307" type="line"/>
		</contour>
		<contour>
			<point x="130" y="0" type="curve"/>
			<point x="162" y="0" type="line"/>
			<point x="160" y="97"/>
			<point x="160" y="206"/>
			<point x="160" y="302" type="curve" smooth="yes"/>
			<point x="160" y="353" type="line" smooth="yes"/>
			<point x="160" y="454"/>
			<point x="160" y="561"/>
			<point x="162" y="655" type="curve"/>
			<point x="130" y="655" type="line"/>
			<point x="132" y="561"/>
			<point x="132" y="454"/>
			<point x="132" y="353" type="curve" smooth="yes"/>
			<point x="132" y="303" type="line" smooth="yes"/>
			<point x="132" y="201"/>
			<point x="132" y="94"/>
		</contour>
		<contour>
			<point x="31" y="0" type="line"/>
			<point x="273" y="0" type="line"/>
			<point x="273" y="16" type="line"/>
			<point x="153" y="23" type="line"/>
			<point x="140" y="23" type="line"/>
			<point x="31" y="16" type="line"/>
		</contour>
		<contour>
			<point x="31" y="638" type="line"/>
			<point x="140" y="631" type="line"/>
			<point x="146" y="631" type="line"/>
			<point x="146" y="655" type="line"/>
			<point x="31" y="655" type="line"/>
		</contour>
		<contour>
			<point x="23" y="167" type="line"/>
			<point x="373" y="167" type="line"/>
			<point x="373" y="187" type="line"/>
			<point x="23" y="187" type="line"/>
		</contour>
	</outline>
</glyph>
<glyph name="bitcoin" format="2">
	<unicode hex="20BF"/>
	<advance width="482"/>
	<outline>
		<contour>
			<point x="137" y="0" type="line"/>
			<point x="232" y="0" type="line" smooth="yes"/>
			<point x="396" y="0"/>
			<point x="461" y="74"/>
			<point x="461" y="173" type="curve" smooth="yes"/>
			<point x="461" y="270"/>
			<point x="396" y="343"/>
			<point x="241" y="345" type="curve"/>
			<point x="232" y="338" type="line"/>
			<point x="367" y="349"/>
			<point x="427" y="422"/>
			<point x="427" y="504" type="curve" smooth="yes"/>
			<point x="427" y="594"/>
			<point x="365" y="655"/>
			<point x="225" y="655" type="curve" smooth="yes"/>
			<point x="137" y="655" type="line"/>
			<point x="137" y="636" type="line"/>
			<point x="214" y="636" type="line" smooth="yes"/>
			<point x="352" y="636"/>
			<point x="399" y="580"/>
			<point x="399" y="506" type="curve" smooth="yes"/>
			<point x="399" y="413"/>
			<point x="328" y="350"/>
			<point x="199" y="350" type="curve" smooth="yes"/>
			<point x="137" y="350" type="line"/>
			<point x="137" y="332" type="line"/>
			<point x="212" y="332" type="line" smooth="yes"/>
			<point x="366" y="332"/>
			<point x="432" y="274"/>
			<point x="432" y="174" type="curve" smooth="yes"/>
			<point x="432" y="75"/>
			<point x="361" y="19"/>
			<point x="241" y="19" type="curve" smooth="yes"/>
			<point x="137" y="19" type="line"/>
		</contour>
		<contour>
			<point x="122" y="0" type="curve"/>
			<point x="154" y="0" type="line"/>
			<point x="152" y="94"/>
			<point x="152" y="202"/>
			<point x="152" y="331" type="curve" smooth="yes"/>
			<point x="152" y="346" type="line" smooth="yes"/>
			<point x="152" y="454"/>
			<point x="152" y="561"/>
			<point x="154" y="655" type="curve"/>
			<point x="122" y="655" type="line"/>
			<point x="124" y="561"/>
			<point x="124" y="454"/>
			<point x="124" y="353" type="curve" smooth="yes"/>
			<point x="124" y="304" type="line" smooth="yes"/>
			<point x="124" y="202"/>
			<point x="124" y="94"/>
		</contour>
		<contour>
			<point x="22" y="638" type="line"/>
			<point x="131" y="631" type="line"/>
			<point x="139" y="631" type="line"/>
			<point x="139" y="655" type="line"/>
			<point x="22" y="655" type="line"/>
		</contour>
		<contour>
			<point x="22" y="0" type="line"/>
			<point x="139" y="0" type="line"/>
			<point x="139" y="23" type="line"/>
			<point x="131" y="23" type="line"/>
			<point x="22" y="16" type="line"/>
		</contour>
		<contour>
			<point x="143" y="-115" type="line"/>
			<point x="163" y="-115" type="line"/>
			<point x="163" y="12" type="line"/>
			<point x="143" y="12" type="line"/>
		</contour>
		<contour>
			<point x="144" y="644" type="line"/>
			<point x="164" y="644" type="line"/>
			<point x="164" y="761" type="line"/>
			<point x="144" y="761" type="line"/>
		</contour>
		<contour>
			<point x="256" y="-115" type="line"/>
			<point x="276" y="-115" type="line"/>
			<point x="276" y="12" type="line"/>
			<point x="256" y="12" type="line"/>
		</contour>
		<contour>
			<point x="256" y="644" type="line"/>
			<point x="276" y="644" type="line"/>
			<point x="276" y="761" type="line"/>
			<point x="256" y="761" type="line"/>
		</contour>
	</outline>
</glyph>
<glyph name="soundcopyright" format="2">
	<unicode hex="2117"/>
	<advance width="759"/>
	<outline>
		<contour>
			<point x="256" y="137" type="line"/>
			<point x="410" y="137" type="line"/>
			<point x="410" y="151" type="line"/>
			<point x="335" y="156" type="line"/>
			<point x="325" y="156" type="line"/>
			<point x="256" y="151" type="line"/>
		</contour>
		<contour>
			<point x="256" y="530" type="line"/>
			<point x="325" y="525" type="line"/>
			<point x="331" y="525" type="line"/>
			<point x="331" y="544" type="line"/>
			<point x="256" y="544" type="line"/>
		</contour>
		<contour>
			<point x="316" y="137" type="line"/>
			<point x="344" y="137" type="line"/>
			<point x="344" y="544" type="line"/>
			<point x="316" y="544" type="line"/>
		</contour>
		<contour>
			<point x="329" y="309" type="line"/>
			<point x="382" y="309" type="line" smooth="yes"/>
			<point x="490" y="309"/>
			<point x="540" y="360"/>
			<point x="540" y="429" type="curve" smooth="yes"/>
			<point x="540" y="499"/>
			<point x="495" y="544"/>
			<point x="405" y="544" type="curve" smooth="yes"/>
			<point x="329" y="544" type="line"/>
			<point x="329" y="528" type="line"/>
			<point x="400" y="528" type="line" smooth="yes"/>
			<point x="479" y="528"/>
			<point x="511" y="493"/>
			<point x="511" y="431" type="curve" smooth="yes"/>
			<point x="511" y="367"/>
			<point x="475" y="325"/>
			<point x="376" y="325" type="curve" smooth="yes"/>
			<point x="329" y="325" type="line"/>
		</contour>
		<contour>
			<point x="380" y="-13" type="curve" smooth="yes"/>
			<point x="570" y="-13"/>
			<point x="729" y="121"/>
			<point x="729" y="340" type="curve" smooth="yes"/>
			<point x="729" y="559"/>
			<point x="570" y="689"/>
			<point x="380" y="689" type="curve" smooth="yes"/>
			<point x="190" y="689"/>
			<point x="30" y="559"/>
			<point x="30" y="340" type="curve" smooth="yes"/>
			<point x="30" y="121"/>
			<point x="190" y="-13"/>
		</contour>
		<contour>
			<point x="380" y="6" type="curve" smooth="yes"/>
			<point x="197" y="6"/>
			<point x="54" y="132"/>
			<point x="54" y="340" type="curve" smooth="yes"/>
			<point x="54" y="544"/>
			<point x="197" y="669"/>
			<point x="380" y="669" type="curve" smooth="yes"/>
			<point x="563" y="669"/>
			<point x="706" y="543"/>
			<point x="706" y="340" type="curve" smooth="yes"/>
			<point x="706" y="137"/>
			<point x="564" y="6"/>
		</contour>
	</outline>
</glyph>
